<svg width="468.75" height="219.27" version="1.1" viewBox="0 0 124.02 58.015" xmlns="http://www.w3.org/2000/svg">
 <g transform="translate(-34.492 -34.493)" fill="#fff">
  <path d="m66.112 59.903a0.12009 0.12009 0 0 0-0.116 0.13575c0.07126 0.60975 0.13288 1.0774 0.67126 2.5202a0.12009 0.12009 0 1 0 0.22451-0.08354c-0.53489-1.433-0.58596-1.8565-0.65674-2.4645a0.12009 0.12009 0 0 0-0.12301-0.1079zm-8.7604 10.704a0.12009 0.12009 0 0 0-0.04297 0.01162c-0.15656 0.06905-0.29648 0.08818-0.46819 0.01732a0.12045 0.12045 0 1 0-0.09165 0.22278c0.23438 0.09631 0.46181 0.0644 0.65731-0.02206a0.12009 0.12009 0 0 0-0.05459-0.22974zm0.56855-19.789a0.12009 0.12009 0 0 0-0.09691 0.05569c-0.28429 0.43222-0.54187 0.90795-0.60686 1.5345a0.12046 0.12046 0 1 0 0.23962 0.02495c0.0592-0.57436 0.29181-1.0072 0.56739-1.4278a0.12009 0.12009 0 0 0-0.10329-0.18739zm2.8596 0.7194a0.12009 0.12009 0 0 0-0.0638 0.02379c-0.15963 0.11777-0.26688 0.30748-0.3133 0.55637a0.12009 0.12009 0 0 0 0.16818 0.13343 0.12009 0.12009 0 0 0 0.12586 0.09282c1.9279-0.12242 3.3029 0.61903 4.1731 1.6163 0.87025 0.99729 1.2253 2.2586 1.1 3.1387a0.12012 0.12012 0 1 0 0.23786 0.03366c0.0044-0.03308-0.01535-0.07717-0.01315-0.1108a0.12009 0.12009 0 0 0 0.11314-0.11777c0.02785-0.95958 0.2483-1.9383-0.14165-2.9901a0.12012 0.12012 0 1 0-0.22568 0.08239c0.2808 0.75711 0.22046 1.4927 0.16533 2.2423-0.10613-0.80876-0.3921-1.6744-1.057-2.4361-0.91432-1.0478-2.3711-1.8258-4.368-1.6987a0.12009 0.12009 0 0 0-0.01316 0.0013c0.04297-0.15897 0.10087-0.28428 0.19033-0.34983a0.12009 0.12009 0 0 0-0.07939-0.21756zm5.1379 7.6465a0.12009 0.12009 0 0 0-0.116 0.12358c0.01316 0.7925-0.01754 1.3077-0.0649 1.6941a0.12009 0.12009 0 1 0 0.23786 0.02901c0.05043-0.40031 0.07939-0.92651 0.06665-1.7266a0.12009 0.12009 0 0 0-0.12367-0.1201zm0.08881-15.775c-2.0178 0-3.5343 1.7254-3.5343 3.5941 0 0.20074 0.01973 0.66312 0.05987 0.87952a0.12009 0.12009 0 1 0 0.23554-0.0441c-0.03025-0.1607-0.05504-0.65268-0.05504-0.83543 0-1.7382 1.4133-3.3533 3.2941-3.3533 1.8873 0 3.1671 1.4713 3.1671 3.2158-5.5e-4 0.95146-0.47049 2.1669-1.2613 2.7534a0.12021 0.12021 0 1 0 0.14384 0.19261c0.87893-0.6521 1.357-1.9174 1.3576-2.946 0-1.8629-1.3947-3.456-3.4073-3.456zm-6.8343 8.3195a3.3475 3.3475 0 0 0-3.3452 3.3464c0.0012 0.427-0.0285 1.3721 0.76813 2.0398a0.12009 0.12009 0 1 0 0.15371-0.1845c-0.70952-0.59466-0.68111-1.4173-0.68227-1.8565a3.1038 3.1038 0 0 1 3.105-3.1044 3.1044 3.1044 0 0 1 3.1062 3.1062 0.12009 0.12009 0 0 0 0.0013 0.01228c0.04933 0.45484-0.17279 1.1986-0.51053 1.5989a0.12009 0.12009 0 1 0 0.18221 0.15549c0.39335-0.46588 0.62308-1.2218 0.56682-1.7724a3.3475 3.3475 0 0 0-3.3452-3.3406zm-3.3168-0.83311a0.12009 0.12009 0 0 0-0.1149 0.11312c-0.11599 1.7637 0.13748 2.3206 0.32082 2.9043a0.12009 0.12009 0 1 0 0.22916-0.07136c-0.18968-0.60336-0.42467-1.0785-0.30979-2.8167a0.12009 0.12009 0 0 0-0.1252-0.1288zm0.83427 6.1149a0.12009 0.12009 0 0 0-0.116 0.14505c0.13463 0.67763 0.3156 1.2056 0.76289 1.5612a0.12009 0.12009 0 1 0 0.1491-0.18798c-0.38173-0.304-0.54534-0.76001-0.67646-1.4196a0.12009 0.12009 0 0 0-0.12016-0.09863zm5.2498 0.04525a0.12009 0.12009 0 0 0-0.116 0.08415c-0.22046 0.65326-0.52505 1.1708-1.5757 1.6587a0.12067 0.12067 0 1 0 0.10042 0.21872c1.0965-0.5088 1.4719-1.1168 1.7034-1.8008a0.12009 0.12009 0 0 0-0.11205-0.16128zm-0.85746 2.3369a0.12017 0.12017 0 0 0-0.0087 0.24018c0.4351 0.03655 0.67067 0.0406 0.91432 0.22568 0.24368 0.18566 0.51751 0.58248 0.9561 1.4254a0.12009 0.12009 0 1 0 0.21286-0.11079c-0.44267-0.8511-0.72115-1.2752-1.0246-1.5061-0.30284-0.2309-0.61032-0.23845-1.0385-0.27442a0.12009 0.12009 0 0 0-0.01316 0zm5.2998 14.916c-0.14033-0.0075-0.26166 0.06496-0.35274 0.15665a0.62425 0.62425 0 0 0-0.17871 0.33069 0.56101 0.56101 0 0 0 0.05459 0.33185c0.04998 0.10444 0.13354 0.20188 0.25933 0.23497 0.14384 0.03711 0.28718-0.01098 0.40436-0.08876 0.11709-0.07774 0.21533-0.18971 0.24484-0.33185a0.55927 0.55927 0 0 0-0.07719-0.39799c-0.071909-0.12066-0.19384-0.22626-0.35448-0.23554zm-1.0019 0.08935c-0.14209-0.01514-0.29589 0.0476-0.46703 0.19377a0.12009 0.12009 0 0 0-0.03378 0.04759c-0.17586 0.43918-0.36375 0.84761-0.60046 1.1638-0.2373 0.31619-0.51634 0.53723-0.88764 0.62077a0.12009 0.12009 0 0 0-0.08596 0.16014c0.19384 0.50358 0.46876 0.81976 0.79655 0.99381 0.32779 0.17406 0.69676 0.20421 1.0745 0.17579a0.12014 0.12014 0 1 0-0.01756-0.2396c-0.35274 0.02669-0.67126-0.0053-0.94276-0.14911-0.25122-0.13343-0.46065-0.40031-0.63354-0.8012 0.35391-0.12299 0.66312-0.31561 0.88766-0.61555 0.25179-0.33475 0.43802-0.75015 0.61149-1.1795 0.13398-0.11024 0.22046-0.13751 0.27267-0.1317 0.05459 0.0057 0.10788 0.04467 0.1741 0.11196a0.12067 0.12067 0 1 0 0.17169-0.16825c-0.07785-0.08005-0.17761-0.16708-0.31909-0.18274zm0.98802 0.15084c0.06029 0.0034 0.11841 0.04641 0.16248 0.11893 0.04297 0.0731 0.05964 0.16825 0.04823 0.22452a0.12009 0.12009 0 0 0 0 0.0012c-0.01097 0.05397-0.06733 0.12996-0.14275 0.17985-0.07543 0.05048-0.16248 0.06905-0.21182 0.05569-0.03069-0.0075-0.07367-0.04525-0.10328-0.10618a0.35506 0.35506 0 0 1-0.03312-0.18855 0.41887 0.41887 0 0 1 0.11139-0.20015c0.05812-0.05803 0.12367-0.08704 0.16818-0.08527zm-0.98686 0.86211a0.12009 0.12009 0 0 0-0.08288 0.03654c-0.22162 0.22046-0.42293 0.3829-0.58247 0.51518-0.15963 0.13229-0.28196 0.22742-0.34115 0.36608a0.1201 0.1201 0 1 0 0.22105 0.09397c0.01973-0.04294 0.11709-0.14446 0.27442-0.275 0.15656-0.13113 0.36665-0.29994 0.59756-0.53027a0.12009 0.12009 0 0 0-0.08706-0.20653zm-0.12937 0.83079a0.12009 0.12009 0 0 0-0.03179 7e-3c-0.37305 0.11777-0.50823 0.32083-0.64804 0.46703a0.12046 0.12046 0 1 0 0.1741 0.16652c0.16182-0.16941 0.22859-0.30458 0.54709-0.40495a0.12009 0.12009 0 0 0-0.04057-0.23555zm-4.6413 1.4597c-0.24946-0.07539-0.57958-0.03191-0.88066 0.22916-0.29937 0.26049-0.36667 0.55753-0.27442 0.77277 0.09275 0.21467 0.33126 0.33882 0.5523 0.26107 0.2002-0.06962 0.27964-0.22626 0.38175-0.34751 0.10153-0.12126 0.22973-0.23786 0.55868-0.31909a0.12009 0.12009 0 0 0 0.09056-0.11139c0.01098-0.2251-0.17871-0.40901-0.42815-0.48502zm-0.07017 0.23033a0.31097 0.31097 0 0 1 0.22221 0.20713c-0.25063 0.09397-0.45832 0.20712-0.55695 0.32431-0.1206 0.14389-0.16599 0.23671-0.27732 0.275-0.0899 0.03192-0.2048-0.02205-0.25122-0.12996-0.04648-0.1085-0.03838-0.28022 0.2105-0.49661 0.24716-0.21467 0.48038-0.23206 0.65269-0.17985zm-0.0044 1.9783a0.12009 0.12009 0 0 0-0.06446 0.02263c-0.17871 0.13113-0.29586 0.38465-0.38057 0.67531-0.08465 0.29008-0.1252 0.6173-0.07126 0.89287 0.01535 0.07773 0.04648 0.1607 0.09736 0.23554a0.35738 0.35738 0 0 0 0.2367 0.16244c0.09736 0.01446 0.18266-0.02318 0.24831-0.0731 0.06556-0.0499 0.11556-0.11196 0.14735-0.18333 0.08706-0.19494 0.07543-0.37943 0.03245-0.55869-0.04232-0.17928-0.11029-0.3626-0.15481-0.60743-0.0044-0.02725 0.0044-0.10037 0.02192-0.18449 0.01535-0.08472 0.03661-0.18275 0.01098-0.29008a0.12009 0.12009 0 0 0-0.12408-0.09225zm-0.14165 0.62773c0.04824 0.25411 0.11775 0.44904 0.15437 0.60162 0.03706 0.15665 0.04473 0.26397-0.01973 0.40437a0.26455 0.26455 0 0 1-0.07367 0.09052c-0.03025 0.02318-0.05635 0.02901-0.06667 0.02724-0.01754-0.0025-0.04648-0.02039-0.07477-0.06091a0.4212 0.4212 0 0 1-0.05986-0.14505c-0.04232-0.21697-0.01097-0.51808 0.06556-0.77974 0.01973-0.06612 0.04933-0.07948 0.07368-0.13867zm9.0041-13.367a0.12009 0.12009 0 0 0-0.04517 0.22626c0.22857 0.12415 0.45251 0.2222 0.64106 0.37072 0.17761 0.13981 0.32141 0.34055 0.42815 0.64804-0.03838 0.07716-0.05635 0.1404-0.14976 0.21524-0.116 0.09341-0.35272 0.21697-0.84992 0.37652a0.12009 0.12009 0 0 0-0.08245 0.12764c0.03946 0.34868-0.1695 0.67298-0.37943 1.0188-0.44092 0.02841-0.81107-0.1195-1.1841-0.32953a0.12009 0.12009 0 0 0-0.15897 0.03826 2.2162 2.2162 0 0 1-0.7252 0.68575 0.12009 0.12009 0 0 0-0.0087 0.0057c-0.11139 0.07889-0.18331 0.0969-0.22221 0.09514-0.03881-0.0018-0.06271-0.01689-0.09867-0.06092-0.07259-0.08875-0.13529-0.28542-0.2367-0.45019a0.12026 0.12026 0 1 0-0.20414 0.12705c0.07367 0.1195 0.13003 0.32199 0.25528 0.47457 0.06204 0.07657 0.15656 0.14446 0.27266 0.14968 0.1149 0.0057 0.2344-0.04466 0.36726-0.13808 0.28891-0.16998 0.5233-0.41134 0.72055-0.68111 0.38232 0.21002 0.79771 0.39567 1.31 0.33998a0.12009 0.12009 0 0 0 0.08945-0.05803c0.20722-0.34171 0.43164-0.71185 0.42351-1.1458 0.4421-0.14735 0.71649-0.27035 0.8627-0.3887 0.15656-0.12648 0.1991-0.25411 0.24598-0.33765a0.12009 0.12009 0 0 0 0.01098-0.09514c-0.12018-0.38509-0.31676-0.6334-0.53721-0.80628-0.22046-0.17404-0.45832-0.27616-0.67529-0.39335a0.12009 0.12009 0 0 0-0.06906-0.01513zm-5.3096 2.7662a0.12009 0.12009 0 0 0-0.07257 0.2048c0.25179 0.25527 0.51634 0.49893 0.67762 0.7484 0.15327 0.23496 0.19734 0.46297 0.10328 0.7368-0.22973 0.12415-0.41017 0.16825-0.57434 0.16419-0.1809-0.0034-0.36493-0.04699-0.5935-0.02669a0.12009 0.12009 0 0 0-0.10546 0.08586c-0.12192 0.42932-0.34114 0.64746-0.5732 0.89402-0.2599-0.0053-0.57842-0.11139-0.96539-0.3655a0.12009 0.12009 0 0 0-0.14976 0.01403c-0.28021 0.27442-0.46876 0.3684-0.7159 0.55753a0.12009 0.12009 0 1 0 0.14494 0.19029c0.21116-0.16128 0.41655-0.28718 0.67762-0.52911 0.3887 0.24135 0.74667 0.39973 1.0629 0.39103a0.12009 0.12009 0 0 0 0.08465-0.03826c0.2251-0.23961 0.45657-0.52795 0.60916-0.95842 0.16774-0.0069 0.32606 0.02148 0.51983 0.02612 0.21182 0.0046 0.45716-0.03655 0.7571-0.21524a0.12009 0.12009 0 0 0 0.05109-0.05803c0.14801-0.3713 0.05634-0.71243-0.13047-0.99961-0.18682-0.28718-0.46181-0.5378-0.70779-0.78611a0.12009 0.12009 0 0 0-0.09867-0.03657zm3.1305 2.8439a0.12009 0.12009 0 0 0-0.02325 0.0046 0.12009 0.12009 0 0 0-0.06271 0.0406c-0.8331 0.26165-1.3785 0.97003-1.6906 1.983-0.10678 0.34519-0.15722 0.77161-0.21884 1.1818a0.12009 0.12009 0 0 0-0.03069 0.16998 17.521 17.521 0 0 0-0.15196 2.5539c-0.09407 0.10558-0.16073 0.228-0.21182 0.27209-0.03069 0.02612-0.04824 0.03539-0.10087 0.02901-0.05043-0.0057-0.1399-0.04294-0.26166-0.12531-0.24193-0.45489-0.50359-0.88188-0.8569-1.1627-0.36491-0.29066-0.83253-0.41945-1.4086-0.26281a0.12009 0.12009 0 0 0-0.08288 0.1491c0.31792 1.0733 0.04056 1.7266-0.09867 2.5359 0 0.0026-0.0018 0.0041-0.0018 0.0057-0.0012 0.0032 0 0.0041 0 7e-3a0.14678 0.14678 0 0 0-0.0044 0.04294c0.0023 0.0255 0.01097 0.03711 0.01535 0.04872 0.01098 0.02317 0.02326 0.0383 0.03661 0.05685 0.02718 0.03654 0.06314 0.07949 0.10854 0.13229 0.09056 0.10618 0.21533 0.25062 0.34345 0.42061 0.25585 0.34056 0.52213 0.78669 0.56507 1.216a0.12009 0.12009 0 0 0 0.15897 0.10096c0.40149-0.14097 0.8221-0.21813 1.1568-0.45659 0.31387-0.22452 0.50939-0.62135 0.52678-1.2624a0.12009 0.12009 0 0 0 0.0066-0.0105c1.527-0.14968 2.5423-0.67705 3.1433-1.4156 0.58712-0.72056 0.77625-1.6198 0.76465-2.5011a0.12009 0.12009 0 0 0 0.0087-0.09863c0-0.0105 0.0044-0.02083 0.0044-0.03192-0.0342-0.92246-0.29762-1.82-0.6144-2.4889-0.15831-0.33533-0.32895-0.61265-0.49718-0.81048-0.10895-0.12761-0.22625-0.15662-0.33996-0.2094a0.12009 0.12009 0 0 0-0.16533-0.10212c-0.0066 0-0.01316-0.01272-0.01973-0.01228zm-0.08596 0.31909c-0.13113 0.54941-0.19384 1.1255 0.21752 1.6854a0.12009 0.12009 0 1 0 0.19252-0.1433c-0.36665-0.49894-0.30457-0.99497-0.1741-1.5218 0.06207 0.03654 0.10438 0.03771 0.19099 0.13924 0.14801 0.17522 0.31213 0.43802 0.46354 0.75885 0.27674 0.58596 0.4769 1.386 0.54013 2.1901-0.51634-0.40089-1.0344-0.66951-1.5548-0.72752-0.51345-0.05743-1.0211 0.09573-1.5183 0.37942 0.05635-0.33359 0.09276-0.69851 0.1798-0.98105 0.28834-0.93522 0.76581-1.5258 1.462-1.7788zm-0.14976 2.6194c0.52562 0.05803 1.0658 0.33069 1.6204 0.80642 0.01316 0.84587-0.16818 1.69-0.7136 2.3595-0.56855 0.69793-1.5246 1.2183-3.065 1.3495-0.228-0.1729-0.40844-0.32837-0.49893-0.44324-0.10262-0.1317-0.12762-0.22104-0.1252-0.28892 0.0022-0.06789 0.0342-0.12937 0.08947-0.2019 0.03839-0.05049 0.0899-0.10966 0.13924-0.16766 0.09516 0.05397 0.19033 0.11313 0.27093 0.12183a0.37652 0.37652 0 0 0 0.28543-0.08527c0.13748-0.11777 0.19252-0.2721 0.25411-0.32547a0.12009 0.12009 0 0 0 0.04057-0.09282c-0.01316-0.97118 0.05043-1.8217 0.15788-2.6003 0.51634-0.33939 1.028-0.48965 1.5455-0.43164zm-4.0466 1.94c0.19493 0.0406 0.36551 0.12996 0.52332 0.25527 0.30111 0.24019 0.54709 0.63701 0.77973 1.0704-0.04517 0.05337-0.09232 0.10559-0.14165 0.16998-0.01316 0.01864-0.01535 0.04874-0.02852 0.06905-0.1138-0.10732-0.22627-0.21813-0.36724-0.2866a0.99439 0.99439 0 0 0-0.64225-0.08123 0.12009 0.12009 0 1 0 0.04648 0.23554c0.19252-0.03827 0.34577-0.0087 0.49082 0.06207 0.13332 0.06496 0.25642 0.1752 0.38 0.29936-0.0022 0.01556-0.01755 0.0238-0.01755 0.0406-0.0023 0.07367 0.06161 0.15954 0.09516 0.24018-0.31154 0.09398-0.62889 0.23554-0.93695 0.55521a0.12046 0.12046 0 1 0 0.1741 0.16652 1.7997 1.7997 0 0 1 0.85284-0.50764c0.04691 0.05975 0.16182 0.13864 0.23032 0.20421-0.0684 0.27964-0.07719 0.48733-0.60048 0.84298a0.12009 0.12009 0 1 0 0.13463 0.19783c0.49547-0.33649 0.59234-0.62077 0.65847-0.86908 0.04867 0.03943 0.06952 0.07019 0.12586 0.11256-0.01098 0.6051-0.17235 0.90794-0.43278 1.0936-0.25063 0.17869-0.61962 0.26166-1.0008 0.38755-0.08881-0.4473-0.31038-0.87777-0.55-1.1963-0.13353-0.17812-0.26106-0.32663-0.35098-0.43164a2.8573 2.8573 0 0 1-0.09736-0.11893c0.12871-0.73158 0.3597-1.4469 0.09977-2.479 0.21116-0.04526 0.40844-0.06671 0.57552-0.03191zm1.4672-30.922c-0.16774 0.04642-0.29705 0.16014-0.39452 0.3011-0.19428 0.28254-0.28832 0.68459-0.4032 1.0913a0.12009 0.12009 0 1 0 0.2309 0.06555c0.116-0.41133 0.21752-0.80004 0.36956-1.0211 0.07542-0.11023 0.15788-0.17695 0.26166-0.20596 0.10438-0.02902 0.24076-0.02148 0.4328 0.05453a0.12018 0.12018 0 1 0 0.08881-0.22336c-0.22451-0.08876-0.41828-0.10966-0.58596-0.06265zm1.8252 0.40321a0.12009 0.12009 0 0 0-0.0044 0.23902c0.28659 0.03366 0.52099 0.07428 0.64688 0.26107 0.12586 0.18566 0.1741 0.58132-0.03179 1.3773a0.12009 0.12009 0 1 0 0.23205 0.06035c0.21357-0.82267 0.19142-1.288-5.5e-4 -1.5728-0.19274-0.28544-0.52682-0.32953-0.81806-0.36376a0.12009 0.12009 0 0 0-0.02391-0.0013zm-8.4877 7.4957c-0.26863 0.04988-0.50939 0.25759-0.66604 0.57436-0.14801 0.29762-0.20414 0.71186-0.16292 1.1911-0.09911 0.04873-0.19428 0.10442-0.24598 0.1845-0.13178 0.2048-0.13222 0.43512-0.08639 0.58132a0.12067 0.12067 0 1 0 0.23032-0.07136c-0.01754-0.05626-0.02193-0.25643 0.05812-0.37942a0.31329 0.31329 0 0 1 0.17871-0.13343h0.0012a0.12009 0.12009 0 0 0 0.0066-0.0024c0.08881-0.02612 0.21467-0.03135 0.39568 0.01689 0.55695 0.14911 1.0454-0.01514 1.3901-0.19726 0.11885-0.06323 0.18046-0.07079 0.21291-0.06555 0.03179 0.0053 0.05986 0.02495 0.11315 0.07367 0.02609 0.02321 0.12652 0.04582 0.16292 0.07542 0.0018 0.0081-0.0044 0.01338-0.0021 0.02083a0.12009 0.12009 0 0 0 0.19384 0.06962c0.10437 0.05684 0.13682 0.13053 0.31909 0.14794 0.3359 0.03251 0.60626-0.02205 0.8563-0.07136a0.12009 0.12009 0 0 0 0.11139-0.0105c0.01097-0.0024 0.03201-5.52e-4 0.04407-0.0028 0.27615-0.05975 0.49139-0.10734 0.63122-0.076 0.0853 0.01865 0.19033 0.10907 0.2605 0.2309 0.06952 0.12183 0.09977 0.26919 0.0807 0.3597a0.12009 0.12009 0 1 0 0.23438 0.05049c0.03838-0.17636-0.01316-0.36608-0.10679-0.5291-0.09276-0.16244-0.23208-0.30574-0.41714-0.34694-0.0638-0.01381-0.14034 0.01973-0.2059 0.02148-0.07016-0.62889-0.21642-1.0884-0.4328-1.3518-0.22973-0.27964-0.54011-0.36492-0.81221-0.27848-0.32141 0.10212-0.53956 0.43396-0.66834 0.84297a0.12009 0.12009 0 0 0-0.01099 0.12183 1.8246 1.8246 0 0 0-0.0522 0.55927c-0.0044-0.0046-0.01756-0.0069-0.02259-0.01162-0.0592-0.05453-0.13288-0.11604-0.23903-0.13227-0.09165-0.01446-0.19669 0.02321-0.3133 0.07774-0.0087-0.22046-0.0818-0.33533-0.12301-0.50648a0.12009 0.12009 0 0 0-0.04509-0.18458c-0.04978-0.15084-0.04582-0.39102-0.12016-0.4972-0.19424-0.27844-0.47743-0.40144-0.74663-0.35154zm0.04406 0.23554c0.1752-0.0325 0.35156 0.03308 0.50532 0.25411 0.03707 0.05337 0.03422 0.20886 0.06556 0.28196-0.09165-0.029-0.19493-0.07543-0.27499-0.08298-0.15327-0.01338-0.29299 0.01864-0.40032 0.10444-0.21357 0.17114-0.2715 0.4885-0.28775 0.93232a0.95378 0.95378 0 0 0-0.24135-0.0069c-0.03135-0.427 0.01756-0.79366 0.13858-1.0379 0.13222-0.26687 0.31968-0.41249 0.49488-0.44498zm2.3705 0.07483c0.18682-0.05917 0.37189-0.01907 0.55406 0.20305 0.17125 0.20827 0.31154 0.62773 0.37943 1.2236-0.08706 0.01623-0.16424 0.0053-0.25933 0.02552-0.04056-0.29124-0.0899-0.54071-0.17344-0.69329-0.09867-0.17985-0.24192-0.28138-0.38987-0.31038-0.14735-0.02902-0.2895 0.0034-0.41888 0.03771-0.07126 0.01865-0.12652 0.02786-0.18923 0.04294 0.12126-0.27383 0.30749-0.46877 0.4972-0.5291zm-2.0944 0.61729c0.08815 0.0081 0.22046 0.05685 0.35853 0.11198 0.05043 0.18682 0.13047 0.30342 0.13507 0.5761-0.26107 0.11371-0.56912 0.17928-0.9213 0.11777 0.01535-0.42351 0.09101-0.66718 0.19735-0.75246 0.0522-0.04293 0.11885-0.0638 0.22976-0.05337zm2.1605 0.06671c0.08289 0.01623 0.15086 0.05512 0.22451 0.18912 0.0603 0.1108 0.10678 0.33939 0.14494 0.60046-0.22394 0.04178-0.44962 0.08933-0.72869 0.06267-0.17586-0.01732-0.20897-0.08586-0.28892-0.13751-0.03201-0.23264 0.0087-0.42874 0.05964-0.61961 0.09452-0.018 0.18967-0.03826 0.27558-0.06092 0.1206-0.03191 0.22973-0.04987 0.3127-0.03423zm-3.8407 2.9112a0.12009 0.12009 0 0 0-0.11249 0.08818c-0.13463 0.45948-0.12477 0.49313-0.29586 0.8656a0.1202 0.1202 0 1 0 0.21862 0.0998c0.17454-0.38116 0.17586-0.4444 0.30808-0.89866a0.12009 0.12009 0 0 0-0.11884-0.15489zm7.0895 3.702a0.12009 0.12009 0 0 0-0.1149 0.12591c0.04343 1.2572 0.37538 3.7559 0.18573 5.7134-0.09449 0.97873-0.32487 1.8147-0.75362 2.2823a1.2705 1.2705 0 0 1-0.80585 0.42236c-0.33301 0.04235-0.74259-0.0232-1.245-0.23322a0.12041 0.12041 0 1 0-0.09275 0.2222c0.52851 0.22162 0.98046 0.29878 1.3674 0.24947a1.5316 1.5316 0 0 0 0.9532-0.49894c0.04232-0.04641 0.05679-0.12648 0.09516-0.17752h0.0013c0.21226-0.03943 0.49196-0.0325 0.77741-0.10906 0.28543-0.07659 0.57726-0.25063 0.78438-0.62889a0.12022 0.12022 0 1 0-0.2105-0.11604c-0.17805 0.32605-0.39452 0.44788-0.63587 0.51286-0.18397 0.04932-0.38173 0.05919-0.5761 0.08005 0.30459-0.53084 0.50415-1.1928 0.58017-1.983 0.19428-2.0033-0.14209-4.5183-0.18441-5.7436a0.12009 0.12009 0 0 0-0.12585-0.11776zm1.6767 2.1878a0.12009 0.12009 0 0 0-0.11205 0.12764c0.07763 1.5223-0.02959 3.0336-0.30748 4.1464a0.12009 0.12009 0 1 0 0.23206 0.05803c0.28661-1.1487 0.39451-2.6757 0.31562-4.2172a0.12009 0.12009 0 0 0-0.12759-0.11544zm-13.645-13.152a0.12009 0.12009 0 0 0-0.11205 0.10212c-0.18265 1.1069-0.11205 2.3021-0.05811 3.4821a0.12009 0.12009 0 0 0 0 0.0034 0.12009 0.12009 0 0 0-0.0011 0.0204c0 0.0041 0.0023 7e-3 0.0023 0.01162a0.12009 0.12009 0 0 0 0.0011 0.01099c0.12937 2.2208 0.9625 3.1566 1.6337 4.5322-0.0899 0.52794-0.16993 1.0808-0.16643 1.8008a0.12009 0.12009 0 1 0 0.23901-0.0011c-0.0044-0.7165 0.07608-1.2636 0.16818-1.7973 0.55987-1.7492 1.7074-2.638 2.8764-3.4467a0.12009 0.12009 0 1 0-0.13688-0.19727c-1.1209 0.77567-2.2557 1.6883-2.866 3.344-0.66199-1.2926-1.3924-2.193-1.5102-4.2606a0.12009 0.12009 0 0 0-0.0013-0.0087v-0.0012c-0.0539-1.1894-0.12189-2.3764 0.05506-3.4526a0.12009 0.12009 0 0 0-0.12413-0.14154zm-3.89 2.7952a0.12009 0.12009 0 0 0-0.10854 0.10557c-0.28137 2.1518-0.24019 3.7246 0.19428 4.9952 0.43512 1.2717 1.2636 2.2313 2.5202 3.1485a0.12016 0.12016 0 1 0 0.14208-0.19377c-1.2328-0.89983-2.0178-1.8142-2.4338-3.0325-0.41655-1.2183-0.46413-2.7523-0.18506-4.8861a0.12009 0.12009 0 0 0-0.12937-0.13751zm14.771 1.3767a0.12009 0.12009 0 0 0-0.0638 0.22568c1.9279 1.1214 2.8648 2.9321 3.2947 4.7445 0.40669 1.7161 0.34461 3.3852 0.23901 4.4782-0.58364-0.42932-1.133-0.8012-1.6488-1.5287-0.57088-0.80468-1.1116-2.0561-1.6036-4.3117a0.12023 0.12023 0 1 0-0.23497 0.05105c0.49604 2.2731 1.0449 3.5564 1.6419 4.3988 0.59697 0.84239 1.2375 1.2346 1.882 1.7202a0.12009 0.12009 0 0 0 0.19252-0.08298c0.11841-1.0948 0.20414-2.9269-0.23554-4.7805-0.43918-1.8542-1.4115-3.7362-3.4073-4.8965a0.12009 0.12009 0 0 0-0.05635-0.01732zm-1.0269 1.5612a0.12009 0.12009 0 0 0-0.09692 0.05569c-0.28661 0.44266-0.52564 0.74144-0.84413 0.9416-0.31852 0.20015-0.72869 0.30922-1.3732 0.351a0.12009 0.12009 0 1 0 0.01535 0.23903c0.66545-0.04294 1.122-0.15898 1.4858-0.38754 0.36375-0.22858 0.62482-0.5616 0.91781-1.0141a0.12009 0.12009 0 0 0-0.10505-0.18565zm-4.1592-10.605c-0.19142-0.01381-0.38116 0.07542-0.54535 0.2483-0.16358 0.1723-0.31213 0.42816-0.44846 0.77973-0.16358 0.42352-0.11073 0.92187-0.26631 1.5444a0.12017 0.12017 0 1 0 0.23322 0.05803c0.16533-0.66254 0.1252-1.1742 0.2576-1.5154 0.12871-0.33243 0.26745-0.56275 0.39857-0.70141 0.13112-0.13865 0.24541-0.18218 0.35389-0.17404 0.10854 0.0075 0.22916 0.07426 0.35564 0.2164 0.09867 0.11022 0.19252 0.29704 0.28429 0.48791-0.3156 0.0034-0.60684 0.07717-0.80004 0.31909-0.2367 0.29588-0.33068 0.77335-0.27731 1.4927a0.12009 0.12009 0 1 0 0.23903-0.01798c-0.05109-0.69039 0.05043-1.1052 0.22625-1.3257 0.15832-0.19842 0.41133-0.23496 0.71593-0.21756 0.09165 0.28428 0.11249 0.63121 0.21752 1.0663a0.12031 0.12031 0 1 0 0.23381-0.05684c-0.10262-0.42236-0.11314-0.7983-0.2367-1.1412v-0.0012a0.12009 0.12009 0 0 0-0.02193-0.07889 0.12009 0.12009 0 0 0-0.0066-0.0105c-0.11774-0.27846-0.24782-0.51052-0.39576-0.67644-0.15261-0.17114-0.32777-0.28196-0.51864-0.29588zm-0.95842 4.3976a0.12009 0.12009 0 0 0-0.0087 0.0012c-0.39511 0.03771-0.69737 0.29008-0.91551 0.58944-0.18331 0.25121-0.28891 0.53085-0.37943 0.78321-0.11139-0.16244-0.22684-0.31735-0.38638-0.37478-0.20129-0.0731-0.42758-0.0476-0.6608 0.05627-0.23265 0.10444-0.47863 0.2866-0.74202 0.54187-0.52737 0.51054-1.1278 1.3181-1.7985 2.4181a0.12018 0.12018 0 1 0 0.20546 0.12474c0.66429-1.0907 1.259-1.8855 1.7608-2.3705 0.25063-0.24309 0.4769-0.40727 0.67183-0.4943 0.19428-0.08702 0.34983-0.09863 0.48152-0.05105 0.13112 0.0476 0.25179 0.15954 0.35796 0.36028 0.10613 0.20131 0.19318 0.48791 0.25236 0.85864 0.1195 0.7426 0.12937 1.8182 0.01098 3.2303a0.12009 0.12009 0 1 0 0.23903 0.01907c0.11884-1.4231 0.11205-2.5132-0.01316-3.2883a3.0737 3.0737 0 0 0-0.23495-0.78546 0.12009 0.12009 0 0 0 0.01098-0.02263c0.08529-0.26455 0.22337-0.59756 0.41771-0.86443 0.19493-0.26687 0.43688-0.46239 0.74377-0.4914a0.12034 0.12034 0 0 0-0.01535-0.24019zm-1.1371-3.0447c-0.3597-0.05165-0.64628 0.0325-0.83775 0.22568-0.19143 0.1932-0.28659 0.47573-0.33301 0.80352a0.12009 0.12009 0 0 0 0.0044 0.05453c0.10153 0.30574 0.16073 0.63934 0.33301 0.9677 0.17169 0.32721 0.46181 0.64049 0.9973 0.8975 0.82672 0.46413 1.4075 0.36318 1.9273 0.24773a0.12009 0.12009 0 1 0-0.05218-0.23438c-0.51634 0.11428-0.9851 0.21407-1.7619-0.22452a0.12009 0.12009 0 0 0-0.0066-0.0034c-0.50072-0.239-0.74089-0.50646-0.89174-0.79422-0.14494-0.27616-0.2037-0.58132-0.30457-0.89519 0.04341-0.28892 0.12696-0.51576 0.25934-0.6492 0.12937-0.12937 0.31849-0.18044 0.59929-0.1491 0.25585 0.20421 0.35507 0.5233 0.60162 0.81802 0.12762 0.15257 0.3017 0.28834 0.55522 0.36782 0.2489 0.07832 0.57609 0.10152 1.0118 0.05803 0.23032 0.02083 0.45194-0.01403 0.67299-0.1404 0.21533-0.12299 0.43396-0.33591 0.68808-0.6405 0.07126-0.04699 0.16073-0.04235 0.28021 0.01732 0.1195 0.05976 0.2512 0.1752 0.3568 0.31444a0.12067 0.12067 0 1 0 0.19142-0.14621c-0.12408-0.16362-0.27672-0.30171-0.44205-0.38409-0.16533-0.08238-0.36029-0.10618-0.51867-0.0013a0.12009 0.12009 0 0 0-0.02609 0.0238c-0.25758 0.3127-0.46471 0.50184-0.64804 0.60626-0.18331 0.10442-0.34229 0.13053-0.53722 0.11196a0.12009 0.12009 0 0 0-0.0239 0c-0.42642 0.04465-0.72228 0.01733-0.9323-0.04874a0.89344 0.89344 0 0 1-0.44439-0.29295c-0.21057-0.25178-0.30988-0.62946-0.66495-0.88822a0.12009 0.12009 0 0 0-0.05286-0.02203zm9.0563-2.0555c-0.12476 0.01162-0.24019 0.06962-0.33706 0.16419-0.09692 0.09457-0.18046 0.22278-0.26631 0.38871-0.17169 0.33243-0.35099 0.82034-0.59697 1.5084a0.12067 0.12067 0 1 0 0.22625 0.08123c0.246-0.68633 0.42526-1.1725 0.58423-1.4794 0.07893-0.15316 0.15305-0.26107 0.22046-0.32663a0.29588 0.29588 0 0 1 0.18967-0.09746 0.47863 0.47863 0 0 1 0.36667 0.11139c0.12476 0.10673 0.24947 0.31909 0.2947 0.74667 0.03377 0.30574-0.03179 0.63991-0.02193 1.1365a0.12012 0.12012 0 1 0 0.24019-0.0046c-0.0087-0.47167 0.05919-0.80178 0.01973-1.1568-0.04934-0.46529-0.19318-0.74609-0.3771-0.90505a0.72752 0.72752 0 0 0-0.5436-0.16713zm3.1404 0.78902c-0.18967-0.04873-0.38697 5.49e-4 -0.57088 0.10384-0.18397 0.10269-0.35913 0.26108-0.51577 0.45253-0.31328 0.38174-0.5552 0.89925-0.5935 1.3982a0.12067 0.12067 0 1 0 0.24019 0.01732c0.03377-0.4328 0.25528-0.91665 0.53954-1.2636 0.14165-0.17289 0.29764-0.31212 0.44672-0.39508 0.14801-0.08355 0.28312-0.10906 0.39452-0.08065 0.1206 0.03075 0.22394 0.06092 0.30632 0.14505 0.08245 0.08412 0.15656 0.23438 0.17805 0.54187 0.02499 0.351-0.10437 1.0234-0.3568 1.5896a0.12067 0.12067 0 1 0 0.2193 0.09863c0.26863-0.60105 0.40787-1.2793 0.3771-1.7057-0.02325-0.34113-0.1138-0.55695-0.24655-0.69155-0.13288-0.13575-0.29472-0.17985-0.41771-0.21118zm-8.0062 2.1141a0.12009 0.12009 0 0 0-0.0476 0.22916c0.27615 0.13518 0.91084 0.57552 1.2462 1.0367 0.16774 0.23032 0.25644 0.46006 0.2257 0.64978-0.03025 0.18566-0.18156 0.3655-0.54768 0.5262-0.7368-0.1961-1.2514-0.23148-1.6726-0.23032-0.4328 0.0018-0.7867 0.02205-1.2874-0.09514-0.82093-0.41597-1.3924-0.77857-1.7573-1.0924-0.36783-0.31561-0.52564-0.57842-0.55695-0.78902a0.12009 0.12009 0 1 0-0.2373 0.03483c0.04472 0.2953 0.24657 0.59989 0.63817 0.9358 0.39162 0.33649 0.97699 0.70779 1.8176 1.1331a0.12009 0.12009 0 0 0 0.02719 0.0098c0.5407 0.12937 0.92827 0.10441 1.3576 0.10326 0.42931-0.0012 0.90794 0.01865 1.6726 0.23032a0.12009 0.12009 0 0 0 0.07829-0.0046c0.43048-0.18158 0.65788-0.43628 0.70487-0.72288 0.04648-0.28718-0.08004-0.57145-0.26745-0.82963-0.37535-0.51634-1.0095-0.9532-1.3349-1.1127a0.12009 0.12009 0 0 0-0.05921-0.01272zm3.3562-0.86908a0.12009 0.12009 0 0 0-0.11314 0.13808c0.40901 2.9594 0.59756 2.631 1.6749 4.0826l0.0023 0.0034a0.12009 0.12009 0 0 0 0.12871 0.06729 0.12009 0.12009 0 0 0 0.02719-0.0081l0.0066-0.0034c1.4086-0.24367 2.7494-0.81454 3.6817-2.171a0.12009 0.12009 0 0 0 0.01973-0.04988 0.12009 0.12009 0 0 0-0.01099-0.17579c-0.02193-0.01734-0.03179-0.03655-0.04011-0.08005-0.0087-0.0435-0.0087-0.10444-0.01315-0.17114-0.0044-0.06729-0.01098-0.14505-0.04999-0.22104-0.03881-0.076-0.11775-0.14389-0.22046-0.17463-0.23265-0.06962-0.55754-0.04873-0.86733-0.04294a4.2874 4.2874 0 0 1-0.4253-0.0081c-0.12126-0.0105-0.21467-0.03711-0.24774-0.05976-0.21357-0.14505-0.32779-0.35216-0.45021-0.55695-0.12236-0.2048-0.26339-0.41829-0.53549-0.47979-0.26396-0.05975-0.47341 0.02729-0.65383 0.11313-0.1809 0.08586-0.34055 0.17057-0.56855 0.16998-0.12652 0-0.33187-0.10559-0.54884-0.21291-0.21711-0.10736-0.45848-0.22106-0.70795-0.1497a0.12009 0.12009 0 0 0-0.02326 0.0087 0.12009 0.12009 0 0 0-0.06798-0.01732zm0.15788 0.23903c0.13573-0.03886 0.32606 0.03135 0.53432 0.13518 0.20875 0.10327 0.42179 0.23786 0.65385 0.23786 0.28892 0 0.49893-0.11022 0.67299-0.19261 0.1741-0.08239 0.30573-0.13924 0.49777-0.09631 0.1741 0.03946 0.26455 0.17114 0.3829 0.36956 0.11841 0.19726 0.25411 0.44905 0.52099 0.63121 0.10087 0.0679 0.22335 0.08818 0.36142 0.10037 0.13924 0.01228 0.29416 0.01162 0.45137 0.0093 0.31328-0.0059 0.64223-0.01228 0.79423 0.03308 0.0522 0.01514 0.06207 0.02959 0.07479 0.05397a0.35622 0.35622 0 0 1 0.02325 0.12588c0.0044 0.05803 0.0044 0.12531 0.01754 0.19958 0.0066 0.04176 0.04407 0.08182 0.06798 0.12474a0.12009 0.12009 0 0 0-0.0012 0.0024c-0.50012 0.72752-1.1325 1.1835-1.8211 1.516 0.05393-0.03251 0.11884-0.04759 0.17125-0.08182 0.5639-0.36782 1.042-0.8627 1.2961-1.6099a0.12054 0.12054 0 1 0-0.22797-0.07829c-0.23554 0.69213-0.66486 1.14-1.1986 1.4875-0.5088 0.33185-1.1174 0.56508-1.719 0.81571-1.0077-1.3355-1.1824-1.1406-1.5571-3.7826a0.12009 0.12009 0 0 0 0.0044-0.0011zm-7.0489-4.3645c-1.7469-0.0435-3.5825 1.3228-3.8627 3.6863-4.1168 1.7254-6.0046 4.7689-7.1128 8.2963-1.1139 3.5465-1.4666 7.5827-2.5678 11.313-0.116 0.39451-0.49372 0.69619-0.94392 0.92942-0.45078 0.23322-0.96074 0.39335-1.3112 0.53026a0.12009 0.12009 0 0 0-0.05459 0.1816c0.23208 0.32953 0.41539 0.74434 0.79655 1.0153 0.38059 0.27093 0.94568 0.36666 1.8762 0.10212a0.1203 0.1203 0 1 0-0.06555-0.2315c-0.89345 0.25411-1.3576 0.15665-1.6714-0.06672-0.27383-0.19493-0.44032-0.5233-0.64455-0.83601 0.33244-0.12358 0.76118-0.26281 1.1835-0.48153 0.47573-0.24657 0.91956-0.57958 1.0658-1.0745 1.1104-3.7618 1.4632-7.7973 2.5655-11.307 1.1023-3.51 2.9368-6.4862 7.0257-8.1802a0.12009 0.12009 0 0 0 0.07368-0.0998c0.23727-2.298 2.0015-3.5784 3.6376-3.5378 0.81804 0.0204 1.6012 0.36898 2.1611 1.0948 0.55925 0.72578 0.89691 1.8362 0.78901 3.3916a0.1207 0.1207 0 1 0 0.24076 0.01732c0.11027-1.5983-0.23614-2.7732-0.83951-3.5564-0.60337-0.78321-1.4632-1.1655-2.3456-1.1876zm6.9039 4.1278c-0.75768-0.05569-1.3651-0.06555-1.9145 0.05685-0.54884 0.12242-1.0338 0.38-1.5328 0.84297a0.12012 0.12012 0 1 0 0.16248 0.17695c0.47573-0.44092 0.91375-0.67299 1.4226-0.78612 0.5088-0.11371 1.0948-0.10674 1.8449-0.05105a0.12009 0.12009 0 1 0 0.01754-0.23903zm5.3224 1.8524a0.12009 0.12009 0 0 0-0.07126 0.21524c2.204 1.7428 1.7619 3.7954 1.8426 5.0834a0.12031 0.12031 0 1 0 0.24019-0.01446c-0.07608-1.2149 0.35506-3.4462-1.9342-5.2568a0.12009 0.12009 0 0 0-0.07719-0.02728zm-18.24 15.798a0.12009 0.12009 0 0 0-0.1138 0.10212c-0.53373 3.1166-0.4676 5.6861 0.54187 7.4318 0.01973 0.03539 0.05459 0.05803 0.07543 0.09282-0.49661 0.70547-0.69968 1.2891-0.7368 1.8043-0.03661 0.52272 0.08881 0.96945 0.20414 1.4011a0.12011 0.12011 0 1 0 0.23206-0.06207c-0.116-0.43338-0.2303-0.84703-0.19669-1.3228 0.03201-0.44672 0.23614-0.97467 0.66834-1.6117a4.3964 4.3964 0 0 0 1.7225 1.4672 0.12009 0.12009 0 0 0-0.0066 0.02263c-0.13178 0.55753-0.26166 0.81686-0.39625 1.2578a0.12009 0.12009 0 1 0 0.22857 0.07019c0.12477-0.40785 0.25471-0.69155 0.38524-1.2224 1.0211 0.43338 2.3114 0.61207 3.923 0.48037a0.12009 0.12009 0 0 0 0.09978-0.07019c0.1195-0.26223 0.15261-0.65616 0.10328-1.0275a1.6447 1.6447 0 0 0-0.14732-0.51636c-0.07652-0.15259-0.18616-0.28254-0.33996-0.34462-0.95493-0.38755-1.831-1.0153-2.4036-2.1878-0.57204-1.1731-0.83775-2.9008-0.52794-5.4842a0.12039 0.12039 0 1 0-0.23903-0.02901c-0.31327 2.6125-0.04824 4.3889 0.55117 5.6188 0.60046 1.2299 1.5374 1.9041 2.5295 2.3061 0.08113 0.03308 0.15437 0.11024 0.21401 0.22858 0.05964 0.11893 0.10262 0.275 0.12477 0.44092 0.04056 0.30632-0.0044 0.62773-0.07719 0.82731-3.0215 0.2251-4.8327-0.6138-5.7825-2.2586-0.96013-1.6627-1.0431-4.1818-0.51341-7.2752a0.12009 0.12009 0 0 0-0.12367-0.14273zm10.901 1.3268a0.12009 0.12009 0 0 0-0.116 0.11256c-0.25758 3.3986 0.03135 5.3491 0.58712 6.5906 0.51229 1.1429 1.2531 1.6569 1.9499 2.128-0.59118 0.23786-1.1516 0.48733-1.813 0.3771-0.73796-0.12299-1.6407-0.69213-2.8718-2.2876a0.12009 0.12009 0 1 0-0.18967 0.14621c1.2491 1.6186 2.1977 2.2412 3.0226 2.3787 0.82499 0.13751 1.4898-0.21467 2.142-0.46703a0.12009 0.12009 0 0 0 0.02391-0.21175c-0.75188-0.50938-1.5142-0.97757-2.0439-2.1611-0.5297-1.1835-0.82326-3.0969-0.56625-6.4746a0.12009 0.12009 0 0 0-0.12476-0.12996zm-4.9418 1.726a0.12009 0.12009 0 0 0-0.06622 0.21756c0.23554 0.17696 0.48328 0.33069 0.76059 0.40263 0.2193 0.05685 0.46644-5.5e-4 0.71474-0.07832-0.01316 0.09341-0.04517 0.32025-0.13924 0.72172-0.11139 0.47573-0.28253 1.0483-0.50183 1.4156a0.12009 0.12009 0 1 0 0.2059 0.12299c0.24657-0.41365 0.41655-0.99788 0.53027-1.4852 0.11424-0.48617 0.16884-0.8743 0.16884-0.8743a0.12009 0.12009 0 0 0-0.01098-0.07019 0.12009 0.12009 0 0 0-0.0013-0.0025 0.12009 0.12009 0 0 0-0.0044-0.0081 0.12009 0.12009 0 0 0-0.16248-0.05803c-0.27615 0.13286-0.51112 0.14272-0.74029 0.08295-0.22971-0.05976-0.45249-0.19438-0.67643-0.36261a0.12009 0.12009 0 0 0-0.07826-0.02494zm5.66-6.5848c-0.18572 0.06151-0.30227 0.22336-0.37189 0.41249-0.04297 0.11604-0.02895 0.2982-0.04978 0.43976a0.12009 0.12009 0 0 0-0.01756 0.14621c-0.02959 0.28196-0.07939 0.53955-0.09451 0.84123a0.12026 0.12026 0 1 0 0.24017 0.01272c0.01535-0.32199 0.0592-0.56507 0.09056-0.83949 0.13573-0.07889 0.25295-0.12358 0.32722-0.10734 0.08946 0.01973 0.16818 0.08818 0.24366 0.20886 0.15086 0.24018 0.25006 0.66022 0.34114 1.0101a0.12009 0.12009 0 1 0 0.23206-0.05975c-0.08881-0.34345-0.1798-0.77625-0.36897-1.0791-0.09451-0.15084-0.22221-0.27616-0.39568-0.31444-0.10568-0.02321-0.23265 0.05453-0.35388 0.10095 0.01535-0.07889 0.0087-0.21467 0.03136-0.27674 0.05569-0.15143 0.12477-0.23438 0.22162-0.26629 0.09736-0.03191 0.25295-0.01734 0.49428 0.10558a0.12067 0.12067 0 1 0 0.11029-0.21467c-0.27149-0.13808-0.49427-0.18101-0.67993-0.11951zm-1.6558 0.59699a0.68343 0.68343 0 0 0-0.48847 0.24946c-0.23962 0.29994-0.28023 0.80932-0.16643 1.5664a0.12009 0.12009 0 1 0 0.23671-0.03655c-0.11029-0.731-0.04122-1.1812 0.11775-1.3802 0.07939-0.0992 0.17695-0.14851 0.31909-0.1607 0.14318-0.01162 0.32952 0.02148 0.5523 0.10558a0.1208 0.1208 0 1 0 0.08464-0.22626c-0.24368-0.09109-0.46065-0.1346-0.65558-0.11837zm-1.8345 1.4736a0.12009 0.12009 0 0 0-0.04978 0.22104c0.08881 0.05803 0.18858 0.20713 0.28891 0.38406 0.09978 0.17752 0.20305 0.37826 0.34636 0.53839 0.63585 0.71012 1.5374 1.3489 2.1118 1.8565a0.12009 0.12009 0 1 0 0.15832-0.17985c-0.59234-0.52389-1.4823-1.158-2.0909-1.8368-0.11315-0.12589-0.21357-0.31387-0.31619-0.49604-0.10262-0.18217-0.2048-0.3626-0.3684-0.46819a0.12009 0.12009 0 0 0-0.0807-0.01908zm-2.6107 6.4862a0.12009 0.12009 0 0 0-0.03312 0.0057c-0.58364 0.20132-0.97293 0.86154-1.4156 1.3993a0.12037 0.12037 0 1 0 0.18572 0.15316c0.44789-0.54535 0.84124-1.1354 1.2833-1.3054 0.44556 0.11488 0.86617 0.28718 1.3553 1.013a0.12009 0.12009 0 0 0 0.09758 0.05337c0.1798 0.0025 0.37303-0.02436 0.54533-0.02725 0.15788-0.0028 0.27848 0.02495 0.3655 0.08123 0.11029 0.36086 0.09056 0.58306 0.06952 0.76697a0.12009 0.12009 0 0 0 0.03179 0.09514c0.36724 0.39567 0.41772 0.69503 0.41193 1.0037-1.2955 1.0791-2.5684 2.1373-5.2702 2.7581-0.18397 0.02205-0.33068-0.03366-0.48444-0.13342-0.15481-0.10037-0.30749-0.24367-0.48152-0.36608a0.12009 0.12009 0 0 0-0.10568-0.01557c-1.393 0.44092-2.7349 0.2222-4.1429-0.42526a0.12067 0.12067 0 1 0-0.10087 0.21873c1.4173 0.65152 2.8103 0.87256 4.2415 0.44208 0.14494 0.10618 0.28948 0.23786 0.45832 0.34693 0.17914 0.11604 0.39449 0.20421 0.64745 0.1729a0.12009 0.12009 0 0 0 0.01098-0.0018c2.7848-0.63701 4.1174-1.7544 5.4297-2.8474a0.12009 0.12009 0 0 0 0.04297-0.08704c0.01316-0.34926-0.06665-0.74666-0.45543-1.1858 0.02193-0.18566 0.0592-0.44672-0.08113-0.86676a0.12009 0.12009 0 0 0-0.03771-0.05453c-0.15897-0.12763-0.36259-0.14562-0.55522-0.14272-0.17761 0.0028-0.3481 0.02321-0.49196 0.02495-0.51402-0.72696-1.0188-0.9567-1.4864-1.0733a0.12009 0.12009 0 0 0-0.03487-0.0034zm4.35-8.743c-0.33009-0.05397-0.66775 0.09282-0.90851 0.38522-0.24949 0.30284-0.32025 0.74144-0.55349 1.1673a0.12048 0.12048 0 1 0 0.21116 0.11604c0.25411-0.46471 0.34347-0.90679 0.52794-1.1296 0.19735-0.23902 0.44789-0.34055 0.68459-0.30168 0.23613 0.03887 0.47457 0.21872 0.63587 0.60394 0.116 0.27674-0.0066 0.80062-0.0066 1.4266a0.12009 0.12009 0 1 0 0.24017 0c0-0.58886 0.15722-1.1116-0.01315-1.5194-0.18443-0.44092-0.48852-0.69387-0.81804-0.74782zm-1.8629 3.6202c-0.33882 0.03771-0.7664 0.19088-1.3054 0.46993a0.12009 0.12009 0 0 0 0 0.0018c-0.58942 0.30632-1.3036 0.87314-2.1414 1.4574a0.12009 0.12009 0 0 0-0.04364 0.05512c-0.38057 1.0054-1.028 1.6784-1.3709 2.0132a0.12021 0.12021 0 1 0 0.16818 0.17173c0.34461-0.33533 1.0008-1.0292 1.404-2.0578 0.83427-0.58306 1.549-1.1429 2.0944-1.4266 0.52446-0.27209 0.9323-0.41423 1.2206-0.44672 0.28834-0.03135 0.43686 0.0325 0.52388 0.16476 0.08706 0.13229 0.11315 0.3742 0.05109 0.71186-0.06204 0.33765-0.20897 0.76465-0.43104 1.2578-0.1798 0.39973-0.46124 0.57958-0.76814 1.1481a0.12009 0.12009 0 0 0-0.01098 0.03075c-0.22105 0.96713 0.13047 1.8867 0.28253 2.7534a0.12009 0.12009 0 1 0 0.23554-0.0406c-0.15656-0.89344-0.47806-1.7718-0.28312-2.6467 0.28312-0.51344 0.56103-0.69619 0.76349-1.147 0.22743-0.50474 0.38118-0.94566 0.44905-1.3135 0.06733-0.36724 0.05459-0.66892-0.08705-0.8859-0.14275-0.21699-0.4119-0.30806-0.75072-0.27035zm0.83427-6.9677c-0.83254-0.01557-1.6726 0.25121-2.323 0.8598-0.47981 0.44904-0.79076 1.1499-0.98453 1.9807-1.422-0.23844-4.3378 0.0063-8.2325 3.1503-1.6036 0.36086-2.9182 1.1255-3.742 2.5121-0.82964 1.397-1.1632 3.4044-0.85284 6.2251a0.12023 0.12023 0 1 0 0.23903-0.02612c-0.30748-2.7923 0.02786-4.7434 0.82034-6.0801 0.7925-1.3344 2.0433-2.0671 3.6202-2.4146a0.12009 0.12009 0 0 0 0.05-0.0232c3.8552-3.1172 6.7008-3.3353 8.0468-3.112-0.04232 0.228-0.13113 0.40495-0.14626 0.66138a0.12031 0.12031 0 1 0 0.24019 0.01446c0.07432-1.2734 0.50648-2.1547 1.1069-2.7175 0.60048-0.56275 1.375-0.80932 2.1541-0.79482 1.556 0.03019 3.0975 1.1093 3.2083 2.8097v0.0024a0.12009 0.12009 0 0 0 0 0.0028 0.12009 0.12009 0 0 0 0.0018 0.0081 0.12009 0.12009 0 0 0 0 0.0012 0.12009 0.12009 0 0 0 0.0022 0.01162c0.0012 0.0098 0.19603 1.2241 0.35969 2.2719a0.12009 0.12009 0 0 0-0.05217 0.14272c0.01973 0.05569 0.01316 0.08586-0.0044 0.11777a0.24309 0.24309 0 0 1-0.11205 0.08935 0.53201 0.53201 0 0 1-0.38754 7e-3c-0.1933-0.08658-0.33256-0.20145-0.46831-0.29834-0.13573-0.0969-0.28775-0.18507-0.46935-0.14621a0.12009 0.12009 0 0 0-0.05853 0.03192c-0.20656 0.20537-0.75419 0.51402-1.227 0.5674-0.2396 0.02786-0.46992 0.0057-0.64398-0.11604-0.17345-0.12173-0.31328-0.35032-0.35216-0.79355a0.12009 0.12009 0 0 0-0.10503-0.1085c-0.16248-0.01864-0.4096-0.13575-0.64223-0.17985-0.116-0.02321-0.24019-0.02902-0.35158 0.0348-0.11029 0.0638-0.1798 0.19145-0.20305 0.35796-0.1138 0.63411 0.20195 1.2096 0.77568 1.8008 0.54535 0.56218 0.67124 0.74144 1.0721 0.96886 0.40087 0.22742 1.0576 0.49894 2.7035 1.2851a0.12009 0.12009 0 0 0 0.01098 0.0046c0.1752 0.06323 0.35272-0.01864 0.47687-0.14621 0.12367-0.12764 0.22162-0.30516 0.30459-0.49546 0.16599-0.38058 0.26688-0.79888 0.2721-1.0083 0.0023-0.09573-0.02192-0.27035-0.05812-0.54013-0.03661-0.27035-0.08771-0.61729-0.14494-0.99497a0.12009 0.12009 0 0 0 0-0.0012c-0.19491-1.2832-0.46005-2.9018-0.46005-2.9018a0.12009 0.12009 0 0 0-0.01316-0.04003c-0.14912-1.8067-1.7811-2.9531-3.4287-2.985zm-1.0019 4.8965c0.16248 0.03075 0.38408 0.12474 0.59699 0.1636 0.0592 0.41249 0.19143 0.7252 0.41134 0.87836 0.24192 0.16998 0.53605 0.19145 0.80815 0.16011 0.54884-0.06267 1.1046-0.3742 1.3686-0.63701l-0.0592 0.03251c0.08354-0.01732 0.15327 0.01864 0.27734 0.1079 0.12477 0.08876 0.28426 0.22046 0.51053 0.32199 0.18507 0.08298 0.40611 0.07367 0.58421-7e-3 0.05812-0.02612 0.09801-0.07716 0.14275-0.12242 0.01098 0.07539 0.01535 0.09341 0.02609 0.16825 0.05746 0.37652 0.10788 0.72404 0.14384 0.99207 0.03662 0.26804 0.05635 0.47341 0.05569 0.50184-0.0023 0.12588-0.09867 0.56739-0.25177 0.91781-0.07608 0.1752-0.16818 0.33243-0.25701 0.42352-0.08881 0.09165-0.14801 0.11488-0.22221 0.08876-1.6355-0.7803-2.3073-1.0611-2.6786-1.2723-0.37305-0.21175-0.46876-0.36086-1.0188-0.92825-0.55174-0.56855-0.80815-1.0576-0.71068-1.5931a0.12009 0.12009 0 0 0 0-0.0046c0.01755-0.12531 0.05109-0.16476 0.08529-0.18449 0.03376-0.01973 0.09692-0.02552 0.18682-0.0081zm-10.466 7.4608a0.12009 0.12009 0 0 0-0.03179 0.0041c-0.49082 0.13345-0.81628 0.53606-1.1371 0.89751-0.54303-0.34287-1.0646-0.40959-1.5531-0.40669a0.12009 0.12009 0 0 0-0.08113 0.0325c-0.29588 0.27499-0.4763 0.69735-0.51634 1.2851-0.49777 0.07195-0.98684 0.1607-1.3129 0.46238a0.12009 0.12009 0 0 0-0.03661 0.11024c0.30168 1.6575 1.0083 2.4964 1.9151 2.8712 0.90678 0.37478 1.9882 0.2982 3.0603 0.21059a0.12009 0.12009 0 0 0 0.10218-0.07483c0.58539-1.4749 0.77335-2.5818 0.6788-3.4428-0.0945-0.86095-0.47863-1.4695-1.0095-1.9203a0.12009 0.12009 0 0 0-0.07829-0.03018zm-0.02214 0.27964c0.45834 0.41191 0.78728 0.93 0.87141 1.6964 0.08706 0.78844-0.091 1.8437-0.64225 3.2547-1.0414 0.08411-2.0578 0.13924-2.8689-0.19726-0.81223-0.33591-1.4365-1.0762-1.7382-2.6055 0.27964-0.22626 0.70663-0.34113 1.2009-0.40786a0.12009 0.12009 0 0 0 0.10328-0.11488c0.02214-0.57726 0.19493-0.92245 0.44208-1.165 0.47979 0.0018 0.9416 0.04816 1.4481 0.40147a0.12009 0.12009 0 0 0 0.15722-0.01798c0.32952-0.36608 0.63817-0.71069 1.0269-0.84413zm29.907-13.947a0.12009 0.12009 0 0 0-0.11205 0.14851c0.04013 0.17579-0.03946 0.39103-0.13573 0.64398-0.05395 0.14156-0.04977 0.31967-0.07939 0.48327-0.1399 0-0.19844-0.04234-0.24598-0.12358-0.05043-0.0876-0.06622-0.20596-0.13003-0.31503a0.12025 0.12025 0 1 0-0.20765 0.12126c0.01973 0.03073 0.05175 0.17752 0.13047 0.31328 0.06798 0.11777 0.228 0.19726 0.41772 0.21813 5.49e-4 0.06092-0.04056 0.10734-0.02786 0.17114 0.26398 1.404 0.6701 3.1932 0.31154 5.0834a0.12009 0.12009 0 0 0-0.0023 0.0325c0.23208 2.7035 0.5407 4.2317 0.96307 5.251 0.39276 0.94798 0.89694 1.4469 1.4887 2.0132 0.22337 1.5664 0.10788 1.3854-0.22046 2.6165a0.12009 0.12009 0 1 0 0.23206 0.06091c0.29821-1.1214 0.40033-1.2392 0.23962-2.4889a1.8333 1.8333 0 0 0 0.71474 0.33475c0.34115 0.07426 0.71477 0.08586 1.0402-0.01513a0.12009 0.12009 0 0 0 0.08419-0.12996c-0.2048-1.5722 0.07828-3.2118 0.03598-6.2367-0.01977-1.4394-0.46354-4.2096-1.2659-5.5614a0.12009 0.12009 0 1 0-0.2059 0.12183c0.74666 1.2589 1.2125 4.0512 1.2317 5.443 0.04056 2.9344-0.21883 4.5525-0.03664 6.1323-0.25527 0.06035-0.5529 0.06962-0.8331 0.0087-0.308-0.06733-0.58473-0.19902-0.72628-0.33421-0.65385-0.62309-1.1528-1.0803-1.5583-2.059-0.40554-0.97873-0.7136-2.4866-0.94509-5.1797l-0.0018 0.03305c0.36956-1.9499-0.04935-3.7768-0.31214-5.1727-0.04648-0.24541 0.03661-0.48734 0.13178-0.73738 0.09516-0.25063 0.20875-0.50938 0.14625-0.78438a0.12009 0.12009 0 0 0-0.12176-0.09512zm-34.432 15.908a0.12009 0.12009 0 0 0-0.08465 0.03018c-0.82848 0.7136-1.7387 0.55637-2.7012 0.49894a0.12009 0.12009 0 0 0-0.10678 0.18798c0.37362 0.54129 0.72347 1.1377 1.3077 1.5287 0.58423 0.39103 1.3964 0.55695 2.6455 0.26861a0.12009 0.12009 0 1 0-0.05459-0.23322c-1.2067 0.27848-1.9319 0.1172-2.4575-0.23496-0.45659-0.30518-0.75421-0.79367-1.0762-1.27 0.86735 0.06207 1.7776 0.14562 2.6003-0.56275a0.12009 0.12009 0 0 0-0.07149-0.21351zm27.674-14.753a0.96712 0.96712 0 0 0-0.56623 0.06207c-0.20896 0.08876-0.3452 0.26455-0.42296 0.46703-0.07719 0.20248-0.10328 0.43512-0.10503 0.67182-0.0044 0.47399 0.09275 0.97119 0.13683 1.2462a0.12067 0.12067 0 1 0 0.23787-0.03771 16.209 16.209 0 0 1-0.09407-0.83949c0.18331-0.28602 0.48734-0.46181 0.73218-0.43048 0.12367 0.01556 0.23786 0.07543 0.3365 0.21059 0.09867 0.13518 0.1798 0.3481 0.21116 0.66196a0.12009 0.12009 0 1 0 0.23785-0.02264c-0.0342-0.34288-0.12192-0.59931-0.25526-0.7809a0.73506 0.73506 0 0 0-0.49953-0.30689c-0.29588-0.03771-0.5732 0.1317-0.79539 0.36956 0-0.02552-0.0087-0.0441-0.0087-0.06962 0.0018-0.2193 0.02786-0.42584 0.0899-0.58654 0.06161-0.1607 0.15086-0.27267 0.29181-0.33243 0.30459-0.12821 0.56682-0.06496 0.8453 0.15665 0.27848 0.22162 0.55463 0.60916 0.80931 1.1035a0.12017 0.12017 0 1 0 0.21357-0.11022c-0.26344-0.51052-0.54829-0.92418-0.87262-1.1818a1.2114 1.2114 0 0 0-0.5221-0.25121zm3.8319 0.63586c-0.33069-0.0057-0.6376 0.03191-0.82613 0.20304a0.12009 0.12009 0 1 0 0.16138 0.17752c0.09101-0.08237 0.3591-0.14562 0.66137-0.1404 0.30284 0.0053 0.6405 0.06671 0.88185 0.15954 0.43686 0.16709 0.65848 0.30168 0.92535 0.56276 0.26688 0.26107 0.57436 0.65674 1.1458 1.3181a0.12015 0.12015 0 1 0 0.18222-0.15665c-0.56739-0.65848-0.87431-1.0518-1.1603-1.3326-0.28602-0.2808-0.55347-0.44266-1.006-0.61613a2.9588 2.9588 0 0 0-0.96423-0.1752zm-6.3934 0.6753c-0.24771-0.03827-0.54244 0.05512-0.79771 0.24482-0.25469 0.18912-0.46703 0.48617-0.50764 0.86792a0.12009 0.12009 0 1 0 0.23786 0.02436c0.03245-0.3069 0.20305-0.54361 0.41423-0.70025 0.2105-0.15665 0.4624-0.22278 0.61729-0.19899 0.18682 0.02841 0.31792 0.07543 0.47457 0.24367 0.15656 0.16768 0.33185 0.46529 0.55114 0.98337a0.12009 0.12009 0 1 0 0.22046-0.09282c-0.22335-0.53027-0.40493-0.85052-0.59581-1.0553-0.19099-0.2048-0.398-0.28428-0.6144-0.31735zm4.7243 0.10501c-0.13924-0.01513-0.30402 0.03366-0.4508 0.16536a0.12039 0.12039 0 1 0 0.16073 0.17928c0.10329-0.09282 0.19735-0.11256 0.26456-0.10559 0.05746 0.0063 0.07652 0.0325 0.08465 0.04467-0.12542 1.6749-1.7625 3.8116-2.8439 4.8484a0.12009 0.12009 0 1 0 0.16643 0.17289c1.1185-1.0721 2.8103-3.2216 2.9257-5.041a0.12009 0.12009 0 0 0-0.0044-0.04061c-0.03767-0.1317-0.16246-0.20829-0.30225-0.22336zm-4.7649 0.92594a0.64978 0.64978 0 0 0-0.51518 0.15897c-0.14165 0.12937-0.23148 0.33069-0.24947 0.59176a0.12041 0.12041 0 1 0 0.24019 0.01732c0.01535-0.21583 0.08354-0.35158 0.17125-0.43164a0.39857 0.39857 0 0 1 0.32663-0.09746c0.25528 0.02901 0.56506 0.25817 0.69792 0.67415a0.12009 0.12009 0 1 0 0.22859-0.07251c-0.15788-0.4937-0.5291-0.79945-0.89924-0.84122zm4.3036 1.871a0.12009 0.12009 0 0 0-0.11775 0.15433c0.30168 1.1006 0.94276 1.9128 1.549 2.5167a0.1202 0.1202 0 1 0 0.16994-0.16998c-0.59002-0.58771-1.1998-1.364-1.4864-2.41a0.12009 0.12009 0 0 0-0.11424-0.09052zm0.56333-4.0304a0.12009 0.12009 0 0 0-0.02851 0.0034c-0.29413 0.07136-0.45832 0.30864-0.58712 0.54941-0.12828 0.24134-0.23495 0.5001-0.4032 0.68575-0.74202 0.81802-1.4991 1.0971-2.4036 0.84181a0.12009 0.12009 0 0 0-0.13573 0.05337c-0.3887 0.64456-0.77508 1.2421-1.3146 1.3924a0.12009 0.12009 0 0 0-0.0021 0.0013c-0.02326 0.0063-0.04517 0.0046-0.08419-0.01557a0.5233 0.5233 0 0 1-0.14164-0.12179c-0.10324-0.11892-0.21179-0.30747-0.30165-0.51748a0.12009 0.12009 0 1 0-0.22046 0.09397c0.09583 0.22568 0.21116 0.43164 0.34112 0.58132 0.06445 0.07543 0.13354 0.13575 0.21182 0.17695 0.03946 0.02083 0.08706 0.0105 0.13222 0.01734 0.09516 0.43338 0.10723 0.81512 0.33533 1.2392 0.24135 0.44846 0.71244 0.92419 1.7335 1.5728a0.12009 0.12009 0 0 0 0.14845-0.01446c0.75245-0.73912 2.1361-2.1112 2.9994-3.42 0.43164-0.65442 0.73855-1.2914 0.75826-1.8513 0.01099-0.28022-0.05635-0.54419-0.22162-0.76233-0.16533-0.21813-0.42351-0.38754-0.77974-0.49952a0.12009 0.12009 0 0 0-0.03661-0.0057zm0.0044 0.26107c0.28951 0.09979 0.49894 0.23032 0.61962 0.38929 0.12871 0.16998 0.18156 0.37072 0.17344 0.60916-0.01755 0.47573-0.29821 1.0913-0.71825 1.7289-0.81975 1.2421-2.1327 2.555-2.895 3.3046-0.9323-0.60337-1.368-1.0431-1.574-1.4254-0.20129-0.37362-0.21401-0.731-0.31387-1.1829 0.57436-0.22162 0.9619-0.78669 1.317-1.375 0.94219 0.22626 1.7938-0.08123 2.5463-0.91027 0.20721-0.228 0.31908-0.50764 0.43859-0.73332 0.11314-0.21234 0.22916-0.34926 0.40611-0.40553zm0.02719 13.674a0.12009 0.12009 0 0 0-0.10788 0.15954c0.07829 0.2309 0.23032 0.40205 0.41947 0.52098 0.18901 0.11893 0.41364 0.19145 0.65499 0.24367 0.48211 0.10444 1.035 0.13053 1.5003 0.23554 0.14494 0.03308 0.23787 0.12648 0.34579 0.24715 0.10788 0.12067 0.22508 0.27036 0.42002 0.34693a0.12009 0.12009 0 1 0 0.08706-0.22336c-0.1237-0.04815-0.21536-0.15664-0.32839-0.28311-0.11249-0.12705-0.25179-0.2721-0.47225-0.32199-0.49547-0.11198-1.0489-0.1375-1.5014-0.23555-0.22627-0.0493-0.42526-0.11661-0.57785-0.21292a0.7223 0.7223 0 0 1-0.32079-0.3945 0.12009 0.12009 0 0 0-0.11885-0.08298zm7.7915 1.1742c-0.87603 0.06555-1.6152 0.30574-2.3148 0.5848a0.12009 0.12009 0 1 0 0.08814 0.22336c1.3808-0.55115 2.8439-0.94102 5.2794-0.11199a0.12036 0.12036 0 1 0 0.07716-0.228c-1.2426-0.42292-2.2539-0.53258-3.1299-0.4676zm-11.226-18.681a3.948 3.948 0 0 0-2.392 1.1818c-1.2212 1.2717-1.52 3.3765 0.15481 5.3247-0.64688 4.0936-1.6622 6.0801-2.6879 8.7952a0.12009 0.12009 0 0 0 0.07367 0.15665c1.2096 0.40321 2.504 0.07949 3.6759-1.0037 1.1719-1.0832 2.2371-2.9205 3.0493-5.5724a0.12011 0.12011 0 1 0-0.22973-0.07021c-0.80352 2.6258-1.8565 4.4255-2.9826 5.4663-1.0826 1.0002-2.2174 1.2676-3.304 0.9561 1.0048-2.6345 2.0131-4.6569 2.6513-8.7256a0.12009 0.12009 0 0 0-0.02852-0.09863c-1.6674-1.8902-1.357-3.8557-0.20085-5.0607 1.1563-1.205 3.1665-1.636 4.9673-0.3713a0.12032 0.12032 0 1 0 0.13858-0.19667c-0.94563-0.66428-1.9569-0.88532-2.8863-0.77973zm5.3491 9.4508c-0.42004 0.02786-0.7809 0.25295-1.0623 0.63702-0.28139 0.38406-0.49371 0.92593-0.65152 1.6192-0.31038 1.364-0.40146 3.3301-0.31503 5.8132-1.578 0.15316-1.9006 0.20596-2.794 0.64978-0.18748 0.09282-0.36377 0.27035-0.49663 0.45252a1.3123 1.3123 0 0 0-0.15656 0.27268c-0.03485 0.08818-0.06271 0.17404-0.02433 0.27152a0.12009 0.12009 0 0 0 0.12192 0.076c0.3133-0.02728 0.77627-0.08412 1.2166-0.10734 0.43221-0.0232 0.84065 0 1.0257 0.07889 0.02895 0.02902 0.04583 0.05105 0.05108 0.09398 0.0066 0.05049-0.0018 0.12821-0.01535 0.228-0.02785 0.19958-0.07257 0.48617 0.0087 0.86908a0.12009 0.12009 0 0 0 0.13924 0.09282c0.33939-0.06267 0.66137-0.28834 0.97118-0.44672 0.1548-0.07889 0.30516-0.14097 0.44324-0.16476a0.56507 0.56507 0 0 1 0.37072 0.05221c0.28021 0.63063 0.66312 0.82847 0.99497 0.98975a0.12009 0.12009 0 0 0 0.10042 0.0025c0.68691-0.30574 1.3175-0.75652 1.5142-1.6871 0.43977 0.0232 0.69911-0.0876 1.0489-0.25527 0.25701 0.22452 0.58015 0.35854 0.94392 0.43454-0.27499 0.41307-0.57668 0.84529-0.55695 1.4017a0.12009 0.12009 0 0 0 0.15963 0.11024c0.45889-0.15838 0.92013-0.30168 1.3088-0.39045 0.38349-0.08704 0.69793-0.10965 0.84122-0.06905 0.10262 0.20537 0.24368 0.37536 0.42352 0.48501 0.20721 0.12705 0.43685 0.21351 0.64398 0.31038a0.12009 0.12009 0 0 0 0.13529-0.02148c0.22394-0.2164 0.50356-0.40205 0.72866-0.7484 0.64398 0.21813 1.4411 0.46529 2.1246 0.24947a0.12009 0.12009 0 0 0 0.08243-0.10152c0.03424-0.33649 0.04513-0.72984-0.20129-1.2874 0.8685-0.03828 1.73-0.09108 2.4622-0.31619 0.77741-0.23902 1.4249-0.66892 1.7764-1.4347a0.12021 0.12021 0 1 0-0.21862-0.09981c-0.31965 0.69619-0.89228 1.0791-1.6302 1.3054-0.73681 0.22684-1.6314 0.28718-2.551 0.32489a0.12009 0.12009 0 0 0-0.10218 0.1752c0.29183 0.56159 0.26455 0.87024 0.22975 1.2067-0.58887 0.1491-1.3413-0.05685-1.965-0.26977a0.12009 0.12009 0 0 0-0.14384 0.05627c-0.18332 0.33997-0.44265 0.47573-0.70142 0.7078-0.19142-0.08703-0.38638-0.16476-0.54535-0.26223-0.1798-0.11022-0.31619-0.23903-0.3887-0.43744a0.12009 0.12009 0 0 0-0.07783-0.0737c-0.24076-0.07311-0.5732-0.02612-0.97699 0.06613-0.34229 0.07774-0.73969 0.20596-1.133 0.33766 0.04934-0.42758 0.28486-0.80642 0.54768-1.2067a0.12009 0.12009 0 0 0-0.08531-0.18505c-0.43106-0.05627-0.77102-0.21697-1.0425-0.47573a0.12009 0.12009 0 0 0-0.13332-0.0232c-0.43047 0.20248-0.56971 0.32373-1.071 0.27035a0.12009 0.12009 0 0 0-0.13178 0.0998c-0.15086 0.88764-0.702 1.2526-1.3657 1.5548-0.33069-0.15897-0.61787-0.2837-0.86328-0.8917a0.12009 0.12009 0 0 0-0.05459-0.06153 0.81918 0.81918 0 0 0-0.53954-0.07949c-0.1763 0.03075-0.34636 0.10444-0.51053 0.18856-0.27907 0.14213-0.53375 0.28196-0.76697 0.3597a2.6861 2.6861 0 0 1-0.0066-0.62831c0.01315-0.10153 0.02852-0.19377 0.01756-0.28892a0.41191 0.41191 0 0 0-0.1445-0.26513 0.12009 0.12009 0 0 0-0.02719-0.01732c-0.27732-0.12764-0.70549-0.12588-1.1568-0.10152-0.398 0.02083-0.77857 0.06613-1.0785 0.09514l0.0012-0.0057c0.02499-0.06207 0.07081-0.14156 0.12762-0.22104 0.116-0.15838 0.2831-0.31735 0.40842-0.37942 0.91143-0.45252 1.1046-0.47457 2.819-0.63934a0.12009 0.12009 0 0 0 0.10787-0.12473c-0.09407-2.5295 0.0044-4.5107 0.31038-5.8596 0.15327-0.67414 0.35972-1.1876 0.61092-1.5316 0.25122-0.34229 0.53781-0.51634 0.88474-0.53897a0.12009 0.12009 0 1 0-0.01535-0.23903zm18.002 1.0182-0.03599 0.50474-2.5573-0.18566 0.03661-0.50474 2.5573 0.18566m-0.15656 1.7173-0.06664 0.53374-2.5359-0.38 0.0581-0.46935 2.5452 0.31503m-0.25526 1.7057-0.10042 0.52794-2.5133-0.50706 0.08815-0.46413 2.5254 0.44266m-0.36143 1.7173-0.12476 0.49024-2.4854-0.63237 0.12476-0.48965 2.4854 0.63237m-0.45832 1.661-0.16247 0.51228-2.4309-0.81686 0.14275-0.45136 2.45 0.75594m-0.55406 1.6308-0.19427 0.50126-2.3874-0.93695 0.1717-0.44092 2.41 0.87662m-0.66602 1.6227-0.22162 0.48907-2.3119-1.1104 0.19559-0.43164 2.338 1.053m-0.74667 1.5513-0.25236 0.47399-2.2545-1.2224 0.22335-0.41772 2.2835 1.1661m-0.85457 1.5305-0.27847 0.45833-2.1599-1.3831 0.24598-0.40611 2.1924 1.3309m-0.92824 1.4492-0.30632 0.43976-2.0903-1.4852 0.2715-0.38871 2.1251 1.4342m-1.0304 1.4162-0.31214 0.39741-2.016-1.5838 0.3121-0.39799 2.0161 1.5844m-1.0936 1.3286-0.3568 0.4003-1.8971-1.7266 0.31562-0.35389 1.9377 1.6796m-1.1905 1.2827-0.35737 0.35737-1.813-1.8141 0.35737-0.35738 1.813 1.8142m-1.2439 1.1882-0.40146 0.35506-1.6784-1.9395 0.35564-0.31329 1.7242 1.8977m-1.3344 1.1325-0.39798 0.31212-1.5838-2.0166 0.39741-0.31212 1.5838 2.0166m-1.3761 1.0327-0.44093 0.304-1.4353-2.1251 0.39046-0.26977 1.4852 2.0903m-1.4591 0.96596-0.43223 0.26281-1.332-2.1913 0.43221-0.26282 1.3321 2.1913m-1.4898 0.86096-0.474 0.25063-1.1708-2.2818 0.42004-0.22162 1.2241 2.2528m-1.5641 0.78611-0.46006 0.20886-1.0588-2.3363 0.46008-0.20886 1.0588 2.3363m-1.5827 0.67646-0.50126 0.19204-0.88474-2.4065 0.44208-0.16997 0.94392 2.3844m-1.6494 0.5935-0.48211 0.15084-0.76581-2.4471 0.48154-0.15084 0.76581 2.4483m-1.6535 0.48154-0.51981 0.12996-0.58307-2.4976 0.45948-0.11604 0.64396 2.4831m-1.6784 0.38407-0.52854 0.09746-0.45832-2.5237 0.46646-0.08469 0.5204 2.5109m-1.7318 0.28544-0.53375 0.06793-0.26688-2.5504 0.46994-0.06091 0.33068 2.5434m-1.7138 0.17868-0.53665 0.03476-0.13814-2.5614 0.47225-0.03017 0.20305 2.5568m-1.7544 0.07774-0.50532 0.0015-0.0087-2.5643 0.50472-0.0016 0.0087 2.5643m-1.7231-0.02836-0.53722-0.02783 0.18572-2.5579 0.47225 0.0244-0.12192 2.5614m-1.7178-0.12763-0.53434-0.06038 0.31503-2.5451 0.46995 0.0534-0.25063 2.5527m-1.7405-0.23206-0.49779-0.08704 0.44326-2.5272 0.49718 0.08702-0.44264 2.5266m-1.6912-0.33243-0.52332-0.12299 0.63238-2.4854 0.46065 0.1079-0.56971 2.5005m-1.6686-0.42931-0.51402-0.15606 0.75537-2.4506 0.45254 0.13751-0.69389 2.4686m-1.6691-0.54071-0.50474-0.1845 0.93638-2.3874 0.44556 0.16244-0.8772 2.4094m-1.6029-0.62829-0.49198-0.21584 1.053-2.338 0.43396 0.19029-0.99497 2.3636m-1.5914-0.7368-0.45021-0.22916 1.1661-2.2841 0.45021 0.22975-1.1661 2.2841m-1.5154-0.81686-0.46181-0.27269 1.3303-2.193 0.40785 0.24134-1.2763 2.2243m-1.491-0.92072-0.4183-0.28311 1.4347-2.1257 0.41888 0.28312-1.4347 2.1257m-1.4051-0.99208-0.42642-0.32605 1.5838-2.0166 0.37711 0.28833-1.5345 2.0538m-1.3692-1.0907-0.38289-0.33069 1.6796-1.9395 0.38173 0.33069-1.679 1.9389m-1.2763-1.1522-0.38465-0.37421 1.8136-1.813 0.34055 0.33069-1.7695 1.8565m-1.2299-1.2462-0.33998-0.3742 1.8983-1.7248 0.33939 0.3742-1.8971 1.7248m-1.1313-1.2961-0.33709-0.41655 2.0161-1.5838 0.29878 0.36841-1.9783 1.632m-1.0733-1.3831-0.2924-0.41191 2.0897-1.4864 0.29299 0.41191-2.0897 1.4864m-0.96888-1.4214-0.28542-0.45369 2.1907-1.3326 0.25295 0.40147-2.1582 1.3848m-0.90156-1.5015-0.24192-0.44382 2.2528-1.2253 0.24133 0.44382-2.2522 1.2253m-0.79309-1.527-0.22916-0.48501 2.3351-1.0594 0.20305 0.42932-2.309 1.1151m-0.70373-1.5705-0.19888-0.49894 2.3845-0.94392 0.1741 0.44092-2.3595 1.0019m-0.6167-1.6413-0.16994-0.50938 2.4471-0.76581 0.1502 0.44904-2.4274 0.82614m-0.51053-1.6448-0.13683-0.51924 2.4819-0.64397 0.1206 0.45832-2.4657 0.70489m-0.41539-1.7039-0.10788-0.52678 2.5231-0.45775 0.09583 0.46413-2.5109 0.5204m-0.30808-1.6952-0.07433-0.53201 2.5428-0.33069 0.06556 0.46819-2.5335 0.39451m-0.2094-1.7434-0.04056-0.50358 2.5568-0.20305 0.04013 0.50474-2.5562 0.20305m-0.10042-1.7219-0.01099-0.53722 2.5643-0.0087 0.01098 0.47283-2.5631 0.07311m0-1.7231 0.02193-0.53781 2.5608 0.12183-0.01973 0.47167-2.5643-0.05626m0.10437-1.7532 0.04933-0.503 2.5521 0.25063-0.04933 0.503-2.5527-0.25063m0.20546-1.7114 0.08289-0.53142 2.526 0.44324-0.07303 0.46761-2.5359-0.37942m0.30287-1.6964 0.11599-0.52504 2.5005 0.56972-0.10262 0.46181-2.5138-0.50648m0.41366-1.7057 0.13683-0.48733 2.468 0.69445-0.13639 0.48734-2.4686-0.69503m0.50588-1.6476 0.17805-0.50532 2.4094 0.8772-0.15656 0.44672-2.4309-0.81686m0.6144-1.6436 0.19603-0.46587 2.363 0.99555-0.19603 0.46587-2.363-0.99555m0.70082-1.5722 0.2367-0.48153 2.2835 1.1661-0.20897 0.42526-2.3114-1.1104m0.79076-1.5293 0.26688-0.46587 2.2238 1.2769-0.23614 0.41191-2.2545-1.223m0.89924-1.5026 0.29356-0.4502 2.1251 1.4347-0.25874 0.39799-2.1594-1.3831m0.96829-1.4231 0.32025-0.42932 2.0538 1.5351-0.28426 0.38-2.0897-1.4852m1.0721-1.3848 0.34404-0.41192 1.9377 1.6801-0.304 0.36434-1.9783-1.6326m1.1313-1.2967 0.3684-0.3887 1.8559 1.7695-0.3272 0.34461-1.8971-1.7254m1.2288-1.2473 0.38987-0.36724 1.7242 1.8983-0.3452 0.32605-1.7695-1.8565m1.2764-1.1528 0.4119-0.34229 1.6326 1.9783-0.36551 0.30284-1.6784-1.9389m1.368-1.0924 0.43105-0.31909 1.4852 2.0903-0.38116 0.28312-1.5351-2.0538m1.404-0.99381 0.45021-0.29124 1.3842 2.1588-0.39857 0.25759-1.4359-2.1257m1.4887-0.92245 0.46587-0.26513 1.2253 2.2533-0.4119 0.23496-1.2793-2.222m1.513-0.81976 0.48154-0.23555 1.1151 2.309-0.42585 0.20886-1.1708-2.2823m1.5885-0.73912 0.49488-0.20769 0.94393 2.3844-0.43686 0.1845-1.0019-2.3612m1.6012-0.63179 0.50707-0.17636 0.82616 2.428-0.44788 0.15544-0.88533-2.4071m1.6668-0.54303 0.48617-0.13924 0.70549 2.4657-0.48617 0.13924-0.70549-2.4657m1.6668-0.43398 0.52446-0.11488 0.52099 2.5109-0.46297 0.10095-0.58248-2.4976m1.7213-0.33997 0.49893-0.07774 0.39452 2.5341-0.49893 0.07774-0.39452-2.5341m1.7074-0.22916 0.53489-0.05221 0.20305 2.5568-0.47109 0.04641-0.26688-2.551m1.7184-0.12996 0.53722-0.01734 0.07368 2.5631-0.47282 0.01513-0.13814-2.5608m1.7556-0.02495 0.50474 0.01162-0.05569 2.5643-0.50474-0.01162 0.05569-2.5643m1.7219 0.07716 0.53549 0.0435-0.24947 2.5527-0.47168-0.03828 0.18573-2.5585m1.7138 0.17579 0.53143 0.07716-0.3771 2.5365-0.4676-0.06789 0.31327-2.5457m1.7312 0.28428 0.52678 0.10674-0.56506 2.5016-0.46414-0.09282 0.50242-2.515m1.6801 0.37943 0.51867 0.13924-0.68806 2.4703-0.45718-0.12299 0.62657-2.4866m1.6842 0.48733 0.47979 0.16014-0.80991 2.4332-0.4792-0.15897 0.80815-2.4343m1.621 0.58016 0.49834 0.19899-0.98626 2.3676-0.43918-0.17636 0.92711-2.3903m1.6128 0.68517 0.45659 0.21697-1.0994 2.3166-0.45659-0.2164 1.1-2.3177m1.5386 0.77045 0.46992 0.25817-1.2647 2.2307-0.41539-0.228 1.2102-2.2609m1.5177 0.87366 0.42699 0.27036-1.3698 2.1681-0.42758-0.27035 1.3703-2.1681m1.4347 0.94914 0.43513 0.31213-1.5212 2.0642-0.38581-0.27674 1.4719-2.1002m1.4011 1.0489 0.39219 0.31909-1.6186 1.9899-0.3916-0.31909 1.6181-1.9899m1.3112 1.1127 0.39452 0.36144-1.7544 1.8704-0.35042-0.32083 1.7103-1.911m1.2659 1.2073 0.35158 0.36318-1.8408 1.7851-0.35158-0.3626 1.8408-1.7857m1.1696 1.2601 0.34926 0.40611-1.9628 1.6512-0.30922-0.36086 1.9227-1.6964m1.1139 1.3494 0.30632 0.40147-2.0381 1.5566-0.30748-0.40147 2.0387-1.5566m1.0124 1.3895 0.29878 0.44498-2.1431 1.4086-0.26456-0.39451 2.1089-1.4591m0.94566 1.4736 0.25703 0.43512-2.2075 1.3054-0.25701-0.43512 2.2069-1.3054m0.84064 1.4997 0.24368 0.47805-2.2951 1.1441-0.21533-0.42352 2.2667-1.1986m0.76292 1.5763 0.20305 0.46239-2.3467 1.0327-0.20305-0.46239 2.3467-1.0327m0.65558 1.5908 0.18441 0.50358-2.4158 0.86037-0.16248-0.44556 2.3937-0.91839m0.56855 1.6569 0.14669 0.48385-2.4546 0.7426-0.14625-0.48385 2.454-0.7426m0.45949 1.6593 0.12301 0.52272-2.5022 0.55985-0.10853-0.46122 2.4877-0.62077m0.36668 1.7144 0.08595 0.49778-2.5272 0.43628-0.08595-0.49778 2.5272-0.43628m0.25526 1.7033 0.05961 0.53375-2.5527 0.24715-0.0522-0.46993 2.5451-0.31097m0.15656 1.7155 0.02608 0.53665-2.5614 0.1201-0.02191-0.47341 2.5573-0.18334m0.05177 1.7538-0.0046 0.53781-2.5631-0.07251 0.0016-0.47341 2.5643 0.0081m-50.676-8.1338c-0.0296 0-0.02609-0.03366-0.03485-0.05803 0.23438 0.25411 0.55114 0.77161 0.228 1.0965-0.02192 0.15375 0.09516 0.14505 0.09583 0.27267-0.16709 0.24367-0.28834 0.45078-0.116 0.80178-0.22337 0.0087-0.304-0.13459-0.48617-0.16127-0.01098 0.3829 0.48617 0.48501 0.74667 0.67414-0.07543 0.44556 0.10898 1.0222-0.23962 1.3303 0.0649 0.25701 0.1502 0.61613 0.0649 0.86038-0.34231-0.19088-0.74088-0.32025-1.0837-0.51054 0.10042-0.09573 0.1763 0.10095 0.3388 0.05048 0.08924-0.15897 0.09275-0.39973 0.21401-0.53316-0.02608-0.21467-0.23379-0.23902-0.26396-0.44846 0.33939-0.12126 0.48152 0.23786 0.7693 0.27268 0.48734-0.55115-0.62832-0.53955-0.76467-0.91781 0.3365 0.0232 0.4769 0.26804 0.83429 0.27094 0.20305-0.49198-0.69735-0.54535-0.97932-0.81802 0.08355-0.21988-0.0044-0.29994-0.04692-0.5204 0.32488-0.16011 0.4119 0.17985 0.67124 0.18566-0.20129-0.40497-0.85746-0.62195-0.71417-1.1986 0.24366-0.1404 0.65152 0.22162 0.82615 0.15084 0.29008-0.12415 0.03596-0.5175-0.05985-0.80004zm-0.57434 0.79482c-0.16643 0.3597 0.25179 0.5848 0.57261 0.62077 0.07081-0.37826-0.27499-0.55869-0.57261-0.62077zm0.71765 3.38c-0.10437-0.47863-0.65268-0.05803-0.42352 0.2338 0.05393 0.05803 0.20546 0.08006 0.33998 0.04409 0.06139-0.09863 0.11139-0.14389 0.08354-0.2779zm-1.6552-1.6198c-0.05855-0.18971-0.22859-0.48327-0.08706-0.70547 0.56449-0.26339 0.62311 0.86328 0.08706 0.70547zm0.0638-0.62019c-0.03355 0.10152-0.09274 0.28834-0.0066 0.40205 0.0853-0.0057 0.1991 7e-3 0.23381-0.04002 0.07652-0.16127 0.03838-0.45542-0.22627-0.36202zm34.949-3.9451c-1.6215 0.07195-3.1474 0.70489-4.3141 1.784a0.1203 0.1203 0 1 0 0.16292 0.17695c2.2481-2.0804 5.877-2.4535 8.8996-0.19028 3.018 2.2632 5.4309 7.1824 5.1605 15.711a0.12009 0.12009 0 0 0 0.0037 0.03655c0.11205 0.40031 0.25179 0.81396 0.61321 1.1232 0.36146 0.30922 0.92652 0.49836 1.8496 0.49603a0.12009 0.12009 0 1 0-0.0011-0.24018c-0.88994 0.0024-1.3877-0.17811-1.6917-0.4386-0.30221-0.25875-0.42637-0.61149-0.53484-0.99961 0.26456-8.5573-2.1582-13.558-5.2562-15.879-1.5507-1.1632-3.268-1.6523-4.8907-1.5798z" stroke-width=".58016"/>
  <g transform="matrix(.87434 0 0 .87434 74.001 -31.826)">
   <g stroke-width=".64373">
    <path d="m42.319 93.577q0 2.6654-1.8105 4.0862-1.8105 1.4208-5.1297 1.4208h-2.8415v7.5939h-1.2824v-18.381h4.501q6.5631 0 6.5631 5.2807zm-9.7817 4.4005h2.5272q3.1056 0 4.4886-1.0184 1.383-1.031 1.383-3.3318 0-2.1248-1.3076-3.1432-1.3076-1.031-4.0486-1.031h-3.0426z"/>
    <path d="m61.794 97.462q0 4.3753-2.1878 6.9277-2.1878 2.5397-6.035 2.5397-3.8348 0-6.0223-2.5397-2.1878-2.5524-2.1878-6.9528 0-4.388 2.2002-6.9026 2.2129-2.5272 6.035-2.5272 3.8472 0 6.0223 2.5397 2.1751 2.5272 2.1751 6.915zm-15.037 0q0 3.9478 1.7602 6.1104 1.7602 2.15 5.0542 2.15 3.3192 0 5.0669-2.1373 1.7602-2.1373 1.7602-6.1229 0-3.9729-1.7602-6.0853-1.7476-2.1248-5.0418-2.1248-3.2816 0-5.0669 2.1373-1.7727 2.1373-1.7727 6.0726z"/>
    <path d="m66.773 93.012v8.8512q0 2.0619 0.86755 3.0048 0.86755 0.93049 2.6905 0.93049 2.4391 0 3.5832-1.2321 1.1567-1.2321 1.1567-4.0107v-7.5437h1.2321v13.667h-1.0562l-0.22624-1.8859h-0.07541q-1.3327 2.1373-4.7399 2.1373-4.6645 0-4.6645-4.9915v-8.9268z"/>
    <path d="m81.194 106.68v-18.382h1.2824v17.175h8.7633v1.207z"/>
   </g>
   <g stroke-width=".60191">
    <path d="m31.19 112.62h4.7142q3.186 0 4.6789 1.0815 1.4931 1.0815 1.4931 3.2682 0 1.4931-0.91699 2.4923-0.90515 0.98742-2.6569 1.2698v0.0707q2.0573 0.30559 3.0212 1.3048 0.97578 0.98741 0.97578 2.7626 0 2.3747-1.5753 3.6561-1.5753 1.2814-4.4674 1.2814l-5.2666-2.1e-4zm1.1991 7.6532h3.7855q2.4217 0 3.5151-0.79941 1.105-0.81125 1.105-2.5276 0-1.7164-1.2461-2.4923-1.2344-0.77592-3.6914-0.77592h-3.4681zm0 1.058v7.418h4.044q4.773 0 4.773-3.8794 0-3.5385-5.0316-3.5385z"/>
    <path d="m45.756 128.89q0-1.1522 0.94047-1.1522 0.96394 0 0.96394 1.1522 0 1.1522-0.96394 1.1522-0.94047 0-0.94047-1.1522z"/>
    <path d="m52.022 129.81v-17.187h1.1991v17.187z"/>
    <path d="m57.559 128.89q0-1.1522 0.94047-1.1522 0.96394 0 0.96394 1.1522 0 1.1522-0.96394 1.1522-0.94047 0-0.94047-1.1522z"/>
    <path d="m68.304 129.81h-1.211v-16.059h-5.5842v-1.1285h12.379v1.1285h-5.5842z"/>
    <path d="m75.899 128.89q0-1.1522 0.94046-1.1522 0.96394 0 0.96394 1.1522 0 1.1522-0.96394 1.1522-0.94046 0-0.94046-1.1522z"/>
    <path d="m91.652 125.38q0 2.1514-1.587 3.4093-1.5753 1.2579-4.1969 1.2579-3.1507 0-4.8318-0.69366v-1.1991q1.8575 0.78756 4.7376 0.78756 2.1161 0 3.3505-0.96395 1.2461-0.97577 1.2461-2.5511 0-0.97579-0.41154-1.6106-0.41154-0.64651-1.3402-1.1756-0.92862-0.52892-2.7275-1.1403-2.6334-0.90515-3.6443-1.9516-0.99926-1.058-0.99926-2.8098 0-1.9281 1.5047-3.1388 1.5165-1.2226 3.8913-1.2226 2.4217 0 4.5496 0.91699l-0.43501 1.0346q-2.1396-0.89351-4.0911-0.89351-1.9044 0-3.0331 0.88167t-1.1287 2.3982q0 0.95231 0.34091 1.5635 0.35275 0.61139 1.1403 1.105 0.78756 0.48197 2.7038 1.1638 2.0104 0.69366 3.0213 1.352 1.0111 0.64651 1.4696 1.4812 0.47034 0.82289 0.47034 1.9985z"/>
    <path d="m94.755 128.89q0-1.1522 0.94047-1.1522 0.96394 0 0.96394 1.1522 0 1.1522-0.96394 1.1522-0.94047 0-0.94047-1.1522z"/>
   </g>
  </g>
 </g>
</svg>
