<?xml version="1.0" encoding="UTF-8"?>
<svg width="24" height="24" version="1.1" viewBox="0 0 6.35 6.35" xmlns="http://www.w3.org/2000/svg" xmlns:cc="http://creativecommons.org/ns#" xmlns:dc="http://purl.org/dc/elements/1.1/" xmlns:rdf="http://www.w3.org/1999/02/22-rdf-syntax-ns#">
 <metadata>
  <rdf:RDF>
   <cc:Work rdf:about="">
    <dc:format>image/svg+xml</dc:format>
    <dc:type rdf:resource="http://purl.org/dc/dcmitype/StillImage"/>
    <dc:title/>
   </cc:Work>
  </rdf:RDF>
 </metadata>
 <path transform="scale(.26458)" d="m6 1.8672c-1.1 0-2 0.90001-2 2v18.266h16v-18.266c0-1.1-0.89997-2-2-2h-12zm5.6934 5.3047c1.96 0 3.5 1.5107 3.5 3.4707 0 2.26-2.6211 2.4892-2.6211 4.4492h-1.7598c0-2.88 2.6309-2.6992 2.6309-4.4492 0-0.93-0.82-1.75-1.75-1.75s-1.75 0.82-1.75 1.75h-1.75c0-1.95 1.54-3.4707 3.5-3.4707zm-0.88086 8.8008h1.7598v1.7598h-1.7598v-1.7598z"/>
</svg>
