<?xml version="1.0" encoding="UTF-8" standalone="no"?>
<svg
   xmlns:dc="http://purl.org/dc/elements/1.1/"
   xmlns:cc="http://creativecommons.org/ns#"
   xmlns:rdf="http://www.w3.org/1999/02/22-rdf-syntax-ns#"
   xmlns:svg="http://www.w3.org/2000/svg"
   xmlns="http://www.w3.org/2000/svg"
   xmlns:sodipodi="http://sodipodi.sourceforge.net/DTD/sodipodi-0.dtd"
   xmlns:inkscape="http://www.inkscape.org/namespaces/inkscape"
   inkscape:export-ydpi="96"
   inkscape:export-xdpi="96"
   inkscape:export-filename="/home/depau/Beans-Unencrypted/POuLBITS-Android/wearos/src/main/res/drawable-nodpi/wear_splash_bg.png"
   sodipodi:docname="wearos_splash.svg"
   inkscape:version="1.0 (4035a4fb49, 2020-05-01)"
   id="svg8"
   version="1.1"
   viewBox="0 0 126.99999 127"
   height="480"
   width="480">
  <defs
     id="defs2" />
  <sodipodi:namedview
     fit-margin-bottom="0"
     fit-margin-right="0"
     fit-margin-left="0"
     fit-margin-top="0"
     inkscape:window-maximized="1"
     inkscape:window-y="0"
     inkscape:window-x="0"
     inkscape:window-height="1031"
     inkscape:window-width="1920"
     units="px"
     showgrid="false"
     inkscape:document-rotation="0"
     inkscape:current-layer="layer1"
     inkscape:document-units="mm"
     inkscape:cy="164.877"
     inkscape:cx="104.96528"
     inkscape:zoom="0.90609684"
     inkscape:pageshadow="2"
     inkscape:pageopacity="0.0"
     borderopacity="1.0"
     bordercolor="#666666"
     pagecolor="#ffffff"
     id="base" />
  <metadata
     id="metadata5">
    <rdf:RDF>
      <cc:Work
         rdf:about="">
        <dc:format>image/svg+xml</dc:format>
        <dc:type
           rdf:resource="http://purl.org/dc/dcmitype/StillImage" />
        <dc:title></dc:title>
      </cc:Work>
    </rdf:RDF>
  </metadata>
  <g
     id="layer1"
     inkscape:groupmode="layer"
     inkscape:label="Layer 1">
    <rect
       y="3.5603841e-06"
       x="3.5603841e-06"
       height="127"
       width="127"
       id="rect833"
       style="opacity:1;fill:#000000;stroke-width:0.22113" />
    <path
       style="fill:#ffffff;stroke-width:0.715644"
       d="m 66.722523,59.063398 a 0.14813855,0.14813855 0 0 0 -0.143084,0.167453 c 0.0879,0.752147 0.163911,1.328958 0.828024,3.108763 a 0.14813855,0.14813855 0 1 0 0.276943,-0.103055 C 67.024597,60.468917 66.961601,59.946496 66.874291,59.196496 A 0.14813855,0.14813855 0 0 0 66.722553,59.063393 Z M 55.916307,72.26705 a 0.14813855,0.14813855 0 0 0 -0.05301,0.01433 c -0.193122,0.08518 -0.365714,0.108776 -0.577527,0.02137 a 0.14858041,0.14858041 0 1 0 -0.113054,0.27481 c 0.289116,0.118801 0.569657,0.07944 0.810818,-0.02721 a 0.14813855,0.14813855 0 0 0 -0.06734,-0.283395 z M 56.61763,47.856394 a 0.14813855,0.14813855 0 0 0 -0.119543,0.0687 c -0.350679,0.533155 -0.668411,1.119985 -0.748582,1.892881 a 0.14858965,0.14858965 0 1 0 0.295581,0.03078 c 0.07302,-0.708492 0.359955,-1.242363 0.699896,-1.761205 a 0.14813855,0.14813855 0 0 0 -0.12741,-0.231153 z m 3.527414,0.8874 a 0.14813855,0.14813855 0 0 0 -0.0787,0.02935 c -0.196909,0.145275 -0.3292,0.379291 -0.386461,0.686301 a 0.14813855,0.14813855 0 0 0 0.207458,0.16459 0.14813855,0.14813855 0 0 0 0.155255,0.114497 c 2.378087,-0.151009 4.074188,0.763593 5.147641,1.99379 1.073483,1.230191 1.511442,2.786004 1.356864,3.871641 a 0.14817001,0.14817001 0 1 0 0.293415,0.04152 c 0.0054,-0.0408 -0.01893,-0.09519 -0.01622,-0.136671 a 0.14813855,0.14813855 0 0 0 0.139562,-0.145275 c 0.03435,-1.183676 0.306292,-2.390975 -0.174731,-3.688436 a 0.1481772,0.1481772 0 1 0 -0.278378,0.101626 c 0.346378,0.933916 0.271941,1.841355 0.203942,2.765971 -0.130918,-0.997636 -0.48367,-2.065379 -1.303819,-3.005022 -1.127848,-1.292452 -2.924836,-2.252133 -5.388097,-2.095407 a 0.14813855,0.14813855 0 0 0 -0.01623,0.0016 c 0.05301,-0.196098 0.124427,-0.350664 0.234778,-0.431532 a 0.14813855,0.14813855 0 0 0 -0.09793,-0.268369 z m 6.337754,9.432203 a 0.14813855,0.14813855 0 0 0 -0.143084,0.152444 c 0.01623,0.977571 -0.02164,1.613066 -0.08006,2.089682 a 0.14813855,0.14813855 0 1 0 0.293416,0.03578 c 0.06221,-0.493796 0.09793,-1.142886 0.08221,-2.129762 a 0.14813855,0.14813855 0 0 0 -0.152549,-0.148142 z m 0.109546,-19.458395 c -2.489012,0 -4.359707,2.128331 -4.359707,4.433424 0,0.247623 0.02434,0.817985 0.07385,1.08492 a 0.14813855,0.14813855 0 1 0 0.290549,-0.0544 c -0.03732,-0.198234 -0.0679,-0.805101 -0.0679,-1.030528 0,-2.144073 1.743299,-4.13643 4.063423,-4.13643 2.327996,0 3.906706,1.814874 3.906706,3.966821 -6.79e-4,1.173658 -0.580369,2.672935 -1.555803,3.396453 a 0.14828501,0.14828501 0 1 0 0.177435,0.237589 c 1.084195,-0.804385 1.673894,-2.365206 1.674597,-3.634046 0,-2.297937 -1.720388,-4.263098 -4.202963,-4.263098 z m -8.430296,10.262354 a 4.1292724,4.1292724 0 0 0 -4.126414,4.12784 c 0.0015,0.526715 -0.03516,1.692504 0.947515,2.516208 a 0.14813855,0.14813855 0 1 0 0.18961,-0.227581 C 54.297536,54.662894 54.332591,53.64811 54.331156,53.106365 a 3.8287015,3.8287015 0 0 1 3.830131,-3.829416 3.8294173,3.8294173 0 0 1 3.831569,3.831564 0.14813855,0.14813855 0 0 0 0.0016,0.01515 c 0.06085,0.561066 -0.213138,1.478525 -0.629758,1.972319 a 0.14813855,0.14813855 0 1 0 0.224767,0.1918 c 0.485214,-0.574681 0.768596,-1.507168 0.699194,-2.186314 A 4.1292724,4.1292724 0 0 0 58.162212,48.980782 Z M 54.070712,47.95229 a 0.14813855,0.14813855 0 0 0 -0.141732,0.139534 c -0.143082,2.175559 0.169593,2.862579 0.395742,3.582519 a 0.14813855,0.14813855 0 1 0 0.282677,-0.08803 C 54.373432,50.842049 54.083558,50.25594 54.225264,48.111864 A 0.14813855,0.14813855 0 0 0 54.07082,47.952986 Z m 1.029097,7.542899 a 0.14813855,0.14813855 0 0 0 -0.143085,0.178921 c 0.166076,0.835878 0.389302,1.487112 0.941055,1.925804 a 0.14813855,0.14813855 0 1 0 0.183926,-0.231882 C 55.610826,56.993035 55.409019,56.430538 55.247272,55.616849 A 0.14813855,0.14813855 0 0 0 55.09905,55.495188 Z m 6.475859,0.05582 a 0.14813855,0.14813855 0 0 0 -0.143084,0.103798 c -0.27194,0.805812 -0.647664,1.44417 -1.943696,2.046027 a 0.14885419,0.14885419 0 1 0 0.123875,0.269803 c 1.352589,-0.627618 1.815598,-1.377617 2.101143,-2.22136 a 0.14813855,0.14813855 0 0 0 -0.138221,-0.19894 z m -1.057712,2.88262 a 0.14823703,0.14823703 0 0 0 -0.01079,0.296275 c 0.536714,0.04508 0.827292,0.05008 1.127847,0.278388 0.300586,0.229015 0.638362,0.718507 1.179376,1.758339 a 0.14813855,0.14813855 0 1 0 0.262636,-0.13667 C 62.530973,59.580096 62.187462,59.05696 61.813202,58.772133 61.439641,58.487304 61.060345,58.478002 60.53218,58.433632 a 0.14813855,0.14813855 0 0 0 -0.01623,0 z m 6.537423,18.399235 c -0.173107,-0.0092 -0.322763,0.08013 -0.435122,0.19323 a 0.77003422,0.77003422 0 0 0 -0.220442,0.407917 0.69202885,0.69202885 0 0 0 0.06734,0.409349 c 0.06165,0.128826 0.164719,0.249032 0.319895,0.289839 0.177436,0.04578 0.354248,-0.01355 0.498793,-0.109492 0.144436,-0.09589 0.265612,-0.234019 0.302019,-0.409349 a 0.68988194,0.68988194 0 0 0 -0.09522,-0.490936 c -0.08871,-0.148843 -0.239104,-0.279102 -0.437258,-0.290551 z m -1.235931,0.11022 c -0.175273,-0.01867 -0.364987,0.05871 -0.576097,0.239022 a 0.14813855,0.14813855 0 0 0 -0.04167,0.05871 c -0.216926,0.541744 -0.4487,1.045559 -0.740683,1.435585 -0.292712,0.390026 -0.636925,0.662686 -1.094927,0.765739 a 0.14813855,0.14813855 0 0 0 -0.106038,0.197532 c 0.239105,0.621179 0.578233,1.011207 0.982572,1.225901 0.404343,0.214706 0.859478,0.251895 1.32538,0.216841 a 0.14819646,0.14819646 0 1 0 -0.02166,-0.295558 c -0.435119,0.03292 -0.828021,-0.0065 -1.162929,-0.183927 -0.30989,-0.164587 -0.568224,-0.493793 -0.781497,-0.988305 0.436555,-0.151711 0.817985,-0.389313 1.094956,-0.759299 0.310592,-0.412927 0.540311,-0.92533 0.754289,-1.454906 0.165264,-0.13598 0.271939,-0.16962 0.336342,-0.16245 0.06734,0.007 0.133076,0.0551 0.21476,0.138108 a 0.14885419,0.14885419 0 1 0 0.211786,-0.207539 c -0.09603,-0.09875 -0.219091,-0.2061 -0.393606,-0.225412 z m 1.218756,0.186063 c 0.07437,0.0042 0.146059,0.05725 0.200424,0.146708 0.05301,0.09017 0.07357,0.20754 0.0595,0.276956 a 0.14813855,0.14813855 0 0 0 0,0.0015 c -0.01353,0.06657 -0.08305,0.160313 -0.176082,0.221846 -0.09304,0.06227 -0.200427,0.08517 -0.261283,0.0687 -0.03786,-0.0092 -0.09087,-0.05582 -0.127397,-0.130971 a 0.43797484,0.43797484 0 0 1 -0.04085,-0.232588 0.51669581,0.51669581 0 0 1 0.137404,-0.246894 c 0.07169,-0.07158 0.15255,-0.10736 0.207456,-0.105187 z m -1.217323,1.063446 a 0.14813855,0.14813855 0 0 0 -0.102233,0.04508 c -0.273375,0.271945 -0.521701,0.472325 -0.718502,0.635492 -0.196912,0.163181 -0.347812,0.280535 -0.420817,0.451574 a 0.14814606,0.14814606 0 1 0 0.272672,0.115914 c 0.02434,-0.05297 0.14444,-0.178193 0.338506,-0.339216 0.193126,-0.161748 0.452271,-0.369986 0.737114,-0.6541 a 0.14813855,0.14813855 0 0 0 -0.107387,-0.254764 z m -0.159584,1.024804 a 0.14813855,0.14813855 0 0 0 -0.03921,0.0086 c -0.460169,0.145275 -0.62692,0.39575 -0.799378,0.576093 a 0.14858724,0.14858724 0 1 0 0.214761,0.205402 c 0.199615,-0.208973 0.281975,-0.375713 0.674849,-0.499519 a 0.14813855,0.14813855 0 0 0 -0.05004,-0.290554 z m -5.725171,1.800562 c -0.307723,-0.093 -0.714932,-0.03936 -1.086327,0.282682 -0.369287,0.321323 -0.452298,0.687735 -0.338508,0.953237 0.114416,0.264804 0.408615,0.41794 0.681286,0.322041 0.24695,-0.08588 0.344943,-0.279099 0.470904,-0.428669 0.125237,-0.149578 0.283385,-0.293414 0.689157,-0.393606 a 0.14813855,0.14813855 0 0 0 0.111704,-0.137403 c 0.01355,-0.277672 -0.22044,-0.504532 -0.528137,-0.598282 z m -0.08655,0.284115 a 0.38358582,0.38358582 0 0 1 0.274105,0.255497 c -0.30916,0.115914 -0.565358,0.255496 -0.687018,0.400043 -0.148766,0.17749 -0.204754,0.291985 -0.342078,0.339219 -0.110895,0.03937 -0.252628,-0.0272 -0.309889,-0.160316 -0.05733,-0.133832 -0.04734,-0.345656 0.25966,-0.61259 0.304886,-0.264799 0.592569,-0.286256 0.805111,-0.221847 z m -0.0054,2.440352 a 0.14813855,0.14813855 0 0 0 -0.07951,0.02792 c -0.220439,0.16175 -0.364959,0.474476 -0.469446,0.833012 -0.104418,0.357826 -0.154443,0.761454 -0.0879,1.101381 0.01894,0.09588 0.05734,0.198231 0.120097,0.290549 a 0.44083741,0.44083741 0 0 0 0.291983,0.200373 c 0.120097,0.01784 0.22531,-0.02859 0.306293,-0.09017 0.08087,-0.06155 0.142543,-0.138109 0.181762,-0.226148 0.107386,-0.240459 0.09304,-0.468036 0.04003,-0.689164 -0.0522,-0.221142 -0.13605,-0.447279 -0.190961,-0.74928 -0.0054,-0.03361 0.0054,-0.123807 0.02704,-0.227579 0.01894,-0.1045 0.04516,-0.225426 0.01355,-0.357828 A 0.14813855,0.14813855 0 0 0 59.844012,83.74169 Z m -0.174729,0.774326 c 0.0595,0.313454 0.145246,0.553908 0.190415,0.742123 0.04571,0.193233 0.05518,0.325616 -0.02434,0.498804 a 0.3263342,0.3263342 0 0 1 -0.09087,0.111664 c -0.03732,0.02859 -0.06951,0.03578 -0.08224,0.0336 -0.02164,-0.0031 -0.05734,-0.02515 -0.09223,-0.07513 a 0.51955839,0.51955839 0 0 1 -0.07384,-0.178919 c -0.0522,-0.267638 -0.01353,-0.639076 0.08087,-0.961832 0.02434,-0.08156 0.06085,-0.09804 0.09089,-0.171051 z m 11.10686,-16.488449 a 0.14813855,0.14813855 0 0 0 -0.05572,0.279104 c 0.281947,0.153146 0.55819,0.274091 0.790775,0.457297 0.219091,0.172456 0.39647,0.420084 0.528139,0.799374 -0.04734,0.09518 -0.06951,0.173188 -0.184738,0.265502 -0.143084,0.115226 -0.435095,0.26764 -1.048407,0.464453 a 0.14813855,0.14813855 0 0 0 -0.101706,0.157446 c 0.04868,0.430102 -0.209083,0.830147 -0.468037,1.256673 -0.543884,0.03504 -1.00048,-0.147412 -1.460621,-0.406485 a 0.14813855,0.14813855 0 0 0 -0.196097,0.0472 2.7337644,2.7337644 0 0 1 -0.89456,0.845896 0.14813855,0.14813855 0 0 0 -0.01079,0.007 c -0.137402,0.09732 -0.226122,0.11953 -0.274106,0.117358 -0.04788,-0.0022 -0.07735,-0.02083 -0.121715,-0.07514 -0.08954,-0.109478 -0.166885,-0.352077 -0.291979,-0.555321 a 0.14834108,0.14834108 0 1 0 -0.25182,0.156715 c 0.09087,0.147414 0.160395,0.397185 0.314893,0.585399 0.07653,0.09445 0.193122,0.178191 0.336341,0.18463 0.141732,0.007 0.289144,-0.05509 0.453028,-0.170321 0.356385,-0.209676 0.645502,-0.507395 0.888826,-0.84017 0.471608,0.259066 0.984007,0.488071 1.615928,0.41937 a 0.14813855,0.14813855 0 0 0 0.110342,-0.07158 c 0.255606,-0.421512 0.532441,-0.878095 0.522408,-1.413399 0.545339,-0.181761 0.883818,-0.333489 1.064175,-0.47948 0.193124,-0.156012 0.245596,-0.313454 0.303425,-0.416507 a 0.14813855,0.14813855 0 0 0 0.01355,-0.117357 c -0.148247,-0.475017 -0.39073,-0.781314 -0.662671,-0.994575 -0.271941,-0.214679 -0.565357,-0.340646 -0.832997,-0.485209 a 0.14813855,0.14813855 0 0 0 -0.08519,-0.01866 z M 64.226714,71.4405 a 0.14813855,0.14813855 0 0 0 -0.08952,0.25263 c 0.310592,0.314879 0.636928,0.615452 0.835866,0.923179 0.189066,0.289835 0.243431,0.571087 0.127396,0.90887 -0.283382,0.153146 -0.505961,0.207541 -0.708471,0.202538 -0.223144,-0.0042 -0.450158,-0.05796 -0.732106,-0.03292 a 0.14813855,0.14813855 0 0 0 -0.130095,0.105916 c -0.150386,0.529576 -0.420812,0.79866 -0.707061,1.102807 -0.3206,-0.0065 -0.7135,-0.137402 -1.190843,-0.450855 a 0.14813855,0.14813855 0 0 0 -0.184736,0.01731 c -0.345648,0.338501 -0.578235,0.454436 -0.883092,0.687738 a 0.14813855,0.14813855 0 1 0 0.178788,0.234723 c 0.260472,-0.198939 0.513829,-0.354245 0.835864,-0.65267 0.47948,0.297711 0.921039,0.493081 1.31107,0.482346 a 0.14813855,0.14813855 0 0 0 0.104419,-0.0472 c 0.277674,-0.295562 0.563193,-0.651239 0.75142,-1.182248 0.206919,-0.0085 0.402204,0.0265 0.641226,0.03222 0.261285,0.0057 0.563926,-0.04508 0.933914,-0.265504 a 0.14813855,0.14813855 0 0 0 0.06302,-0.07158 c 0.182573,-0.45801 0.0695,-0.878811 -0.160935,-1.233055 -0.230451,-0.354243 -0.569659,-0.663401 -0.873083,-0.969698 a 0.14813855,0.14813855 0 0 0 -0.121716,-0.04511 z m 3.861616,3.508091 a 0.14813855,0.14813855 0 0 0 -0.02868,0.0057 0.14813855,0.14813855 0 0 0 -0.07735,0.05008 c -1.027661,0.322757 -1.700371,1.196559 -2.085372,2.446077 -0.131714,0.425808 -0.193936,0.951806 -0.26994,1.457769 a 0.14813855,0.14813855 0 0 0 -0.03786,0.209676 21.612484,21.612484 0 0 0 -0.187442,3.150271 c -0.116035,0.130243 -0.198261,0.281247 -0.261282,0.335635 -0.03786,0.03222 -0.0595,0.04366 -0.124428,0.03579 -0.06221,-0.007 -0.172567,-0.05297 -0.322762,-0.154578 C 64.39478,81.923893 64.072015,81.39718 63.636193,81.050808 63.186059,80.692269 62.609234,80.533398 61.8986,80.72662 a 0.14813855,0.14813855 0 0 0 -0.102233,0.183926 c 0.39217,1.323943 0.05003,2.129761 -0.121716,3.128085 0,0.0032 -0.0022,0.005 -0.0022,0.007 -0.0015,0.0039 0,0.005 0,0.0086 a 0.1810582,0.1810582 0 0 0 -0.0054,0.05297 c 0.0028,0.03146 0.01353,0.04578 0.01893,0.0601 0.01355,0.02858 0.02869,0.04725 0.04516,0.07013 0.03353,0.04507 0.07789,0.09805 0.133886,0.16318 0.111704,0.130971 0.265612,0.309152 0.423652,0.51884 0.315598,0.420087 0.644065,0.97041 0.697028,1.499986 a 0.14813855,0.14813855 0 0 0 0.196098,0.124536 c 0.49525,-0.173897 1.014084,-0.269073 1.426998,-0.563217 0.387166,-0.276949 0.628352,-0.766451 0.649803,-1.557236 a 0.14813855,0.14813855 0 0 0 0.0082,-0.01295 c 1.883598,-0.184629 3.135972,-0.835164 3.877385,-1.746178 0.724236,-0.888833 0.957527,-1.998083 0.943218,-3.085147 a 0.14813855,0.14813855 0 0 0 0.01079,-0.121662 c 0,-0.01295 0.0054,-0.0257 0.0054,-0.03937 -0.04219,-1.13788 -0.36712,-2.244981 -0.757884,-3.07012 -0.195286,-0.413643 -0.405774,-0.75572 -0.613288,-0.999758 -0.134398,-0.15741 -0.279082,-0.193195 -0.419356,-0.258299 a 0.14813855,0.14813855 0 0 0 -0.20394,-0.125966 c -0.0082,0 -0.01623,-0.01569 -0.02434,-0.01515 z m -0.106038,0.393606 c -0.161749,0.677714 -0.239105,1.388353 0.268315,2.078953 a 0.14813855,0.14813855 0 1 0 0.237483,-0.176761 c -0.452271,-0.615456 -0.375699,-1.227334 -0.214763,-1.877139 0.07656,0.04508 0.128759,0.04652 0.23559,0.171755 0.182575,0.216141 0.385027,0.540313 0.571795,0.936064 0.341374,0.722803 0.588267,1.709678 0.666273,2.701562 -0.636924,-0.494513 -1.275992,-0.825858 -1.91792,-0.897418 -0.633358,-0.07084 -1.259543,0.118086 -1.872858,0.46803 0.06951,-0.411496 0.114417,-0.861637 0.221795,-1.210156 0.35568,-1.15362 0.94465,-1.882147 1.803427,-2.194168 z m -0.184739,3.231139 c 0.648368,0.07158 1.314641,0.407917 1.998796,0.994746 0.01623,1.043412 -0.207461,2.084676 -0.880252,2.910529 -0.701328,0.860922 -1.880701,1.502858 -3.780743,1.664595 -0.281246,-0.213279 -0.503822,-0.40506 -0.615451,-0.546757 -0.126586,-0.162451 -0.157418,-0.272659 -0.154444,-0.356391 0.0027,-0.08375 0.04219,-0.159584 0.110368,-0.249056 0.04735,-0.06228 0.110895,-0.135273 0.171754,-0.206811 0.117385,0.06657 0.234776,0.139548 0.334205,0.150278 A 0.46445371,0.46445371 0 0 0 65.33387,82.82928 c 0.16959,-0.145274 0.237482,-0.335638 0.313459,-0.401474 a 0.14813855,0.14813855 0 0 0 0.05004,-0.114498 c -0.01623,-1.197989 0.06221,-2.247122 0.194745,-3.207521 0.636926,-0.418649 1.268118,-0.604005 1.906479,-0.53244 z m -4.991627,2.393116 c 0.240457,0.05008 0.450864,0.160314 0.645527,0.314886 0.371424,0.296277 0.67485,0.785777 0.961827,1.320362 -0.05572,0.06583 -0.113877,0.130243 -0.174729,0.209676 -0.01623,0.02299 -0.01893,0.06012 -0.03518,0.08518 -0.14038,-0.132388 -0.279108,-0.269072 -0.453,-0.353529 a 1.2266157,1.2266157 0 0 0 -0.792238,-0.100195 0.14813855,0.14813855 0 1 0 0.05733,0.290551 c 0.237484,-0.04721 0.426524,-0.01079 0.605446,0.07657 0.164449,0.08013 0.316297,0.216112 0.46874,0.369271 -0.0027,0.0192 -0.02165,0.02936 -0.02165,0.05008 -0.0028,0.09087 0.076,0.196802 0.117384,0.296276 -0.384294,0.115928 -0.775761,0.290553 -1.155757,0.684871 a 0.14858797,0.14858797 0 1 0 0.214759,0.205406 2.2199311,2.2199311 0 0 1 1.052005,-0.626188 c 0.05787,0.0737 0.199615,0.17102 0.284112,0.251895 -0.08438,0.344942 -0.09522,0.601142 -0.740708,1.039837 a 0.14813855,0.14813855 0 1 0 0.166075,0.244025 c 0.611176,-0.415075 0.730672,-0.765743 0.81225,-1.072038 0.06004,0.04864 0.08575,0.08658 0.155257,0.138843 -0.01355,0.746414 -0.212598,1.119978 -0.533848,1.348984 -0.309159,0.220418 -0.764323,0.322764 -1.234498,0.478056 C 63.095482,85.667509 62.822161,85.136508 62.526584,84.743614 62.36187,84.523903 62.20456,84.34071 62.093635,84.211172 A 3.5245523,3.5245523 0 0 1 61.973538,84.06447 c 0.158773,-0.902429 0.443696,-1.784819 0.123065,-3.057951 0.26047,-0.05583 0.503822,-0.08229 0.709929,-0.03936 z m 1.809797,-38.143907 c -0.206916,0.05726 -0.36642,0.197532 -0.486647,0.371422 -0.239646,0.348518 -0.355656,0.844462 -0.497358,1.346127 a 0.14813855,0.14813855 0 1 0 0.284816,0.08086 c 0.143084,-0.507392 0.268316,-0.986873 0.455867,-1.259536 0.09304,-0.135978 0.194745,-0.218276 0.322763,-0.254063 0.128759,-0.0358 0.296987,-0.0265 0.533875,0.06727 a 0.14825136,0.14825136 0 1 0 0.109545,-0.275523 C 65.06164,42.78961 64.822618,42.763828 64.615782,42.821822 Z m 2.251422,0.497375 a 0.14813855,0.14813855 0 0 0 -0.0054,0.294844 c 0.353517,0.04152 0.642661,0.09163 0.797942,0.322042 0.155256,0.229017 0.214762,0.717076 -0.03921,1.698942 a 0.14813855,0.14813855 0 1 0 0.286247,0.07444 c 0.263447,-1.014785 0.236128,-1.58873 -6.79e-4,-1.940116 -0.237752,-0.352098 -0.649856,-0.406489 -1.009107,-0.448711 a 0.14813855,0.14813855 0 0 0 -0.02949,-0.0016 z m -10.469876,9.246137 c -0.331365,0.06153 -0.628353,0.317747 -0.821583,0.708487 -0.182575,0.367124 -0.251817,0.878098 -0.200969,1.46922 -0.122256,0.06011 -0.239645,0.1288 -0.303424,0.227582 -0.162559,0.25263 -0.163098,0.536737 -0.106563,0.717079 a 0.14885419,0.14885419 0 1 0 0.284111,-0.08803 c -0.02164,-0.0694 -0.02705,-0.316317 0.07169,-0.468029 a 0.38644838,0.38644838 0 0 1 0.22044,-0.164589 h 0.0015 a 0.14813855,0.14813855 0 0 0 0.0082,-0.003 c 0.109545,-0.03222 0.2648,-0.03867 0.48808,0.02083 0.68702,0.183927 1.289567,-0.01867 1.714681,-0.243325 0.146601,-0.078 0.222604,-0.08732 0.262635,-0.08086 0.03921,0.0065 0.07384,0.03078 0.139577,0.09087 0.03218,0.02863 0.156065,0.05652 0.200966,0.09304 0.0022,0.01 -0.0054,0.0165 -0.0026,0.02569 a 0.14813855,0.14813855 0 0 0 0.239105,0.08588 c 0.128745,0.07012 0.168778,0.161018 0.393603,0.182494 0.414349,0.0401 0.747848,-0.0272 1.056278,-0.08803 a 0.14813855,0.14813855 0 0 0 0.137404,-0.01295 c 0.01353,-0.003 0.03948,-6.8e-4 0.05436,-0.0035 0.340643,-0.0737 0.606143,-0.132402 0.77863,-0.09375 0.105214,0.023 0.234777,0.134547 0.32133,0.284829 0.08576,0.150276 0.123065,0.332059 0.09954,0.4437 a 0.14813855,0.14813855 0 1 0 0.289117,0.06228 c 0.04734,-0.217548 -0.01623,-0.451571 -0.131728,-0.652668 -0.114416,-0.200375 -0.286276,-0.377147 -0.51456,-0.427959 -0.0787,-0.01704 -0.17311,0.02434 -0.253981,0.0265 -0.08655,-0.775758 -0.266965,-1.34255 -0.533875,-1.667452 -0.28338,-0.344941 -0.666247,-0.450142 -1.001885,-0.343511 -0.396469,0.125966 -0.665569,0.535305 -0.824423,1.039834 a 0.14813855,0.14813855 0 0 0 -0.01355,0.150279 2.2507041,2.2507041 0 0 0 -0.06439,0.689881 c -0.0054,-0.0057 -0.02166,-0.0085 -0.02786,-0.01433 -0.07302,-0.06726 -0.163911,-0.14314 -0.29485,-0.163155 -0.113054,-0.01784 -0.242621,0.02863 -0.386462,0.09589 -0.01079,-0.271943 -0.100897,-0.413642 -0.151739,-0.624756 a 0.14813855,0.14813855 0 0 0 -0.05572,-0.227584 c -0.0614,-0.186061 -0.05652,-0.482343 -0.14822,-0.613308 C 57.080531,52.65617 56.731207,52.504451 56.399138,52.566 Z m 0.05435,0.29055 c 0.216116,-0.04009 0.433661,0.0408 0.623323,0.313454 0.04573,0.06583 0.04221,0.257632 0.08087,0.347801 -0.113053,-0.03577 -0.240455,-0.09304 -0.33921,-0.102354 -0.189062,-0.0165 -0.361413,0.023 -0.493815,0.128826 -0.263447,0.211108 -0.334906,0.602576 -0.354951,1.150044 a 1.1765207,1.1765207 0 0 0 -0.297718,-0.0085 c -0.03867,-0.526715 0.02166,-0.979002 0.170944,-1.280291 0.163099,-0.329196 0.394333,-0.508825 0.610449,-0.548899 z m 2.924106,0.0923 c 0.230451,-0.07299 0.458736,-0.02352 0.68345,0.250464 0.211246,0.256903 0.384299,0.774328 0.46804,1.509299 -0.107387,0.02002 -0.202591,0.0065 -0.319897,0.03148 -0.05003,-0.359254 -0.110895,-0.666981 -0.21395,-0.8552 -0.121715,-0.221845 -0.298421,-0.347085 -0.480914,-0.382869 -0.181763,-0.0358 -0.357115,0.0042 -0.516697,0.04652 -0.0879,0.02301 -0.156068,0.03437 -0.233426,0.05297 0.149576,-0.337782 0.379294,-0.578241 0.613313,-0.652668 z m -2.583462,0.761447 c 0.108736,0.01 0.271942,0.07013 0.442263,0.138136 0.06221,0.230447 0.160936,0.374283 0.166615,0.710634 -0.322033,0.140268 -0.702032,0.221146 -1.13645,0.145275 0.01893,-0.522418 0.112258,-0.82299 0.243433,-0.928189 0.06439,-0.05296 0.146602,-0.0787 0.28341,-0.06583 z m 2.665066,0.08229 c 0.102246,0.02002 0.186093,0.06799 0.276946,0.233288 0.07438,0.13667 0.131714,0.418653 0.178788,0.740693 -0.276242,0.05154 -0.55462,0.110194 -0.89886,0.0773 -0.216925,-0.02137 -0.257768,-0.105916 -0.356386,-0.169618 -0.03948,-0.286973 0.01079,-0.528861 0.07357,-0.764309 0.116589,-0.0222 0.233967,-0.0472 0.339941,-0.07515 0.148766,-0.03936 0.283382,-0.06152 0.38573,-0.04222 z m -4.73759,3.591112 a 0.14813855,0.14813855 0 0 0 -0.138758,0.108776 c -0.166072,0.566789 -0.153902,0.608297 -0.364957,1.067742 a 0.14827652,0.14827652 0 1 0 0.269669,0.123106 c 0.215301,-0.470176 0.216925,-0.548184 0.380024,-1.108533 A 0.14813855,0.14813855 0 0 0 54.719118,57.38378 Z m 8.745191,4.56653 a 0.14813855,0.14813855 0 0 0 -0.141735,0.155309 c 0.05357,1.550801 0.463038,4.633087 0.229099,7.047671 -0.116562,1.207295 -0.400743,2.238539 -0.929611,2.815347 a 1.567263,1.567263 0 0 1 -0.994043,0.520993 c -0.410777,0.05224 -0.916007,-0.02862 -1.535759,-0.287691 a 0.14852396,0.14852396 0 1 0 -0.114416,0.274094 c 0.651938,0.273376 1.209425,0.368556 1.686768,0.307728 a 1.8893034,1.8893034 0 0 0 1.175804,-0.615456 c 0.0522,-0.05725 0.07005,-0.156014 0.117385,-0.218982 h 0.0016 c 0.261823,-0.04864 0.606849,-0.04009 0.95896,-0.134534 0.352085,-0.09447 0.712065,-0.309157 0.967561,-0.77576 a 0.14829965,0.14829965 0 1 0 -0.25966,-0.143138 c -0.219631,0.402194 -0.486649,0.552476 -0.784364,0.632629 -0.226935,0.06084 -0.47088,0.07301 -0.710634,0.09875 0.375723,-0.654815 0.621887,-1.471366 0.715664,-2.446074 0.239644,-2.471123 -0.175272,-5.573446 -0.227474,-7.084889 A 0.14813855,0.14813855 0 0 0 63.464819,61.95102 Z m 2.068224,2.698699 a 0.14813855,0.14813855 0 0 0 -0.138223,0.157444 c 0.09576,1.877855 -0.0365,3.742109 -0.379291,5.114718 a 0.14813855,0.14813855 0 1 0 0.286248,0.07158 c 0.353544,-1.416977 0.486647,-3.300556 0.38933,-5.202027 A 0.14813855,0.14813855 0 0 0 65.533804,64.648298 Z M 48.701195,48.425335 a 0.14813855,0.14813855 0 0 0 -0.138221,0.125966 c -0.225311,1.365454 -0.138221,2.839682 -0.07168,4.295305 a 0.14813855,0.14813855 0 0 0 0,0.0042 0.14813855,0.14813855 0 0 0 -0.0014,0.02516 c 0,0.005 0.0028,0.0086 0.0028,0.01433 a 0.14813855,0.14813855 0 0 0 0.0013,0.01355 c 0.159584,2.73949 1.187272,3.893824 2.015264,5.59062 -0.110894,0.651238 -0.20962,1.333247 -0.205293,2.221364 a 0.14813855,0.14813855 0 1 0 0.294823,-0.0013 c -0.0054,-0.883826 0.09385,-1.55868 0.207458,-2.217072 0.690617,-2.157667 2.106148,-3.254039 3.548185,-4.25165 a 0.14813855,0.14813855 0 1 0 -0.168846,-0.24334 c -1.382638,0.95682 -2.782427,2.08253 -3.53531,4.12498 -0.816583,-1.594413 -1.717581,-2.705093 -1.862856,-5.255652 a 0.14813855,0.14813855 0 0 0 -0.0016,-0.01079 v -0.0015 c -0.06649,-1.467108 -0.150356,-2.931318 0.06792,-4.258839 a 0.14813855,0.14813855 0 0 0 -0.153123,-0.174598 z m -4.798399,3.447981 a 0.14813855,0.14813855 0 0 0 -0.133886,0.130229 c -0.347081,2.654328 -0.296282,4.594441 0.239645,6.161707 0.536741,1.568692 1.558694,2.752371 3.108764,3.883807 a 0.14821846,0.14821846 0 1 0 0.175264,-0.239018 c -1.520741,-1.10997 -2.489005,-2.237826 -3.002133,-3.740679 -0.513831,-1.502854 -0.572526,-3.395023 -0.228284,-6.027165 a 0.14813855,0.14813855 0 0 0 -0.159585,-0.169618 z m 18.220323,1.698223 a 0.14813855,0.14813855 0 0 0 -0.0787,0.278389 c 2.37809,1.383342 3.533851,3.61687 4.064153,5.852546 0.501661,2.116878 0.425088,4.17579 0.294825,5.524065 -0.719938,-0.529577 -1.397654,-0.988308 -2.033849,-1.885724 -0.704195,-0.992602 -1.371172,-2.536248 -1.978048,-5.318677 a 0.14830417,0.14830417 0 1 0 -0.289847,0.06297 c 0.611882,2.803897 1.288893,4.386903 2.025304,5.426019 0.736378,1.039116 1.526451,1.522893 2.321528,2.12189 a 0.14813855,0.14813855 0 0 0 0.237481,-0.102354 c 0.146059,-1.350423 0.251818,-3.61043 -0.29055,-5.896919 -0.541744,-2.2872 -1.74116,-4.608755 -4.20299,-6.040045 a 0.14813855,0.14813855 0 0 0 -0.06951,-0.02137 z m -1.266685,1.925803 a 0.14813855,0.14813855 0 0 0 -0.119557,0.0687 c -0.353543,0.546037 -0.648395,0.914597 -1.041267,1.161494 -0.392901,0.246894 -0.89886,0.381439 -1.693933,0.432964 a 0.14813855,0.14813855 0 1 0 0.01893,0.294847 c 0.820853,-0.05297 1.384046,-0.196101 1.832774,-0.47805 0.448698,-0.281966 0.77073,-0.692746 1.132148,-1.250949 A 0.14813855,0.14813855 0 0 0 60.855947,55.497344 Z M 55.725968,42.41535 c -0.236128,-0.01704 -0.470175,0.09304 -0.67271,0.306293 -0.20178,0.212543 -0.385028,0.528146 -0.553188,0.961827 -0.201777,0.522421 -0.136584,1.137162 -0.328496,1.90505 a 0.14822841,0.14822841 0 1 0 0.287683,0.07158 c 0.203941,-0.817265 0.154444,-1.448466 0.31776,-1.869267 0.15877,-0.410064 0.329904,-0.694171 0.49165,-0.865211 0.161747,-0.171026 0.302722,-0.224718 0.43653,-0.214682 0.133886,0.0092 0.282677,0.0916 0.43869,0.266938 0.121716,0.135964 0.237482,0.366409 0.350678,0.601857 -0.389301,0.0042 -0.748554,0.09519 -0.986876,0.393606 -0.291981,0.364978 -0.40791,0.953954 -0.342075,1.841354 a 0.14813855,0.14813855 0 1 0 0.29485,-0.02218 c -0.06302,-0.851619 0.06221,-1.363306 0.279082,-1.635251 0.195286,-0.244758 0.507394,-0.289837 0.883118,-0.268371 0.113054,0.350667 0.138759,0.778622 0.268315,1.31536 a 0.14840906,0.14840906 0 1 0 0.288413,-0.07012 C 57.052805,44.613137 57.039831,44.149397 56.88741,43.726449 v -0.0015 a 0.14813855,0.14813855 0 0 0 -0.02705,-0.09731 0.14813855,0.14813855 0 0 0 -0.0082,-0.01295 C 56.706919,43.271202 56.54647,42.984946 56.363976,42.780271 56.175724,42.56916 55.959664,42.432468 55.724211,42.415293 Z m -1.182239,5.424588 a 0.14813855,0.14813855 0 0 0 -0.01079,0.0015 c -0.487378,0.04652 -0.860234,0.357821 -1.129308,0.727095 -0.226122,0.309876 -0.356384,0.654818 -0.468038,0.966121 -0.137402,-0.20037 -0.279813,-0.391458 -0.476613,-0.462307 -0.248301,-0.09017 -0.527436,-0.05871 -0.815118,0.06941 -0.28698,0.128827 -0.590404,0.353529 -0.915305,0.668413 -0.650532,0.629769 -1.391215,1.625944 -2.218506,2.982808 a 0.14824807,0.14824807 0 1 0 0.253441,0.153875 c 0.819419,-1.34541 1.552962,-2.325842 2.171982,-2.924122 0.309157,-0.299855 0.588266,-0.502385 0.828722,-0.609731 0.239647,-0.107347 0.431525,-0.121662 0.593977,-0.06297 0.161744,0.05871 0.310591,0.196802 0.441557,0.444416 0.130918,0.248327 0.238294,0.601859 0.311295,1.059155 0.147413,0.916024 0.159584,2.242831 0.01355,3.984713 a 0.14813855,0.14813855 0 1 0 0.294853,0.02352 c 0.1466,-1.755477 0.138221,-3.100173 -0.01623,-4.056279 a 3.7914882,3.7914882 0 0 0 -0.289818,-0.968894 0.14813855,0.14813855 0 0 0 0.01355,-0.02792 c 0.105214,-0.326333 0.275538,-0.737113 0.515263,-1.066309 0.240458,-0.329198 0.538906,-0.570371 0.917469,-0.606153 a 0.14844576,0.14844576 0 0 0 -0.01893,-0.296286 z m -1.402685,-3.755706 c -0.443696,-0.06371 -0.797214,0.04009 -1.033396,0.278387 -0.23613,0.23832 -0.353517,0.586829 -0.410777,0.991168 a 0.14813855,0.14813855 0 0 0 0.0054,0.06727 c 0.125238,0.377145 0.198263,0.788642 0.410779,1.193696 0.211785,0.403625 0.569659,0.79007 1.230197,1.107102 1.019792,0.572516 1.736157,0.447994 2.377384,0.305582 a 0.14813855,0.14813855 0 1 0 -0.06437,-0.289121 c -0.636928,0.140971 -1.215158,0.264068 -2.173418,-0.276956 a 0.14813855,0.14813855 0 0 0 -0.0082,-0.0042 C 52.856994,47.162341 52.560735,46.832429 52.374645,46.477469 52.195859,46.13682 52.12337,45.76039 51.998948,45.373225 c 0.05355,-0.356389 0.156609,-0.636207 0.319899,-0.800806 0.159581,-0.15958 0.392872,-0.222576 0.739248,-0.183926 0.315596,0.251901 0.437987,0.645512 0.742117,1.009059 0.157419,0.188202 0.372151,0.355676 0.684883,0.453722 0.30702,0.09661 0.710632,0.125224 1.248076,0.07158 0.284111,0.02569 0.557486,-0.01731 0.830156,-0.17319 0.265611,-0.151712 0.535308,-0.414359 0.848766,-0.790072 0.0879,-0.05796 0.198262,-0.05224 0.345648,0.02137 0.147409,0.07371 0.309861,0.216114 0.440123,0.387878 a 0.14885419,0.14885419 0 1 0 0.23613,-0.180355 c -0.153061,-0.201834 -0.341339,-0.372168 -0.545282,-0.473789 -0.203943,-0.101625 -0.444426,-0.130972 -0.639794,-0.0016 a 0.14813855,0.14813855 0 0 0 -0.03218,0.02936 c -0.317734,0.385731 -0.57323,0.61903 -0.799376,0.747847 -0.226121,0.128799 -0.422221,0.161016 -0.662677,0.138109 a 0.14813855,0.14813855 0 0 0 -0.02948,0 c -0.526004,0.05508 -0.890962,0.02138 -1.150028,-0.06012 A 1.1020936,1.1020936 0 0 1 54.027006,45.206925 C 53.767344,44.896336 53.644844,44.43045 53.206857,44.111273 a 0.14813855,0.14813855 0 0 0 -0.0652,-0.02717 z m 11.171233,-2.53553 c -0.153903,0.01433 -0.296284,0.08588 -0.415782,0.202534 -0.119557,0.116656 -0.222606,0.27481 -0.328498,0.479483 -0.211787,0.410065 -0.432957,1.011923 -0.736382,1.860678 a 0.14885419,0.14885419 0 1 0 0.279081,0.100195 c 0.303452,-0.846609 0.52457,-1.446321 0.720667,-1.824899 0.09736,-0.188931 0.188795,-0.322038 0.27194,-0.402906 a 0.36497903,0.36497903 0 0 1 0.233968,-0.120218 0.59040726,0.59040726 0 0 1 0.452295,0.137404 c 0.153902,0.13166 0.307726,0.393607 0.363524,0.921038 0.04166,0.377141 -0.03921,0.789355 -0.02705,1.401945 a 0.14816941,0.14816941 0 1 0 0.296284,-0.0057 c -0.01079,-0.58182 0.07302,-0.989021 0.02434,-1.426995 -0.06086,-0.573949 -0.238289,-0.920322 -0.46517,-1.116408 a 0.89741904,0.89741904 0 0 0 -0.670545,-0.206161 z m 3.873788,0.973277 c -0.233966,-0.06011 -0.477342,6.78e-4 -0.704194,0.128097 -0.226934,0.126668 -0.442993,0.322044 -0.636223,0.558206 -0.386435,0.470894 -0.684856,1.10925 -0.732108,1.724705 a 0.14885419,0.14885419 0 1 0 0.296283,0.02136 c 0.04166,-0.53387 0.314893,-1.130717 0.665542,-1.558675 0.174732,-0.213271 0.367151,-0.385017 0.551049,-0.487351 0.182576,-0.103056 0.349245,-0.134534 0.486648,-0.09949 0.148766,0.03793 0.276243,0.07515 0.377861,0.178921 0.101707,0.103758 0.193122,0.289122 0.219628,0.668412 0.03083,0.432967 -0.128745,1.262398 -0.440123,1.960872 a 0.14885419,0.14885419 0 1 0 0.270507,0.121662 c 0.331366,-0.741412 0.503118,-1.577999 0.465172,-2.103997 -0.02868,-0.4208 -0.140378,-0.68702 -0.304129,-0.85305 C 68.538066,42.614194 68.338427,42.5598 68.186715,42.52115 Z m -9.875903,2.607812 a 0.14813855,0.14813855 0 0 0 -0.05871,0.282679 c 0.340643,0.166753 1.123547,0.709921 1.537193,1.27886 0.206917,0.284113 0.316326,0.567506 0.278404,0.80152 -0.03732,0.229016 -0.223955,0.450857 -0.675578,0.64909 -0.908865,-0.241892 -1.543629,-0.285542 -2.063194,-0.284107 -0.533873,0.0022 -0.970428,0.0272 -1.588016,-0.117358 -1.012648,-0.513117 -1.717548,-0.960396 -2.167682,-1.347559 -0.453728,-0.389311 -0.648393,-0.713497 -0.687019,-0.973278 a 0.14813855,0.14813855 0 1 0 -0.292713,0.04296 c 0.05517,0.364264 0.304156,0.73998 0.787206,1.154336 0.483077,0.415076 1.205151,0.873088 2.242116,1.397659 a 0.14813855,0.14813855 0 0 0 0.03354,0.01214 c 0.666977,0.159584 1.145049,0.128799 1.674622,0.127382 0.529572,-0.0015 1.119976,0.02301 2.063193,0.284112 a 0.14813855,0.14813855 0 0 0 0.09657,-0.0057 c 0.531008,-0.223986 0.811521,-0.538162 0.869486,-0.891692 0.05733,-0.354243 -0.09873,-0.704908 -0.329907,-1.023373 -0.463007,-0.636924 -1.245211,-1.175803 -1.646681,-1.372609 a 0.14813855,0.14813855 0 0 0 -0.07304,-0.01569 z m 4.139995,-1.072039 a 0.14813855,0.14813855 0 0 0 -0.139561,0.170324 c 0.504524,3.650507 0.737111,3.245451 2.06606,5.035994 l 0.0028,0.0042 a 0.14813855,0.14813855 0 0 0 0.15877,0.08301 0.14813855,0.14813855 0 0 0 0.03354,-0.01 l 0.0082,-0.0042 c 1.737589,-0.300571 3.391469,-1.004765 4.541496,-2.677944 a 0.14813855,0.14813855 0 0 0 0.02434,-0.06153 0.14813855,0.14813855 0 0 0 -0.01355,-0.216845 c -0.02705,-0.02139 -0.03921,-0.04508 -0.04948,-0.09875 -0.01079,-0.05366 -0.01079,-0.128827 -0.01622,-0.211108 -0.0054,-0.08301 -0.01355,-0.178924 -0.06167,-0.272659 -0.04787,-0.09375 -0.145248,-0.177491 -0.271942,-0.215413 -0.286977,-0.08588 -0.687748,-0.06011 -1.069881,-0.05297 a 5.2886176,5.2886176 0 0 1 -0.524624,-0.01 c -0.149576,-0.01295 -0.264799,-0.04578 -0.30559,-0.07371 -0.263446,-0.178923 -0.404341,-0.434398 -0.555348,-0.687022 -0.150928,-0.252626 -0.324902,-0.515978 -0.66054,-0.591837 -0.325605,-0.07371 -0.583967,0.03366 -0.806517,0.139547 -0.223147,0.105916 -0.420084,0.210406 -0.701328,0.209675 -0.156068,0 -0.409372,-0.130243 -0.677011,-0.262635 -0.267807,-0.132429 -0.565552,-0.27269 -0.873278,-0.184657 a 0.14813855,0.14813855 0 0 0 -0.02869,0.01079 0.14813855,0.14813855 0 0 0 -0.08386,-0.02137 z m 0.194746,0.294847 c 0.167426,-0.04794 0.402203,0.03867 0.659106,0.166754 0.257496,0.127383 0.520296,0.293413 0.806544,0.293413 0.356386,0 0.61545,-0.135965 0.830157,-0.23759 0.214761,-0.101626 0.377131,-0.171757 0.614016,-0.118802 0.214762,0.04867 0.326335,0.211109 0.472315,0.455864 0.14606,0.243325 0.313458,0.553913 0.64266,0.778624 0.124428,0.08375 0.27551,0.108776 0.44583,0.123807 0.171755,0.01515 0.36285,0.01433 0.556785,0.01147 0.386436,-0.0073 0.792208,-0.01515 0.979705,0.0408 0.06439,0.01867 0.07656,0.0365 0.09225,0.06657 a 0.43940614,0.43940614 0 0 1 0.02868,0.155282 c 0.0054,0.07158 0.0054,0.154579 0.02164,0.246192 0.0082,0.05151 0.05436,0.100924 0.08386,0.153875 a 0.14813855,0.14813855 0 0 0 -0.0015,0.003 c -0.616913,0.897422 -1.396948,1.459916 -2.246419,1.869981 0.06653,-0.0401 0.1466,-0.05871 0.211245,-0.100924 0.695593,-0.45372 1.285295,-1.064164 1.598752,-1.985917 a 0.14868981,0.14868981 0 1 0 -0.281211,-0.09657 c -0.290549,0.853765 -0.820121,1.40624 -1.478524,1.83491 -0.627621,0.409352 -1.378312,0.697043 -2.120457,1.006202 -1.243071,-1.647417 -1.45848,-1.40696 -1.920784,-4.66601 a 0.14813855,0.14813855 0 0 0 0.0054,-0.0013 z M 53.949806,38.9688 c -2.154805,-0.05366 -4.419103,1.631672 -4.76475,4.547211 -5.078233,2.128329 -7.406934,5.882604 -8.773831,10.233724 -1.374039,4.37474 -1.809134,9.353484 -3.16743,13.955082 -0.143085,0.486639 -0.609015,0.858774 -1.164364,1.146464 -0.556051,0.28769 -1.185106,0.485208 -1.61736,0.6541 a 0.14813855,0.14813855 0 0 0 -0.06734,0.224012 c 0.286277,0.406485 0.512399,0.918169 0.982574,1.252377 0.46947,0.334206 1.166526,0.452284 2.314418,0.125966 a 0.14839845,0.14839845 0 1 0 -0.08086,-0.285568 c -1.1021,0.313453 -1.674625,0.193232 -2.061789,-0.0823 -0.337776,-0.240455 -0.543152,-0.645513 -0.795076,-1.031246 0.410074,-0.152442 0.938942,-0.324185 1.459916,-0.593982 0.586833,-0.304151 1.134312,-0.714931 1.314639,-1.325375 1.369739,-4.640247 1.80486,-9.618272 3.164592,-13.947928 1.35973,-4.329653 3.622593,-8.000912 8.66645,-10.090596 a 0.14813855,0.14813855 0 0 0 0.09089,-0.123105 c 0.292685,-2.834674 2.468967,-4.414101 4.487074,-4.364007 1.00908,0.02516 1.975179,0.455153 2.665797,1.350426 0.689859,0.895267 1.106372,2.265013 0.973268,4.18366 a 0.14888399,0.14888399 0 1 0 0.296988,0.02137 C 58.009631,42.84747 57.582329,41.398289 56.838049,40.432168 56.093768,39.466047 55.03319,38.994437 53.944698,38.967241 Z m 8.516175,5.091818 c -0.934617,-0.0687 -1.6839,-0.08086 -2.361615,0.07013 -0.677015,0.151006 -1.275288,0.468748 -1.89074,1.039831 a 0.14816905,0.14816905 0 1 0 0.200427,0.218278 c 0.586834,-0.543892 1.127145,-0.830152 1.754766,-0.969699 0.627622,-0.140267 1.350426,-0.131673 2.275738,-0.06297 a 0.14813855,0.14813855 0 1 0 0.02164,-0.294846 z m 6.565333,2.285053 a 0.14813855,0.14813855 0 0 0 -0.0879,0.265501 c 2.718731,2.1498 2.173415,4.681753 2.272871,6.270485 a 0.1484108,0.1484108 0 1 0 0.296285,-0.01784 c -0.09385,-1.498575 0.437986,-4.250947 -2.38596,-6.484473 a 0.14813855,0.14813855 0 0 0 -0.09522,-0.03365 z m -22.499881,19.48702 a 0.14813855,0.14813855 0 0 0 -0.140381,0.125966 c -0.658375,3.844445 -0.576799,7.014038 0.668411,9.167413 0.02434,0.04365 0.06734,0.07158 0.09304,0.114497 -0.612583,0.870224 -0.863077,1.590162 -0.908868,2.225653 -0.04516,0.644799 0.109546,1.195845 0.251817,1.728285 a 0.14816144,0.14816144 0 1 0 0.286249,-0.07657 c -0.143085,-0.534587 -0.284086,-1.044843 -0.242622,-1.63167 0.03948,-0.551045 0.291284,-1.202283 0.824424,-1.988063 a 5.4231589,5.4231589 0 0 0 2.124757,1.809865 0.14813855,0.14813855 0 0 0 -0.0082,0.02792 c -0.162559,0.687736 -0.322764,1.00763 -0.488784,1.551519 a 0.14813855,0.14813855 0 1 0 0.281947,0.08658 c 0.153905,-0.5031 0.314189,-0.853051 0.475208,-1.507866 1.259516,0.534588 2.851129,0.755006 4.839184,0.592553 a 0.14813855,0.14813855 0 0 0 0.123078,-0.08658 c 0.147411,-0.323471 0.188254,-0.809393 0.127396,-1.267405 A 2.028854,2.028854 0 0 0 54.65636,76.06784 c -0.09439,-0.188227 -0.229638,-0.348522 -0.419352,-0.425096 -1.177941,-0.478051 -2.25859,-1.252379 -2.964922,-2.698698 -0.705628,-1.447033 -1.033395,-3.578223 -0.651234,-6.764993 A 0.14850781,0.14850781 0 1 0 50.326,66.143271 c -0.386434,3.22255 -0.0595,5.413854 0.679882,6.931021 0.740681,1.517167 1.896441,2.348749 3.120202,2.84469 0.100074,0.0408 0.190417,0.135978 0.263989,0.281966 0.07357,0.146706 0.126586,0.339217 0.153902,0.543889 0.05003,0.377858 -0.0054,0.774328 -0.09522,1.02051 -3.727081,0.277674 -5.961327,-0.757149 -7.132857,-2.786004 -1.184356,-2.051037 -1.286706,-5.158367 -0.633309,-8.97419 A 0.14813855,0.14813855 0 0 0 46.53004,65.829096 Z m 13.446969,1.636681 a 0.14813855,0.14813855 0 0 0 -0.143084,0.138842 c -0.317733,4.192249 0.03867,6.598249 0.724237,8.129729 0.631922,1.409821 1.545793,2.043884 2.405271,2.624986 -0.72924,0.293413 -1.420534,0.601142 -2.236383,0.465169 -0.9103,-0.151711 -2.023841,-0.853762 -3.54245,-2.821789 a 0.14813855,0.14813855 0 1 0 -0.233967,0.180357 c 1.540791,1.996651 2.710887,2.764537 3.728513,2.934145 1.017657,0.169619 1.837778,-0.2648 2.642187,-0.576096 a 0.14813855,0.14813855 0 0 0 0.02949,-0.261201 c -0.927474,-0.62834 -1.867853,-1.205863 -2.521224,-2.665779 -0.653397,-1.459916 -1.015518,-3.820115 -0.698488,-7.9866 a 0.14813855,0.14813855 0 0 0 -0.153902,-0.160313 z m -6.095864,2.129042 a 0.14813855,0.14813855 0 0 0 -0.08168,0.26837 c 0.290551,0.21828 0.596139,0.407917 0.938215,0.49666 0.270507,0.07012 0.575367,-6.79e-4 0.881658,-0.09661 -0.01623,0.115226 -0.05572,0.395036 -0.171754,0.89026 -0.137404,0.586832 -0.348514,1.293173 -0.619021,1.746175 a 0.14813855,0.14813855 0 1 0 0.253979,0.151713 c 0.304154,-0.510255 0.513832,-1.230912 0.654104,-1.832053 0.140915,-0.59971 0.208267,-1.078478 0.208267,-1.078478 a 0.14813855,0.14813855 0 0 0 -0.01355,-0.08658 0.14813855,0.14813855 0 0 0 -0.0016,-0.0031 0.14813855,0.14813855 0 0 0 -0.0054,-0.01 0.14813855,0.14813855 0 0 0 -0.200426,-0.07158 c -0.340641,0.163884 -0.630487,0.176054 -0.913167,0.102327 -0.283381,-0.0737 -0.558188,-0.239754 -0.834431,-0.447276 a 0.14813855,0.14813855 0 0 0 -0.09654,-0.03076 z m 6.981849,-8.122573 c -0.229097,0.07588 -0.372858,0.275525 -0.458736,0.508824 -0.05301,0.143139 -0.03571,0.367844 -0.0614,0.542458 a 0.14813855,0.14813855 0 0 0 -0.02166,0.180357 c -0.0365,0.347804 -0.09793,0.66555 -0.116575,1.037688 a 0.14834757,0.14834757 0 1 0 0.296257,0.01569 c 0.01893,-0.397182 0.07302,-0.697038 0.111704,-1.035539 0.167425,-0.09732 0.312025,-0.152442 0.403636,-0.132402 0.110355,0.02434 0.207458,0.108777 0.300559,0.257633 0.186088,0.296276 0.308452,0.814404 0.420812,1.24594 a 0.14813855,0.14813855 0 1 0 0.286249,-0.0737 c -0.109546,-0.423662 -0.221794,-0.957532 -0.455139,-1.3311 -0.116575,-0.186064 -0.274102,-0.340646 -0.48808,-0.387879 -0.130364,-0.02863 -0.28698,0.06726 -0.436528,0.124522 0.01893,-0.09731 0.01079,-0.264798 0.03868,-0.341363 0.0687,-0.186792 0.153904,-0.289121 0.273376,-0.328478 0.120096,-0.03936 0.312023,-0.02139 0.609716,0.130243 a 0.14885392,0.14885392 0 1 0 0.136049,-0.264803 c -0.334896,-0.170323 -0.609703,-0.223285 -0.838719,-0.147414 z m -2.042477,0.736403 a 0.84303004,0.84303004 0 0 0 -0.602548,0.307723 c -0.295582,0.36999 -0.345674,0.998326 -0.205295,1.932244 a 0.14813855,0.14813855 0 1 0 0.291983,-0.04508 c -0.136049,-0.901712 -0.05085,-1.457057 0.145248,-1.702523 0.09793,-0.122363 0.218277,-0.183196 0.393604,-0.198233 0.176622,-0.01433 0.406476,0.0265 0.681285,0.130243 a 0.14900999,0.14900999 0 1 0 0.104404,-0.279102 c -0.300588,-0.112365 -0.568229,-0.166029 -0.808684,-0.146014 z m -2.262863,1.817735 a 0.14813855,0.14813855 0 0 0 -0.0614,0.272662 c 0.109546,0.07158 0.232613,0.255498 0.356384,0.473758 0.123078,0.218982 0.250465,0.4666 0.427249,0.664116 0.784339,0.875951 1.896474,1.663876 2.604942,2.290066 a 0.14813855,0.14813855 0 1 0 0.195291,-0.221846 C 59.350842,66.862505 58.253046,66.080306 57.502356,65.243003 57.36278,65.087719 57.238908,64.855836 57.112323,64.631125 56.985737,64.40641 56.859695,64.183848 56.657891,64.053599 a 0.14813855,0.14813855 0 0 0 -0.09954,-0.02353 z m -3.22039,8.000913 a 0.14813855,0.14813855 0 0 0 -0.04086,0.007 c -0.719935,0.248328 -1.200145,1.062732 -1.74619,1.726136 a 0.14847551,0.14847551 0 1 0 0.229096,0.18893 c 0.552485,-0.672708 1.037699,-1.400518 1.583013,-1.610204 0.549616,0.141707 1.068451,0.354246 1.671755,1.249519 a 0.14813855,0.14813855 0 0 0 0.120367,0.06583 c 0.221793,0.0031 0.46014,-0.03005 0.672684,-0.03361 0.194744,-0.0035 0.343508,0.03078 0.450862,0.100195 0.136048,0.445133 0.111705,0.719224 0.08575,0.946084 a 0.14813855,0.14813855 0 0 0 0.03921,0.117358 c 0.453,0.488069 0.515265,0.857341 0.508125,1.238067 -1.598051,1.331101 -3.168159,2.636434 -6.500936,3.402175 -0.226932,0.0272 -0.407911,-0.04152 -0.597571,-0.164585 -0.190959,-0.123807 -0.379294,-0.300571 -0.593973,-0.451572 a 0.14813855,0.14813855 0 0 0 -0.130364,-0.0192 c -1.71828,0.543892 -3.373563,0.274094 -5.110425,-0.524569 a 0.14885419,0.14885419 0 1 0 -0.124427,0.269806 c 1.74833,0.803667 3.466581,1.076331 5.232084,0.545322 0.178788,0.130972 0.357087,0.293415 0.565359,0.427955 0.220981,0.143141 0.486619,0.251899 0.798646,0.213276 a 0.14813855,0.14813855 0 0 0 0.01355,-0.0022 c 3.435097,-0.785778 5.07894,-2.164108 6.697734,-3.512384 a 0.14813855,0.14813855 0 0 0 0.05301,-0.10736 c 0.01623,-0.430818 -0.08221,-0.921037 -0.561787,-1.46278 0.02705,-0.229015 0.07302,-0.551047 -0.100074,-1.069175 a 0.14813855,0.14813855 0 0 0 -0.04652,-0.06726 c -0.196098,-0.15744 -0.447265,-0.179622 -0.684881,-0.176052 -0.219089,0.0035 -0.429388,0.02863 -0.606851,0.03078 -0.634059,-0.896726 -1.256677,-1.180121 -1.833474,-1.323965 a 0.14813855,0.14813855 0 0 0 -0.04301,-0.0042 z m 5.365891,-10.784773 c -0.407181,-0.06657 -0.823693,0.114498 -1.120678,0.475188 -0.307753,0.373568 -0.395039,0.914596 -0.682746,1.43988 a 0.14861729,0.14861729 0 1 0 0.260472,0.143138 c 0.313459,-0.573233 0.423679,-1.118553 0.651233,-1.393362 0.243433,-0.294844 0.552484,-0.420083 0.844467,-0.372135 0.29128,0.04795 0.5854,0.269803 0.784364,0.744985 0.143085,0.341363 -0.0082,0.987591 -0.0082,1.759771 a 0.14813855,0.14813855 0 1 0 0.296254,0 c 0,-0.726379 0.193937,-1.371173 -0.01622,-1.874272 -0.2275,-0.543893 -0.602604,-0.855912 -1.009081,-0.922465 z m -2.297916,4.465627 c -0.417946,0.04652 -0.945381,0.235452 -1.610222,0.579675 a 0.14813855,0.14813855 0 0 0 0,0.0022 c -0.727076,0.377862 -1.60806,1.077049 -2.641427,1.797703 a 0.14813855,0.14813855 0 0 0 -0.05383,0.06799 c -0.469447,1.240214 -1.26812,2.070363 -1.691068,2.483288 a 0.14827985,0.14827985 0 1 0 0.207457,0.211839 c 0.425087,-0.413642 1.234499,-1.269554 1.731854,-2.53839 1.029097,-0.719224 1.910781,-1.409821 2.583491,-1.759774 0.646937,-0.335635 1.150029,-0.51097 1.505711,-0.551047 0.355682,-0.03867 0.538877,0.04009 0.64623,0.203237 0.107386,0.163181 0.139574,0.461592 0.06302,0.8781 -0.07653,0.416504 -0.257767,0.943218 -0.531708,1.551516 -0.221795,0.493081 -0.568955,0.71493 -0.947521,1.416263 a 0.14813855,0.14813855 0 0 0 -0.01355,0.03793 c -0.272669,1.192982 0.160937,2.327281 0.348513,3.396453 a 0.14813855,0.14813855 0 1 0 0.29055,-0.05008 c -0.193122,-1.102094 -0.5897,-2.18558 -0.349242,-3.264773 0.349242,-0.633346 0.692049,-0.858776 0.941785,-1.414831 0.28054,-0.622612 0.470202,-1.166501 0.553914,-1.62022 0.08305,-0.453004 0.06734,-0.825139 -0.107386,-1.092791 -0.176083,-0.267665 -0.508097,-0.380006 -0.926044,-0.33349 z m 1.029095,-8.594899 c -1.02696,-0.01921 -2.063223,0.309877 -2.865439,1.060586 -0.591865,0.553908 -0.97543,1.41841 -1.214454,2.443212 -1.754063,-0.294128 -5.350881,0.0078 -10.155012,3.885957 -1.978049,0.445129 -3.599685,1.388349 -4.615907,3.098742 -1.023387,1.72327 -1.434866,4.199406 -1.052004,7.678871 a 0.14830286,0.14830286 0 1 0 0.29485,-0.03222 c -0.379293,-3.444404 0.03437,-5.851117 1.011921,-7.499966 0.97757,-1.64598 2.520496,-2.549841 4.465626,-2.978515 a 0.14813855,0.14813855 0 0 0 0.06167,-0.02862 c 4.755472,-3.845158 8.265708,-4.114243 9.925997,-3.838718 -0.0522,0.281248 -0.161749,0.499521 -0.180413,0.815837 a 0.14841097,0.14841097 0 1 0 0.296284,0.01784 c 0.09168,-1.570843 0.624755,-2.657909 1.365439,-3.352086 0.740708,-0.694172 1.696071,-0.998323 2.657196,-0.980434 1.919352,0.03724 3.820828,1.368318 3.957529,3.465871 v 0.003 a 0.14813855,0.14813855 0 0 0 0,0.0035 0.14813855,0.14813855 0 0 0 0.0022,0.01 0.14813855,0.14813855 0 0 0 0,0.0015 0.14813855,0.14813855 0 0 0 0.0027,0.01433 c 0.0015,0.01214 0.24181,1.510009 0.443695,2.802465 a 0.14813855,0.14813855 0 0 0 -0.06436,0.176056 c 0.02434,0.0687 0.01623,0.105916 -0.0054,0.145275 a 0.29985534,0.29985534 0 0 1 -0.138221,0.11022 0.65624666,0.65624666 0 0 1 -0.478048,0.0086 c -0.23844,-0.106793 -0.410221,-0.248495 -0.577676,-0.368008 -0.167427,-0.11953 -0.35495,-0.228287 -0.578963,-0.180358 a 0.14813855,0.14813855 0 0 0 -0.0722,0.03937 c -0.254794,0.253334 -0.930318,0.634062 -1.513581,0.699902 -0.295553,0.03437 -0.579667,0.007 -0.794375,-0.143138 -0.213953,-0.150154 -0.386438,-0.432127 -0.434396,-0.978875 A 0.14813855,0.14813855 0 0 0 57.05083,63.083211 c -0.200428,-0.02299 -0.505256,-0.167454 -0.792209,-0.221848 -0.143083,-0.02863 -0.296284,-0.0358 -0.433687,0.04293 -0.136049,0.0787 -0.221793,0.236155 -0.250466,0.441552 -0.14038,0.7822 0.249112,1.492121 0.956825,2.221362 0.67271,0.693462 0.827992,0.914596 1.322512,1.195127 0.49449,0.280534 1.304605,0.615454 3.33491,1.585157 a 0.14813855,0.14813855 0 0 0 0.01355,0.0057 c 0.216112,0.078 0.435092,-0.02299 0.588238,-0.180357 0.152551,-0.157445 0.273375,-0.376427 0.375722,-0.61116 0.204754,-0.469463 0.329204,-0.985443 0.335641,-1.243792 0.0028,-0.118086 -0.02704,-0.333488 -0.07169,-0.666264 -0.04516,-0.33349 -0.108196,-0.761448 -0.178786,-1.22733 a 0.14813855,0.14813855 0 0 0 0,-0.0015 C 62.010962,62.839955 61.6839,60.843307 61.6839,60.843307 a 0.14813855,0.14813855 0 0 0 -0.01623,-0.04938 c -0.18395,-2.228613 -2.197052,-3.64273 -4.229467,-3.682091 z m -1.235932,6.040048 c 0.200425,0.03793 0.473771,0.153875 0.736409,0.201804 0.07302,0.508825 0.23613,0.894557 0.507395,1.083487 0.298419,0.209676 0.661241,0.236156 0.996879,0.197503 0.677013,-0.0773 1.3626,-0.461589 1.688201,-0.785777 l -0.07302,0.0401 c 0.103055,-0.02137 0.189064,0.023 0.342103,0.133104 0.153904,0.109491 0.35065,0.271945 0.629759,0.397184 0.228285,0.102354 0.500955,0.09087 0.720638,-0.0086 0.07169,-0.03222 0.120893,-0.09518 0.176086,-0.15101 0.01355,0.093 0.01893,0.115226 0.03218,0.207542 0.07088,0.464452 0.133077,0.893124 0.177436,1.22375 0.04517,0.330631 0.06951,0.583968 0.0687,0.619035 -0.0028,0.155283 -0.121716,0.699899 -0.310565,1.13215 -0.09385,0.216115 -0.207461,0.410065 -0.317032,0.522421 -0.109545,0.113054 -0.182575,0.141706 -0.274104,0.109492 -2.017405,-0.962521 -2.846129,-1.308893 -3.304133,-1.569389 -0.460165,-0.2612 -0.578233,-0.445129 -1.256676,-1.145031 -0.680584,-0.701331 -0.996882,-1.30462 -0.876654,-1.965164 a 0.14813855,0.14813855 0 0 0 0,-0.0057 c 0.02165,-0.154579 0.06302,-0.203236 0.105214,-0.22758 0.04164,-0.02434 0.119557,-0.03148 0.230447,-0.01 z m -12.91023,9.203192 a 0.14813855,0.14813855 0 0 0 -0.03921,0.0051 c -0.605442,0.164614 -1.006915,0.661255 -1.402684,1.107104 -0.669843,-0.422945 -1.313207,-0.505245 -1.915783,-0.501667 a 0.14813855,0.14813855 0 0 0 -0.100073,0.04009 c -0.364983,0.339213 -0.587538,0.860204 -0.636926,1.585153 -0.614017,0.08875 -1.217295,0.198233 -1.619499,0.570367 a 0.14813855,0.14813855 0 0 0 -0.04516,0.135981 c 0.372127,2.044599 1.243802,3.07942 2.362345,3.541728 1.118544,0.462307 2.452524,0.367841 3.775036,0.259769 a 0.14813855,0.14813855 0 0 0 0.126047,-0.0923 c 0.722102,-1.8193 0.953956,-3.184751 0.837325,-4.24677 -0.116575,-1.062015 -0.590404,-1.812727 -1.245235,-2.368787 a 0.14813855,0.14813855 0 0 0 -0.09657,-0.03723 z m -0.02731,0.344943 c 0.565383,0.508108 0.97113,1.147181 1.074914,2.092547 0.107387,0.972561 -0.112257,2.27432 -0.792237,4.014771 -1.284563,0.103757 -2.538373,0.171755 -3.538852,-0.243325 -1.001911,-0.414354 -1.771942,-1.327518 -2.144071,-3.213956 0.344947,-0.279104 0.871652,-0.4208 1.481396,-0.503104 a 0.14813855,0.14813855 0 0 0 0.127396,-0.141702 c 0.02731,-0.712067 0.240457,-1.137877 0.545316,-1.437017 0.591834,0.0022 1.161494,0.05941 1.786246,0.495225 a 0.14813855,0.14813855 0 0 0 0.193937,-0.02218 c 0.406475,-0.451568 0.787206,-0.876661 1.266684,-1.041262 z M 80.153751,55.500922 a 0.14813855,0.14813855 0 0 0 -0.138221,0.183194 c 0.0495,0.216845 -0.04868,0.482349 -0.167426,0.794368 -0.06655,0.174622 -0.0614,0.394321 -0.09793,0.596133 -0.172568,0 -0.244786,-0.05223 -0.303424,-0.152443 -0.06221,-0.108062 -0.08168,-0.254063 -0.160396,-0.388595 a 0.14833292,0.14833292 0 1 0 -0.256146,0.149575 c 0.02434,0.03791 0.06383,0.218982 0.160937,0.386448 0.08386,0.145274 0.281245,0.243324 0.515266,0.269073 6.78e-4,0.07515 -0.05003,0.132402 -0.03437,0.211111 0.32563,1.73186 0.826586,3.938911 0.384298,6.270484 a 0.14813855,0.14813855 0 0 0 -0.0028,0.04009 c 0.286277,3.334904 0.666976,5.219917 1.187975,6.477304 0.484484,1.169364 1.106399,1.784819 1.836344,2.483289 0.27554,1.932239 0.133077,1.70896 -0.271941,3.22756 a 0.14813855,0.14813855 0 1 0 0.286253,0.07514 c 0.367855,-1.383346 0.493816,-1.528617 0.295576,-3.070116 a 2.2614388,2.2614388 0 0 0 0.88165,0.412925 c 0.420825,0.0916 0.881689,0.105916 1.283158,-0.01866 a 0.14813855,0.14813855 0 0 0 0.103852,-0.160312 c -0.252632,-1.939398 0.09656,-3.96181 0.04438,-7.693186 -0.02439,-1.775515 -0.571795,-5.192718 -1.561535,-6.860172 a 0.14813855,0.14813855 0 1 0 -0.25398,0.15028 c 0.921034,1.55295 1.495698,4.997351 1.519312,6.714183 0.05003,3.619732 -0.269936,5.615665 -0.0452,7.56437 -0.314889,0.07444 -0.682015,0.08588 -1.027661,0.01079 -0.379935,-0.08305 -0.721285,-0.2455 -0.895898,-0.412254 C 82.629277,71.9929 82.013825,71.428969 81.5136,70.221677 81.013348,69.014384 80.633351,67.154422 80.347804,63.832397 l -0.0022,0.04077 c 0.455865,-2.405285 -0.06087,-4.658852 -0.385029,-6.380693 -0.05734,-0.302718 0.04516,-0.601143 0.162559,-0.909585 0.117385,-0.309159 0.257497,-0.628339 0.180408,-0.967552 a 0.14813855,0.14813855 0 0 0 -0.150196,-0.11734 z M 37.68021,75.123911 a 0.14813855,0.14813855 0 0 0 -0.104419,0.03723 c -1.021953,0.880246 -2.144797,0.686303 -3.332042,0.615454 a 0.14813855,0.14813855 0 0 0 -0.131714,0.231884 c 0.460871,0.667696 0.892422,1.403381 1.613063,1.885724 0.720667,0.482344 1.722552,0.687019 3.263342,0.331343 A 0.14813855,0.14813855 0 1 0 38.9211,77.937858 c -1.488532,0.343508 -2.383091,0.14457 -3.031458,-0.289837 -0.563221,-0.37645 -0.930343,-0.97902 -1.327543,-1.566567 1.069908,0.07657 2.192753,0.179628 3.207543,-0.694175 a 0.14813855,0.14813855 0 0 0 -0.08818,-0.263368 z M 71.816504,56.925054 a 1.1929806,1.1929806 0 0 0 -0.698463,0.07657 c -0.257766,0.109492 -0.425816,0.326332 -0.521729,0.576095 -0.09522,0.249763 -0.127396,0.536732 -0.129555,0.828715 -0.0054,0.584685 0.114416,1.197992 0.168782,1.537209 a 0.14885419,0.14885419 0 1 0 0.293417,-0.04652 19.99441,19.99441 0 0 1 -0.116036,-1.035541 c 0.226122,-0.352812 0.601145,-0.569654 0.903164,-0.531009 0.152548,0.0192 0.293414,0.09305 0.415077,0.259771 0.121716,0.166749 0.221792,0.429387 0.26047,0.816551 a 0.14813855,0.14813855 0 1 0 0.293392,-0.02793 c -0.04219,-0.422951 -0.150388,-0.739264 -0.314867,-0.96326 a 0.90672237,0.90672237 0 0 0 -0.616184,-0.378561 c -0.364984,-0.04652 -0.707062,0.162453 -0.981139,0.455866 0,-0.03148 -0.01079,-0.0544 -0.01079,-0.08588 0.0022,-0.270514 0.03436,-0.525284 0.110895,-0.72352 0.076,-0.198234 0.18609,-0.336352 0.359954,-0.410064 0.375725,-0.158151 0.699191,-0.08013 1.0427,0.193233 0.34351,0.273375 0.684154,0.751425 0.998316,1.361155 a 0.14823375,0.14823375 0 1 0 0.263449,-0.135964 c -0.324904,-0.629749 -0.676283,-1.140006 -1.07635,-1.45775 a 1.494267,1.494267 0 0 0 -0.644033,-0.30988 z m 4.726826,0.784349 c -0.407912,-0.007 -0.786501,0.03936 -1.019059,0.250462 a 0.14813855,0.14813855 0 1 0 0.199073,0.218981 c 0.112258,-0.101612 0.442965,-0.179625 0.815821,-0.173187 0.373561,0.0065 0.790074,0.08229 1.08779,0.1968 0.538878,0.206107 0.812252,0.372136 1.141452,0.694178 0.329203,0.32204 0.708497,0.810108 1.413395,1.625943 a 0.14820562,0.14820562 0 1 0 0.224769,-0.193231 C 79.706677,59.517092 79.328086,59.031883 78.975274,58.685513 78.622458,58.33914 78.292553,58.139476 77.734364,57.925496 A 3.6497903,3.6497903 0 0 0 76.544953,57.70938 Z m -7.886414,0.833011 c -0.305559,-0.04721 -0.669113,0.06799 -0.984005,0.302 -0.314163,0.233289 -0.576097,0.59971 -0.626188,1.070606 a 0.14813855,0.14813855 0 1 0 0.293414,0.03005 c 0.04003,-0.378576 0.250466,-0.670559 0.510967,-0.863784 0.259659,-0.193231 0.570386,-0.274808 0.761453,-0.245461 0.230452,0.03505 0.39217,0.09305 0.585401,0.300573 0.193122,0.206835 0.409345,0.573949 0.679852,1.213019 a 0.14813855,0.14813855 0 1 0 0.271941,-0.114497 c -0.275513,-0.654108 -0.499496,-1.049144 -0.73495,-1.301767 -0.235587,-0.252629 -0.490947,-0.350667 -0.757885,-0.391457 z m 5.827522,0.129528 c -0.171755,-0.01866 -0.375021,0.04152 -0.556082,0.203972 a 0.14850314,0.14850314 0 1 0 0.198261,0.221143 c 0.12741,-0.114497 0.243434,-0.138842 0.326338,-0.130243 0.07088,0.0078 0.09439,0.04009 0.104418,0.0551 -0.154713,2.066068 -2.174118,4.701791 -3.508071,5.98065 a 0.14813855,0.14813855 0 1 0 0.205294,0.213271 c 1.379746,-1.322513 3.46658,-3.973974 3.608988,-6.218242 a 0.14813855,0.14813855 0 0 0 -0.0054,-0.05009 c -0.04647,-0.162459 -0.200399,-0.256937 -0.37283,-0.275528 z m -5.877613,1.142172 a 0.8015226,0.8015226 0 0 0 -0.635495,0.196097 c -0.174729,0.159585 -0.285545,0.407917 -0.307726,0.729959 a 0.14852734,0.14852734 0 1 0 0.296285,0.02137 c 0.01893,-0.266233 0.103055,-0.43368 0.211246,-0.532439 a 0.49164823,0.49164823 0 0 1 0.402907,-0.120219 c 0.314892,0.03578 0.697025,0.318462 0.860909,0.831582 a 0.14813855,0.14813855 0 1 0 0.281978,-0.08944 C 69.522184,60.242015 69.064261,59.864866 68.60769,59.813341 Z m 5.308658,2.307954 a 0.14813855,0.14813855 0 0 0 -0.145249,0.190366 c 0.372126,1.357579 1.162929,2.359484 1.91078,3.104468 a 0.14826899,0.14826899 0 1 0 0.209622,-0.209676 c -0.727809,-0.724961 -1.47996,-1.682489 -1.833477,-2.972801 a 0.14813855,0.14813855 0 0 0 -0.140916,-0.111663 z m 0.694888,-4.971586 a 0.14813855,0.14813855 0 0 0 -0.03517,0.0042 c -0.362823,0.08803 -0.56536,0.380725 -0.724238,0.677719 -0.158232,0.297706 -0.289822,0.616886 -0.497359,0.845891 -0.915305,1.00906 -1.84922,1.353285 -2.964921,1.038403 a 0.14813855,0.14813855 0 0 0 -0.167427,0.06583 c -0.47948,0.795082 -0.956093,1.532196 -1.621664,1.717549 a 0.14813855,0.14813855 0 0 0 -0.0026,0.0016 c -0.02869,0.0078 -0.05572,0.0057 -0.103851,-0.01921 A 0.64551194,0.64551194 0 0 1 68.318429,61.332239 C 68.191073,61.18555 68.05718,60.952967 67.946338,60.693907 a 0.14813855,0.14813855 0 1 0 -0.27194,0.115914 c 0.118208,0.278386 0.260473,0.532439 0.420786,0.717077 0.0795,0.09304 0.164724,0.167454 0.261284,0.218278 0.04867,0.02569 0.107387,0.01295 0.163101,0.02139 0.117385,0.53459 0.132267,1.005484 0.413645,1.52862 0.297717,0.553192 0.878816,1.140024 2.13836,1.940115 a 0.14813855,0.14813855 0 0 0 0.183116,-0.01784 c 0.928177,-0.911732 2.634988,-2.604233 3.69987,-4.21873 0.532439,-0.807246 0.911031,-1.593025 0.935346,-2.283622 0.01355,-0.34566 -0.06951,-0.671274 -0.273372,-0.940359 -0.203943,-0.269075 -0.522408,-0.47805 -0.961829,-0.616171 a 0.14813855,0.14813855 0 0 0 -0.04516,-0.007 z m 0.0054,0.32204 c 0.357118,0.123092 0.615454,0.284112 0.764325,0.480199 0.158771,0.209676 0.223959,0.457294 0.21395,0.751425 -0.02165,0.58683 -0.367853,1.346128 -0.885986,2.132623 -1.011189,1.532197 -2.630716,3.151702 -3.571066,4.076315 -1.150028,-0.744272 -1.687496,-1.28673 -1.941533,-1.758341 -0.248301,-0.460874 -0.263989,-0.90171 -0.387166,-1.459201 0.708494,-0.273374 1.186542,-0.970412 1.624504,-1.696078 1.162226,0.279102 2.212772,-0.100195 3.140978,-1.122848 0.255603,-0.281249 0.393601,-0.626189 0.541016,-0.904575 0.139561,-0.261933 0.282675,-0.430818 0.500953,-0.500234 z m 0.03354,16.867756 a 0.14813855,0.14813855 0 0 0 -0.133077,0.196801 c 0.09657,0.284828 0.284113,0.495941 0.517429,0.642649 0.233155,0.146708 0.510234,0.236158 0.807952,0.300572 0.594704,0.128826 1.276719,0.161016 1.850649,0.290549 0.178789,0.0408 0.293419,0.156012 0.426548,0.304868 0.133076,0.148844 0.277648,0.333491 0.518105,0.427954 a 0.14813855,0.14813855 0 1 0 0.107387,-0.275525 C 78.591718,76.168755 78.478657,76.03492 78.339225,75.878917 78.200469,75.722202 78.028634,75.543279 77.756692,75.481733 77.145515,75.343597 76.462798,75.312116 75.904608,75.19118 75.625499,75.130356 75.380039,75.04734 75.19181,74.928542 a 0.89097832,0.89097832 0 0 1 -0.395705,-0.486636 0.14813855,0.14813855 0 0 0 -0.146604,-0.102354 z m 9.611123,1.448466 c -1.080615,0.08086 -1.99235,0.377146 -2.855424,0.721369 a 0.14813855,0.14813855 0 1 0 0.108722,0.275528 c 1.703236,-0.679867 3.508092,-1.16078 6.512375,-0.138138 a 0.14846306,0.14846306 0 1 0 0.09518,-0.281247 c -1.53283,-0.521691 -2.7802,-0.656949 -3.860826,-0.576796 z M 70.412764,52.744968 a 4.8699654,4.8699654 0 0 0 -2.950613,1.457771 c -1.50641,1.568697 -1.874966,4.165055 0.190961,6.568194 -0.797943,5.04959 -2.050321,7.499959 -3.31557,10.849177 a 0.14813855,0.14813855 0 0 0 0.09087,0.193232 c 1.49213,0.497374 3.08872,0.09805 4.53433,-1.238066 1.445607,-1.336111 2.759516,-3.602557 3.761428,-6.87377 a 0.14816493,0.14816493 0 1 0 -0.283381,-0.08661 c -0.991173,3.239011 -2.290074,5.458942 -3.679122,6.742808 -1.335415,1.233773 -2.735205,1.563686 -4.075595,1.179382 1.239475,-3.249743 2.483276,-5.744482 3.270482,-10.763302 a 0.14813855,0.14813855 0 0 0 -0.03518,-0.121661 c -2.056756,-2.331573 -1.673893,-4.756179 -0.24776,-6.242576 1.426295,-1.486393 3.906002,-2.018119 6.127347,-0.458012 a 0.14841746,0.14841746 0 1 0 0.170946,-0.242595 c -1.166471,-0.819407 -2.413844,-1.092067 -3.560302,-0.96182 z m 6.598254,11.657861 c -0.518132,0.03437 -0.963262,0.312024 -1.310341,0.785782 -0.347107,0.473756 -0.609012,1.14217 -0.803678,1.997365 -0.382863,1.68248 -0.49522,4.107801 -0.3886,7.170764 -1.946563,0.18893 -2.344438,0.254062 -3.446535,0.801524 -0.231262,0.114497 -0.448727,0.333489 -0.612611,0.558201 a 1.6187895,1.6187895 0 0 0 -0.193123,0.336353 c -0.04299,0.108776 -0.07735,0.21468 -0.03001,0.334924 a 0.14813855,0.14813855 0 0 0 0.150386,0.09375 c 0.386461,-0.03365 0.957554,-0.103758 1.50073,-0.132402 0.533145,-0.02862 1.036968,0 1.265253,0.09731 0.03571,0.0358 0.05653,0.06297 0.06301,0.115927 0.0082,0.06228 -0.0022,0.15815 -0.01893,0.281248 -0.03436,0.246191 -0.08952,0.599712 0.01079,1.072036 a 0.14813855,0.14813855 0 0 0 0.171754,0.114497 c 0.418649,-0.0773 0.815822,-0.355676 1.197986,-0.551047 0.190957,-0.09731 0.376426,-0.173891 0.546746,-0.203239 a 0.69703841,0.69703841 0 0 1 0.457301,0.0644 c 0.345648,0.777907 0.817986,1.021943 1.227332,1.22089 a 0.14813855,0.14813855 0 0 0 0.123875,0.0031 c 0.847332,-0.377144 1.625233,-0.933199 1.867825,-2.081094 0.542475,0.02862 0.862374,-0.108062 1.293897,-0.314887 0.31703,0.276957 0.715635,0.442271 1.164362,0.536021 -0.339208,0.509541 -0.711362,1.042693 -0.687017,1.728996 a 0.14813855,0.14813855 0 0 0 0.196908,0.135979 c 0.56606,-0.19537 1.135015,-0.372136 1.614494,-0.481629 0.473045,-0.10736 0.860916,-0.135258 1.037674,-0.08518 0.126586,0.253331 0.300584,0.463023 0.522427,0.598278 0.255604,0.156717 0.538874,0.263367 0.794375,0.38287 a 0.14813855,0.14813855 0 0 0 0.16689,-0.0265 c 0.276241,-0.266937 0.621155,-0.495942 0.898823,-0.923182 0.794375,0.269074 1.777679,0.573949 2.620714,0.307727 a 0.14813855,0.14813855 0 0 0 0.101679,-0.125224 c 0.04224,-0.415076 0.05567,-0.900282 -0.2483,-1.588016 1.071322,-0.04722 2.134059,-0.112352 3.037195,-0.390029 0.958962,-0.294845 1.757636,-0.825136 2.191296,-1.76979 a 0.14827898,0.14827898 0 1 0 -0.269671,-0.123119 c -0.394299,0.858774 -1.100662,1.331102 -2.010956,1.610205 -0.908875,0.279815 -2.012374,0.354244 -3.146688,0.400761 a 0.14813855,0.14813855 0 0 0 -0.126046,0.216114 c 0.359983,0.692745 0.326334,1.07347 0.283409,1.488542 -0.726396,0.183926 -1.654583,-0.07013 -2.423904,-0.332775 a 0.14813855,0.14813855 0 0 0 -0.177429,0.06941 c -0.226129,0.419369 -0.546025,0.586831 -0.86522,0.873089 -0.236124,-0.107359 -0.476615,-0.203237 -0.672711,-0.323471 -0.22179,-0.135964 -0.390026,-0.294846 -0.479473,-0.539596 a 0.14813855,0.14813855 0 0 0 -0.09601,-0.09091 c -0.296988,-0.09018 -0.707064,-0.03222 -1.205155,0.08158 -0.422219,0.09589 -0.912437,0.254062 -1.397649,0.416509 0.06086,-0.527432 0.35138,-0.994749 0.675576,-1.488545 A 0.14813855,0.14813855 0 0 0 81.47844,76.49808 c -0.531729,-0.06941 -0.951079,-0.26764 -1.286015,-0.586828 a 0.14813855,0.14813855 0 0 0 -0.164452,-0.02862 c -0.531005,0.249763 -0.702762,0.399334 -1.32108,0.33349 a 0.14813855,0.14813855 0 0 0 -0.162556,0.123106 c -0.186091,1.094934 -0.865943,1.545079 -1.684632,1.917928 -0.407912,-0.196095 -0.762159,-0.349948 -1.06488,-1.099945 a 0.14813855,0.14813855 0 0 0 -0.06734,-0.0759 1.010491,1.010491 0 0 0 -0.665543,-0.09805 c -0.217467,0.03793 -0.427252,0.128826 -0.629761,0.232588 -0.344239,0.175324 -0.658401,0.347804 -0.946084,0.4437 a 3.3134369,3.3134369 0 0 1 -0.0082,-0.775043 c 0.01622,-0.125238 0.03518,-0.239025 0.02166,-0.356392 a 0.50810807,0.50810807 0 0 0 -0.178245,-0.327049 0.14813855,0.14813855 0 0 0 -0.03354,-0.02137 c -0.342078,-0.157447 -0.870242,-0.155282 -1.427,-0.125224 -0.490946,0.02569 -0.960394,0.08158 -1.330383,0.117358 l 0.0015,-0.007 c 0.03083,-0.07657 0.08735,-0.17462 0.157419,-0.272658 0.143085,-0.195371 0.349219,-0.391459 0.503797,-0.468032 1.124277,-0.558204 1.362598,-0.585401 3.477319,-0.788644 a 0.14813855,0.14813855 0 0 0 0.133063,-0.153855 c -0.116036,-3.120213 0.0054,-5.564139 0.382864,-7.228015 0.189066,-0.831579 0.443722,-1.464926 0.753584,-1.889303 0.309889,-0.422232 0.663407,-0.636926 1.091362,-0.664833 a 0.14813855,0.14813855 0 1 0 -0.01894,-0.294847 z m 22.206458,1.255959 -0.04439,0.622608 -3.154553,-0.229015 0.04516,-0.622612 3.154552,0.229016 m -0.193125,2.11831 -0.0822,0.658392 -3.128063,-0.468747 0.07167,-0.578957 3.139527,0.388597 m -0.314877,2.103996 -0.123875,0.651238 -3.100187,-0.625475 0.108736,-0.572518 3.115191,0.546039 m -0.445833,2.11831 -0.153902,0.604722 -3.065831,-0.780054 0.1539,-0.604005 3.065833,0.780054 m -0.565358,2.048891 -0.200415,0.631916 -2.998582,-1.007626 0.176089,-0.556773 3.022181,0.932483 m -0.683456,2.011681 -0.239635,0.618316 -2.944888,-1.155764 0.211797,-0.543894 2.97278,1.081342 m -0.821552,2.001658 -0.273373,0.603287 -2.851858,-1.369744 0.241265,-0.532439 2.884053,1.298896 m -0.921046,1.913634 -0.311289,0.584683 -2.780995,-1.507865 0.275505,-0.515266 2.816779,1.438448 m -1.054145,1.887872 -0.343507,0.565362 -2.66433,-1.706101 0.303422,-0.500949 2.704415,1.641688 m -1.145013,1.787682 -0.377858,0.542459 -2.578462,-1.832051 0.334901,-0.479483 2.621419,1.769075 m -1.27099,1.746892 -0.385029,0.490216 -2.486843,-1.953712 0.384993,-0.490935 2.486879,1.954431 m -1.348995,1.638832 -0.440125,0.493787 -2.340162,-2.129759 0.389329,-0.43654 2.390259,2.071793 m -1.468522,1.582291 -0.440823,0.440828 -2.236386,-2.237813 0.440828,-0.440835 2.236381,2.23782 m -1.53435,1.465641 -0.495218,0.437977 -2.070365,-2.392404 0.438695,-0.38645 2.126888,2.340877 m -1.645979,1.396938 -0.490924,0.385015 -1.953696,-2.487583 0.49022,-0.385009 1.953698,2.487577 m -1.697508,1.273849 -0.543904,0.374999 -1.770507,-2.621412 0.481643,-0.332775 1.832037,2.578477 m -1.799823,1.191545 -0.53317,0.324186 -1.643112,-2.702994 0.533144,-0.324194 1.643138,2.703002 m -1.837777,1.062019 -0.584694,0.309156 -1.444176,-2.814627 0.518131,-0.273376 1.510008,2.778847 m -1.929386,0.969698 -0.567496,0.257638 -1.306068,-2.881909 0.567523,-0.257639 1.306041,2.88191 m -1.952273,0.834437 -0.618315,0.236889 -1.091361,-2.968502 0.545315,-0.209663 1.164361,2.941289 m -2.034578,0.732107 -0.594703,0.186065 -0.944652,-3.018595 0.594001,-0.186066 0.944651,3.020021 m -2.039608,0.593998 -0.6412,0.160306 -0.719233,-3.080846 0.566789,-0.143146 0.794347,3.062952 m -2.070363,0.473762 -0.651965,0.120218 -0.565357,-3.113049 0.575394,-0.104473 0.641928,3.097312 m -2.136198,0.352096 -0.658402,0.08379 -0.3292,-3.145981 0.579693,-0.07514 0.407909,3.137386 m -2.114016,0.220415 -0.661975,0.04288 -0.170403,-3.159572 0.582536,-0.03722 0.250463,3.153844 m -2.164108,0.09589 -0.623324,0.0019 -0.01079,-3.163165 0.622591,-0.002 0.01079,3.163148 m -2.125457,-0.03499 -0.662677,-0.03433 0.229095,-3.155279 0.582535,0.0301 -0.150388,3.159556 m -2.119023,-0.157439 -0.659131,-0.07448 0.388596,-3.139527 0.579696,0.06587 -0.309161,3.148828 m -2.146934,-0.286251 -0.614045,-0.10736 0.546775,-3.117344 0.613287,0.107346 -0.546017,3.116629 m -2.086105,-0.410059 -0.645529,-0.151711 0.780066,-3.065825 0.568223,0.133103 -0.70276,3.084426 m -2.058219,-0.529572 -0.634058,-0.192507 0.931776,-3.022874 0.558216,0.169618 -0.855934,3.045066 m -2.058894,-0.666978 -0.622618,-0.227587 1.155057,-2.944877 0.549616,0.200376 -1.082055,2.972081 m -1.97718,-0.775021 -0.606879,-0.266243 1.298901,-2.884042 0.535306,0.234725 -1.227328,2.915545 m -1.963009,-0.908873 -0.555351,-0.282678 1.438438,-2.817502 0.555353,0.283399 -1.43844,2.817494 m -1.869262,-1.007621 -0.569659,-0.336368 1.640975,-2.705127 0.503094,0.2977 -1.57441,2.743795 m -1.839212,-1.135737 -0.515993,-0.34923 1.769805,-2.622133 0.516697,0.34924 -1.769805,2.622123 m -1.73329,-1.223757 -0.526003,-0.40219 1.953705,-2.487575 0.465172,0.355669 -1.892874,2.533382 m -1.688932,-1.345408 -0.472311,-0.407921 2.071796,-2.392405 0.470878,0.407921 -2.071066,2.391678 m -1.57441,-1.42126 -0.474477,-0.461598 2.237087,-2.236387 0.420084,0.407919 -2.182694,2.290066 m -1.517178,-1.537209 -0.419379,-0.461592 2.341601,-2.127608 0.41865,0.461592 -2.340167,2.127608 m -1.395489,-1.598752 -0.415809,-0.513831 2.486876,-1.953713 0.368555,0.454441 -2.440352,2.013103 m -1.323947,-1.706097 -0.360682,-0.508109 2.577755,-1.833484 0.361416,0.508109 -2.577759,1.833484 m -1.195142,-1.753327 -0.352081,-0.559641 2.702256,-1.643833 0.312025,0.495226 -2.6622,1.708248 m -1.112105,-1.852093 -0.298421,-0.54747 2.778858,-1.511439 0.297692,0.547466 -2.778129,1.511443 m -0.978298,-1.883578 -0.28268,-0.59828 2.880478,-1.306767 0.250464,0.529575 -2.848291,1.375472 m -0.868078,-1.937252 -0.245326,-0.615454 2.941309,-1.164356 0.21476,0.543891 -2.910555,1.235919 m -0.76072,-2.024565 -0.209622,-0.628336 3.018585,-0.944652 0.185279,0.553911 -2.994269,1.019077 M 29.00537,73.0535 l -0.16878,-0.640503 3.061538,-0.794363 0.148764,0.565357 -3.041495,0.869509 m -0.512396,-2.101858 -0.133077,-0.649803 3.112335,-0.564648 0.118208,0.572519 -3.097295,0.641932 m -0.380021,-2.091071 -0.09169,-0.656251 3.136675,-0.407916 0.08087,0.577525 -3.125209,0.486642 m -0.258307,-2.150515 -0.05003,-0.62118 3.153852,-0.250464 0.0495,0.622612 -3.153151,0.250465 m -0.123874,-2.124024 -0.01355,-0.662685 3.163159,-0.01079 0.01355,0.583249 -3.161724,0.09018 m 0,-2.125464 0.02705,-0.663406 3.158855,0.150278 -0.02434,0.581819 -3.163158,-0.0694 m 0.128745,-2.162679 0.06085,-0.620466 3.148116,0.309159 -0.06085,0.620464 -3.148847,-0.309157 m 0.253442,-2.111079 0.102246,-0.655528 3.115929,0.546749 -0.09008,0.57681 -3.128102,-0.468031 m 0.373595,-2.092547 0.143082,-0.64766 3.084447,0.702764 -0.126586,0.569655 -3.100893,-0.624759 m 0.51026,-2.103998 0.16878,-0.601142 3.044336,0.856626 -0.16824,0.601146 -3.045065,-0.857346 m 0.624025,-2.03243 0.219631,-0.623326 2.972061,1.082053 -0.193123,0.551047 -2.998569,-1.00763 m 0.757886,-2.027421 0.241808,-0.574665 2.914828,1.228047 -0.241809,0.574666 -2.9148,-1.228048 m 0.864481,-1.939397 0.291983,-0.593987 2.816779,1.438447 -0.257766,0.524566 -2.851129,-1.369745 m 0.97543,-1.886438 0.329202,-0.574664 2.743073,1.575135 -0.29128,0.508108 -2.780995,-1.508579 m 1.109239,-1.85352 0.362118,-0.555343 2.621411,1.769792 -0.319166,0.490931 -2.663634,-1.706098 m 1.194413,-1.75548 0.395037,-0.529575 2.533371,1.893596 -0.35065,0.468748 -2.577758,-1.83205 m 1.322513,-1.708245 0.424383,-0.508111 2.390231,2.072511 -0.374992,0.449426 -2.440352,-2.013826 m 1.395515,-1.599468 0.454434,-0.47948 2.289342,2.182716 -0.40361,0.425093 -2.340166,-2.128329 m 1.515741,-1.538635 0.480915,-0.453006 2.126892,2.341591 -0.425815,0.402193 -2.182722,-2.290064 m 1.574437,-1.421989 0.508098,-0.422228 2.013834,2.440348 -0.450865,0.373569 -2.070361,-2.391689 m 1.687498,-1.347557 0.531709,-0.393607 1.832069,2.578471 -0.470174,0.349233 -1.893604,-2.533383 m 1.731856,-1.225898 0.555351,-0.359255 1.707512,2.662916 -0.491653,0.317748 -1.77121,-2.622124 m 1.836341,-1.137877 0.574663,-0.327052 1.511444,2.779567 -0.508099,0.289835 -1.578008,-2.74092 m 1.866395,-1.011206 0.594002,-0.290553 1.375472,2.84827 -0.5253,0.257632 -1.444174,-2.815349 m 1.959438,-0.911733 0.610447,-0.256197 1.164365,2.941298 -0.53888,0.227582 -1.235932,-2.912674 m 1.975183,-0.779336 0.625484,-0.217546 1.019088,2.994973 -0.552483,0.191799 -1.092089,-2.969212 m 2.056055,-0.669844 0.599706,-0.171757 0.870243,3.041492 -0.599706,0.171756 -0.870243,-3.041491 m 2.056079,-0.535323 0.646933,-0.141706 0.642662,3.09731 -0.57109,0.124523 -0.718505,-3.080853 m 2.123324,-0.419368 0.615448,-0.09589 0.48665,3.12594 -0.615451,0.09589 -0.486647,-3.12594 m 2.106147,-0.282681 0.659809,-0.0644 0.250465,3.153852 -0.5811,0.05725 -0.329202,-3.146692 m 2.119754,-0.160314 0.662674,-0.02139 0.09089,3.161721 -0.583236,0.01867 -0.170402,-3.158859 m 2.165543,-0.03078 0.622618,0.01433 -0.0687,3.163154 -0.622618,-0.01433 0.0687,-3.163153 m 2.124053,0.09518 0.66054,0.05366 -0.307727,3.14884 -0.581829,-0.04722 0.2291,-3.155993 m 2.113986,0.216843 0.655538,0.09518 -0.465171,3.128799 -0.576796,-0.08375 0.386429,-3.14025 m 2.135497,0.350666 0.649801,0.131673 -0.697027,3.085861 -0.572526,-0.114497 0.619752,-3.102325 m 2.072499,0.468035 0.639793,0.171755 -0.848739,3.047217 -0.563949,-0.151711 0.772895,-3.067256 m 2.07753,0.601143 0.591838,0.197533 -0.999046,3.001413 -0.591107,-0.196099 0.99688,-3.002845 m 1.999526,0.715645 0.614718,0.245461 -1.216591,2.920546 -0.541744,-0.217545 1.143617,-2.948459 m 1.989488,0.845177 0.563221,0.267639 -1.356161,2.857571 -0.563219,-0.266938 1.356864,-2.859001 m 1.897903,0.950377 0.579666,0.318462 -1.560101,2.751655 -0.512399,-0.281247 1.492834,-2.78887 m 1.872149,1.077694 0.526707,0.333493 -1.689634,2.674364 -0.527439,-0.333491 1.690366,-2.674366 m 1.769774,1.170794 0.536743,0.385019 -1.876426,2.546265 -0.475911,-0.341361 1.815594,-2.590636 m 1.728284,1.293887 0.48378,0.393603 -1.99665,2.454661 -0.48305,-0.393605 1.99592,-2.454659 m 1.617366,1.372606 0.486649,0.445847 -2.164117,2.307241 -0.432251,-0.395751 2.109719,-2.357337 m 1.561538,1.489256 0.433679,0.447995 -2.270735,2.202041 -0.433686,-0.447278 2.270742,-2.202758 m 1.44274,1.554382 0.430822,0.500953 -2.421125,2.03681 -0.381431,-0.44513 2.37166,-2.092548 m 1.374032,1.664591 0.377859,0.495229 -2.514058,1.920073 -0.379287,-0.495228 2.514782,-1.920074 m 1.248783,1.713969 0.368559,0.5489 -2.643592,1.737588 -0.326339,-0.486639 2.601372,-1.799849 m 1.1665,1.81774 0.317053,0.536734 -2.723033,1.610202 -0.317028,-0.536736 2.722306,-1.6102 m 1.03696,1.849943 0.300585,0.589691 -2.831115,1.411254 -0.265613,-0.522421 2.796033,-1.478524 m 0.941087,1.944409 0.250467,0.570368 -2.89479,1.273849 -0.250466,-0.570371 2.894789,-1.273846 m 0.808678,1.962296 0.227473,0.621184 -2.979954,1.061299 -0.200429,-0.549614 2.952747,-1.132869 m 0.70133,2.043883 0.180952,0.596848 -3.027892,0.916026 -0.180402,-0.596847 3.027152,-0.916027 m 0.566799,2.046747 0.15174,0.644795 -3.08657,0.690598 -0.133872,-0.568936 3.068669,-0.765742 m 0.452313,2.114732 0.106024,0.614024 -3.117373,0.538165 -0.106024,-0.614023 3.117364,-0.538166 m 0.314875,2.101135 0.07353,0.658397 -3.148835,0.304861 -0.06439,-0.579671 3.139517,-0.383587 m 0.193125,2.116162 0.03217,0.661971 -3.159566,0.148141 -0.02702,-0.583964 3.154553,-0.226149 m 0.06386,2.163392 -0.0057,0.663406 -3.161711,-0.08944 0.002,-0.583966 3.163149,0.01 m -62.51068,-10.03334 c -0.03651,0 -0.03218,-0.04152 -0.04299,-0.07158 0.289118,0.313451 0.679853,0.951806 0.281247,1.352568 -0.02704,0.18966 0.117384,0.178921 0.118207,0.33635 -0.206107,0.300573 -0.355682,0.556058 -0.143085,0.989023 -0.275538,0.01079 -0.374993,-0.16602 -0.599709,-0.198936 -0.01355,0.472324 0.599709,0.598279 0.921038,0.831577 -0.09304,0.549617 0.134426,1.260969 -0.295577,1.640977 0.08006,0.317031 0.185277,0.760012 0.08006,1.061301 -0.422246,-0.235452 -0.913899,-0.395036 -1.33682,-0.629769 0.123875,-0.118086 0.217466,0.124522 0.417917,0.06227 0.110085,-0.196099 0.114416,-0.493079 0.26399,-0.657678 -0.03217,-0.264801 -0.288385,-0.294845 -0.325605,-0.553195 0.418649,-0.149574 0.593975,0.293415 0.948953,0.336354 0.601143,-0.679863 -0.77506,-0.665549 -0.943244,-1.132152 0.415079,0.02862 0.588266,0.33063 1.029122,0.334208 0.250465,-0.606868 -0.86021,-0.672706 -1.208018,-1.009062 0.103056,-0.271226 -0.0054,-0.369986 -0.05788,-0.641933 0.400744,-0.197502 0.508097,0.221848 0.827993,0.229018 -0.2483,-0.499542 -1.057712,-0.767198 -0.880953,-1.478547 0.300557,-0.17319 0.803677,0.273375 1.019086,0.186061 0.357821,-0.153145 0.04436,-0.638353 -0.07383,-0.986873 z m -0.708469,0.980438 c -0.205295,0.4437 0.310591,0.721369 0.70633,0.765736 0.08735,-0.466598 -0.339209,-0.689166 -0.70633,-0.765736 z m 0.885251,4.169346 c -0.128745,-0.590409 -0.80511,-0.07158 -0.52243,0.288407 0.06653,0.07158 0.253439,0.09875 0.419377,0.05439 0.07573,-0.121661 0.137404,-0.177492 0.103056,-0.342793 z m -2.041744,-1.998081 c -0.07223,-0.234019 -0.281976,-0.596132 -0.107387,-0.870223 0.696323,-0.324904 0.768623,1.06488 0.107387,0.870223 z m 0.0787,-0.765025 c -0.04138,0.125224 -0.114402,0.355674 -0.0082,0.495943 0.105215,-0.007 0.245594,0.0086 0.28841,-0.04937 0.09439,-0.198938 0.04734,-0.561782 -0.279108,-0.446562 z M 78.09312,50.945285 c -2.000226,0.08875 -3.882364,0.869508 -5.321532,2.200609 a 0.14839528,0.14839528 0 1 0 0.200965,0.218277 c 2.773124,-2.566304 7.249489,-3.026464 10.978007,-0.234722 3.722766,2.791733 6.699161,8.859688 6.365658,19.379674 a 0.14813855,0.14813855 0 0 0 0.0046,0.04508 c 0.138221,0.493796 0.31059,1.004052 0.75642,1.38549 0.44587,0.38144 1.142888,0.61474 2.281504,0.611874 a 0.14814029,0.14814029 0 1 0 -0.0014,-0.296276 c -1.097777,0.003 -1.711829,-0.219707 -2.086811,-0.541024 -0.372782,-0.31918 -0.525938,-0.754291 -0.659739,-1.233056 C 90.937133,61.925443 87.948597,55.75658 84.127032,52.894 82.214152,51.459126 80.095857,50.855836 78.094199,50.945291 Z"
       id="path898" />
  </g>
</svg>
